<ttFont>
    <TTGlyph name=".notdef" xMin="63" yMin="0" xMax="438" yMax="719">
      <contour>
        <pt x="63" y="0" on="1"/>
        <pt x="63" y="719" on="1"/>
        <pt x="438" y="719" on="1"/>
        <pt x="438" y="0" on="1"/>
      </contour>
      <contour>
        <pt x="125" y="63" on="1"/>
        <pt x="375" y="63" on="1"/>
        <pt x="375" y="657" on="1"/>
        <pt x="125" y="657" on="1"/>
      </contour>
    </TTGlyph>
    <TTGlyph name="A" xMin="17" yMin="0" xMax="610" yMax="633">
      <contour>
        <pt x="610" y="0" on="1"/>
        <pt x="474" y="0" on="1"/>
        <pt x="451" y="163" on="0"/>
        <pt x="450" y="162" on="1"/>
        <pt x="254" y="162" on="1"/>
        <pt x="213" y="97" on="0"/>
        <pt x="161" y="0" on="1"/>
        <pt x="17" y="0" on="1"/>
        <pt x="49" y="49" on="0"/>
        <pt x="240" y="364" on="0"/>
        <pt x="399" y="633" on="1"/>
        <pt x="504" y="633" on="1"/>
        <pt x="517" y="548" on="0"/>
        <pt x="540" y="401" on="0"/>
        <pt x="550" y="338" on="1"/>
        <pt x="600" y="35" on="0"/>
      </contour>
      <contour>
        <pt x="440" y="282" on="1"/>
        <pt x="435" y="325" on="0"/>
        <pt x="424" y="409" on="0"/>
        <pt x="419" y="451" on="1"/>
        <pt x="394" y="408" on="0"/>
        <pt x="345" y="324" on="0"/>
        <pt x="320" y="282" on="1"/>
      </contour>
    </TTGlyph>
    <TTGlyph name="AE" xMin="-31" yMin="0" xMax="1031" yMax="626">
      <contour>
        <pt x="1031" y="626" on="1"/>
        <pt x="1014" y="573" on="0"/>
        <pt x="1002" y="489" on="1"/>
        <pt x="919" y="489" on="1"/>
        <pt x="920" y="507" on="0"/>
        <pt x="916" y="514" on="1"/>
        <pt x="912" y="521" on="0"/>
        <pt x="857" y="521" on="1"/>
        <pt x="682" y="521" on="1"/>
        <pt x="651" y="378" on="1"/>
        <pt x="868" y="378" on="0"/>
        <pt x="904" y="392" on="1"/>
        <pt x="877" y="266" on="1"/>
        <pt x="833" y="281" on="0"/>
        <pt x="630" y="278" on="1"/>
        <pt x="591" y="107" on="1"/>
        <pt x="792" y="107" on="1"/>
        <pt x="843" y="107" on="0"/>
        <pt x="854" y="119" on="1"/>
        <pt x="863" y="130" on="0"/>
        <pt x="870" y="150" on="1"/>
        <pt x="952" y="150" on="1"/>
        <pt x="945" y="124" on="0"/>
        <pt x="930" y="50" on="0"/>
        <pt x="920" y="0" on="1"/>
        <pt x="837" y="3" on="0"/>
        <pt x="715" y="6" on="0"/>
        <pt x="675" y="5" on="1"/>
        <pt x="647" y="5" on="0"/>
        <pt x="550" y="2" on="1"/>
        <pt x="512" y="1" on="0"/>
        <pt x="449" y="0" on="0"/>
        <pt x="425" y="0" on="1"/>
        <pt x="435" y="41" on="0"/>
        <pt x="455" y="121" on="0"/>
        <pt x="466" y="162" on="1"/>
        <pt x="270" y="162" on="1"/>
        <pt x="237" y="130" on="0"/>
        <pt x="158" y="49" on="0"/>
        <pt x="112" y="0" on="1"/>
        <pt x="-31" y="0" on="1"/>
        <pt x="21" y="49" on="0"/>
        <pt x="332" y="362" on="0"/>
        <pt x="592" y="626" on="1"/>
        <pt x="612" y="626" on="0"/>
        <pt x="664" y="625" on="0"/>
        <pt x="697" y="624" on="1"/>
        <pt x="776" y="621" on="0"/>
        <pt x="803" y="621" on="1"/>
        <pt x="843" y="620" on="0"/>
        <pt x="956" y="623" on="0"/>
      </contour>
      <contour>
        <pt x="548" y="451" on="1"/>
        <pt x="506" y="408" on="0"/>
        <pt x="425" y="324" on="0"/>
        <pt x="383" y="282" on="1"/>
        <pt x="503" y="282" on="1"/>
        <pt x="514" y="325" on="0"/>
        <pt x="537" y="409" on="0"/>
      </contour>
    </TTGlyph>
    <TTGlyph name="AEacute" xMin="-27" yMin="0" xMax="1035" yMax="865">
      <contour>
        <pt x="1035" y="626" on="1"/>
        <pt x="1018" y="573" on="0"/>
        <pt x="1006" y="489" on="1"/>
        <pt x="923" y="489" on="1"/>
        <pt x="924" y="507" on="0"/>
        <pt x="920" y="514" on="1"/>
        <pt x="916" y="521" on="0"/>
        <pt x="861" y="521" on="1"/>
        <pt x="686" y="521" on="1"/>
        <pt x="655" y="378" on="1"/>
        <pt x="872" y="378" on="0"/>
        <pt x="908" y="392" on="1"/>
        <pt x="881" y="266" on="1"/>
        <pt x="837" y="281" on="0"/>
        <pt x="634" y="278" on="1"/>
        <pt x="595" y="107" on="1"/>
        <pt x="796" y="107" on="1"/>
        <pt x="847" y="107" on="0"/>
        <pt x="858" y="119" on="1"/>
        <pt x="867" y="130" on="0"/>
        <pt x="874" y="150" on="1"/>
        <pt x="956" y="150" on="1"/>
        <pt x="949" y="124" on="0"/>
        <pt x="934" y="50" on="0"/>
        <pt x="924" y="0" on="1"/>
        <pt x="841" y="3" on="0"/>
        <pt x="719" y="6" on="0"/>
        <pt x="679" y="5" on="1"/>
        <pt x="651" y="5" on="0"/>
        <pt x="554" y="2" on="1"/>
        <pt x="516" y="1" on="0"/>
        <pt x="453" y="0" on="0"/>
        <pt x="429" y="0" on="1"/>
        <pt x="439" y="41" on="0"/>
        <pt x="459" y="121" on="0"/>
        <pt x="470" y="162" on="1"/>
        <pt x="274" y="162" on="1"/>
        <pt x="241" y="130" on="0"/>
        <pt x="162" y="49" on="0"/>
        <pt x="116" y="0" on="1"/>
        <pt x="-27" y="0" on="1"/>
        <pt x="25" y="49" on="0"/>
        <pt x="336" y="362" on="0"/>
        <pt x="596" y="626" on="1"/>
        <pt x="616" y="626" on="0"/>
        <pt x="668" y="625" on="0"/>
        <pt x="701" y="624" on="1"/>
        <pt x="780" y="621" on="0"/>
        <pt x="807" y="621" on="1"/>
        <pt x="847" y="620" on="0"/>
        <pt x="960" y="623" on="0"/>
      </contour>
      <contour>
        <pt x="552" y="451" on="1"/>
        <pt x="510" y="408" on="0"/>
        <pt x="429" y="324" on="0"/>
        <pt x="387" y="282" on="1"/>
        <pt x="507" y="282" on="1"/>
        <pt x="518" y="325" on="0"/>
        <pt x="541" y="409" on="0"/>
      </contour>
      <contour>
        <pt x="817" y="835" on="1"/>
        <pt x="719" y="668" on="1"/>
        <pt x="650" y="688" on="1"/>
        <pt x="737" y="865" on="1"/>
        <pt x="719" y="668" on="1"/>
        <pt x="650" y="688" on="1"/>
        <pt x="737" y="865" on="1"/>
      </contour>
    </TTGlyph>
    <TTGlyph name="Aacute" xMin="17" yMin="0" xMax="610" yMax="865">
      <contour>
        <pt x="610" y="0" on="1"/>
        <pt x="474" y="0" on="1"/>
        <pt x="451" y="163" on="0"/>
        <pt x="450" y="162" on="1"/>
        <pt x="254" y="162" on="1"/>
        <pt x="213" y="97" on="0"/>
        <pt x="161" y="0" on="1"/>
        <pt x="17" y="0" on="1"/>
        <pt x="49" y="49" on="0"/>
        <pt x="240" y="364" on="0"/>
        <pt x="399" y="633" on="1"/>
        <pt x="504" y="633" on="1"/>
        <pt x="517" y="548" on="0"/>
        <pt x="540" y="401" on="0"/>
        <pt x="550" y="338" on="1"/>
        <pt x="600" y="35" on="0"/>
      </contour>
      <contour>
        <pt x="440" y="282" on="1"/>
        <pt x="435" y="325" on="0"/>
        <pt x="424" y="409" on="0"/>
        <pt x="419" y="451" on="1"/>
        <pt x="394" y="408" on="0"/>
        <pt x="345" y="324" on="0"/>
        <pt x="320" y="282" on="1"/>
      </contour>
      <contour>
        <pt x="581" y="835" on="1"/>
        <pt x="483" y="668" on="1"/>
        <pt x="414" y="688" on="1"/>
        <pt x="501" y="865" on="1"/>
      </contour>
      <contour>
        <pt x="581" y="835" on="1"/>
        <pt x="483" y="668" on="1"/>
        <pt x="414" y="688" on="1"/>
        <pt x="501" y="865" on="1"/>
      </contour>
    </TTGlyph>
    <TTGlyph name="Abreve" xMin="17" yMin="0" xMax="624" yMax="816">
      <contour>
        <pt x="610" y="0" on="1"/>
        <pt x="474" y="0" on="1"/>
        <pt x="451" y="163" on="0"/>
        <pt x="450" y="162" on="1"/>
        <pt x="254" y="162" on="1"/>
        <pt x="213" y="97" on="0"/>
        <pt x="161" y="0" on="1"/>
        <pt x="17" y="0" on="1"/>
        <pt x="49" y="49" on="0"/>
        <pt x="240" y="364" on="0"/>
        <pt x="399" y="633" on="1"/>
        <pt x="504" y="633" on="1"/>
        <pt x="517" y="548" on="0"/>
        <pt x="540" y="401" on="0"/>
        <pt x="550" y="338" on="1"/>
        <pt x="600" y="35" on="0"/>
      </contour>
      <contour>
        <pt x="440" y="282" on="1"/>
        <pt x="435" y="325" on="0"/>
        <pt x="424" y="409" on="0"/>
        <pt x="419" y="451" on="1"/>
        <pt x="394" y="408" on="0"/>
        <pt x="345" y="324" on="0"/>
        <pt x="320" y="282" on="1"/>
      </contour>
      <contour>
        <pt x="624" y="777" on="1"/>
        <pt x="562" y="709" on="0"/>
        <pt x="552" y="702" on="1"/>
        <pt x="512" y="673" on="0"/>
        <pt x="446" y="674" on="1"/>
        <pt x="393" y="676" on="0"/>
        <pt x="361" y="703" on="1"/>
        <pt x="348" y="714" on="0"/>
        <pt x="322" y="751" on="0"/>
        <pt x="308" y="777" on="1"/>
        <pt x="353" y="810" on="1"/>
        <pt x="361" y="797" on="0"/>
        <pt x="379" y="772" on="0"/>
        <pt x="387" y="759" on="1"/>
        <pt x="412" y="732" on="0"/>
        <pt x="458" y="730" on="1"/>
        <pt x="493" y="729" on="0"/>
        <pt x="529" y="758" on="1"/>
        <pt x="540" y="767" on="0"/>
        <pt x="586" y="816" on="1"/>
      </contour>
    </TTGlyph>
    <TTGlyph name="Acircumflex" xMin="9" yMin="0" xMax="619" yMax="852">
      <contour>
        <pt x="602" y="0" on="1"/>
        <pt x="466" y="0" on="1"/>
        <pt x="443" y="163" on="0"/>
        <pt x="442" y="162" on="1"/>
        <pt x="246" y="162" on="1"/>
        <pt x="205" y="97" on="0"/>
        <pt x="153" y="0" on="1"/>
        <pt x="9" y="0" on="1"/>
        <pt x="41" y="49" on="0"/>
        <pt x="232" y="364" on="0"/>
        <pt x="391" y="633" on="1"/>
        <pt x="496" y="633" on="1"/>
        <pt x="509" y="548" on="0"/>
        <pt x="532" y="401" on="0"/>
        <pt x="542" y="338" on="1"/>
        <pt x="592" y="35" on="0"/>
      </contour>
      <contour>
        <pt x="432" y="282" on="1"/>
        <pt x="427" y="325" on="0"/>
        <pt x="416" y="409" on="0"/>
        <pt x="411" y="451" on="1"/>
        <pt x="386" y="408" on="0"/>
        <pt x="337" y="324" on="0"/>
        <pt x="312" y="282" on="1"/>
      </contour>
      <contour>
        <pt x="619" y="728" on="1"/>
        <pt x="562" y="677" on="1"/>
        <pt x="543" y="692" on="0"/>
        <pt x="493" y="734" on="0"/>
        <pt x="461" y="762" on="1"/>
        <pt x="433" y="746" on="0"/>
        <pt x="353" y="699" on="0"/>
        <pt x="299" y="667" on="1"/>
        <pt x="263" y="728" on="1"/>
        <pt x="467" y="852" on="1"/>
        <pt x="505" y="821" on="0"/>
        <pt x="581" y="759" on="0"/>
      </contour>
    </TTGlyph>
    <TTGlyph name="Adieresis" xMin="17" yMin="0" xMax="613" yMax="777">
      <contour>
        <pt x="610" y="0" on="1"/>
        <pt x="474" y="0" on="1"/>
        <pt x="451" y="163" on="0"/>
        <pt x="450" y="162" on="1"/>
        <pt x="254" y="162" on="1"/>
        <pt x="213" y="97" on="0"/>
        <pt x="161" y="0" on="1"/>
        <pt x="17" y="0" on="1"/>
        <pt x="49" y="49" on="0"/>
        <pt x="240" y="364" on="0"/>
        <pt x="399" y="633" on="1"/>
        <pt x="504" y="633" on="1"/>
        <pt x="517" y="548" on="0"/>
        <pt x="540" y="401" on="0"/>
        <pt x="550" y="338" on="1"/>
        <pt x="600" y="35" on="0"/>
      </contour>
      <contour>
        <pt x="440" y="282" on="1"/>
        <pt x="435" y="325" on="0"/>
        <pt x="424" y="409" on="0"/>
        <pt x="419" y="451" on="1"/>
        <pt x="394" y="408" on="0"/>
        <pt x="345" y="324" on="0"/>
        <pt x="320" y="282" on="1"/>
      </contour>
      <contour>
        <pt x="548" y="669" on="1"/>
        <pt x="530" y="669" on="0"/>
        <pt x="507" y="694" on="0"/>
        <pt x="507" y="711" on="1"/>
        <pt x="507" y="723" on="0"/>
        <pt x="518" y="746" on="0"/>
        <pt x="536" y="764" on="0"/>
        <pt x="559" y="775" on="0"/>
        <pt x="571" y="775" on="1"/>
        <pt x="589" y="775" on="0"/>
        <pt x="613" y="750" on="0"/>
        <pt x="613" y="732" on="1"/>
        <pt x="613" y="720" on="0"/>
        <pt x="602" y="697" on="0"/>
        <pt x="583" y="680" on="0"/>
        <pt x="560" y="669" on="0"/>
      </contour>
      <contour>
        <pt x="421" y="724" on="1"/>
        <pt x="416" y="704" on="0"/>
        <pt x="378" y="672" on="0"/>
        <pt x="357" y="672" on="1"/>
        <pt x="338" y="672" on="0"/>
        <pt x="313" y="696" on="0"/>
        <pt x="313" y="714" on="1"/>
        <pt x="313" y="726" on="0"/>
        <pt x="325" y="749" on="0"/>
        <pt x="343" y="766" on="0"/>
        <pt x="367" y="777" on="0"/>
        <pt x="379" y="777" on="1"/>
        <pt x="400" y="777" on="0"/>
        <pt x="425" y="744" on="0"/>
      </contour>
    </TTGlyph>
    <TTGlyph name="Agrave" xMin="17" yMin="0" xMax="610" yMax="855">
      <contour>
        <pt x="610" y="0" on="1"/>
        <pt x="474" y="0" on="1"/>
        <pt x="451" y="163" on="0"/>
        <pt x="450" y="162" on="1"/>
        <pt x="254" y="162" on="1"/>
        <pt x="213" y="97" on="0"/>
        <pt x="161" y="0" on="1"/>
        <pt x="17" y="0" on="1"/>
        <pt x="49" y="49" on="0"/>
        <pt x="240" y="364" on="0"/>
        <pt x="399" y="633" on="1"/>
        <pt x="504" y="633" on="1"/>
        <pt x="517" y="548" on="0"/>
        <pt x="540" y="401" on="0"/>
        <pt x="550" y="338" on="1"/>
        <pt x="600" y="35" on="0"/>
      </contour>
      <contour>
        <pt x="440" y="282" on="1"/>
        <pt x="435" y="325" on="0"/>
        <pt x="424" y="409" on="0"/>
        <pt x="419" y="451" on="1"/>
        <pt x="394" y="408" on="0"/>
        <pt x="345" y="324" on="0"/>
        <pt x="320" y="282" on="1"/>
      </contour>
      <contour>
        <pt x="487" y="681" on="1"/>
        <pt x="418" y="659" on="1"/>
        <pt x="341" y="826" on="1"/>
        <pt x="420" y="855" on="1"/>
      </contour>
    </TTGlyph>
    <TTGlyph name="Alpha" xMin="17" yMin="0" xMax="610" yMax="633">
      <contour>
        <pt x="610" y="0" on="1"/>
        <pt x="474" y="0" on="1"/>
        <pt x="451" y="163" on="0"/>
        <pt x="450" y="162" on="1"/>
        <pt x="254" y="162" on="1"/>
        <pt x="213" y="97" on="0"/>
        <pt x="161" y="0" on="1"/>
        <pt x="17" y="0" on="1"/>
        <pt x="49" y="49" on="0"/>
        <pt x="240" y="364" on="0"/>
        <pt x="399" y="633" on="1"/>
        <pt x="504" y="633" on="1"/>
        <pt x="517" y="548" on="0"/>
        <pt x="540" y="401" on="0"/>
        <pt x="550" y="338" on="1"/>
        <pt x="600" y="35" on="0"/>
      </contour>
      <contour>
        <pt x="440" y="282" on="1"/>
        <pt x="435" y="325" on="0"/>
        <pt x="424" y="409" on="0"/>
        <pt x="419" y="451" on="1"/>
        <pt x="394" y="408" on="0"/>
        <pt x="345" y="324" on="0"/>
        <pt x="320" y="282" on="1"/>
      </contour>
    </TTGlyph>
    <TTGlyph name="Alphatonos" xMin="17" yMin="0" xMax="610" yMax="675">
      <contour>
        <pt x="610" y="0" on="1"/>
        <pt x="474" y="0" on="1"/>
        <pt x="451" y="163" on="0"/>
        <pt x="450" y="162" on="1"/>
        <pt x="254" y="162" on="1"/>
        <pt x="213" y="97" on="0"/>
        <pt x="161" y="0" on="1"/>
        <pt x="17" y="0" on="1"/>
        <pt x="49" y="49" on="0"/>
        <pt x="240" y="364" on="0"/>
        <pt x="399" y="633" on="1"/>
        <pt x="504" y="633" on="1"/>
        <pt x="517" y="548" on="0"/>
        <pt x="540" y="401" on="0"/>
        <pt x="550" y="338" on="1"/>
        <pt x="600" y="35" on="0"/>
      </contour>
      <contour>
        <pt x="440" y="282" on="1"/>
        <pt x="435" y="325" on="0"/>
        <pt x="424" y="409" on="0"/>
        <pt x="419" y="451" on="1"/>
        <pt x="394" y="408" on="0"/>
        <pt x="345" y="324" on="0"/>
        <pt x="320" y="282" on="1"/>
      </contour>
      <contour>
        <pt x="184" y="645" on="1"/>
        <pt x="121" y="478" on="1"/>
        <pt x="48" y="498" on="1"/>
        <pt x="97" y="675" on="1"/>
      </contour>
    </TTGlyph>
    <TTGlyph name="Amacron" xMin="17" yMin="0" xMax="615" yMax="722">
      <contour>
        <pt x="610" y="0" on="1"/>
        <pt x="474" y="0" on="1"/>
        <pt x="451" y="163" on="0"/>
        <pt x="450" y="162" on="1"/>
        <pt x="254" y="162" on="1"/>
        <pt x="213" y="97" on="0"/>
        <pt x="161" y="0" on="1"/>
        <pt x="17" y="0" on="1"/>
        <pt x="49" y="49" on="0"/>
        <pt x="240" y="364" on="0"/>
        <pt x="399" y="633" on="1"/>
        <pt x="504" y="633" on="1"/>
        <pt x="517" y="548" on="0"/>
        <pt x="540" y="401" on="0"/>
        <pt x="550" y="338" on="1"/>
        <pt x="600" y="35" on="0"/>
      </contour>
      <contour>
        <pt x="440" y="282" on="1"/>
        <pt x="435" y="325" on="0"/>
        <pt x="424" y="409" on="0"/>
        <pt x="419" y="451" on="1"/>
        <pt x="394" y="408" on="0"/>
        <pt x="345" y="324" on="0"/>
        <pt x="320" y="282" on="1"/>
      </contour>
      <contour>
        <pt x="615" y="722" on="1"/>
        <pt x="604" y="670" on="1"/>
        <pt x="297" y="670" on="1"/>
        <pt x="308" y="722" on="1"/>
      </contour>
    </TTGlyph>
    <TTGlyph name="Aogonek" xMin="17" yMin="-222" xMax="613" yMax="633">
      <contour>
        <pt x="613" y="-193" on="1"/>
        <pt x="578" y="-219" on="0"/>
        <pt x="513" y="-222" on="1"/>
        <pt x="470" y="-222" on="0"/>
        <pt x="421" y="-165" on="0"/>
        <pt x="425" y="-123" on="1"/>
        <pt x="432" y="-50" on="0"/>
        <pt x="476" y="0" on="1"/>
        <pt x="474" y="0" on="1"/>
        <pt x="451" y="163" on="0"/>
        <pt x="450" y="162" on="1"/>
        <pt x="254" y="162" on="1"/>
        <pt x="213" y="97" on="0"/>
        <pt x="161" y="0" on="1"/>
        <pt x="17" y="0" on="1"/>
        <pt x="49" y="49" on="0"/>
        <pt x="240" y="364" on="0"/>
        <pt x="399" y="633" on="1"/>
        <pt x="504" y="633" on="1"/>
        <pt x="517" y="548" on="0"/>
        <pt x="540" y="401" on="0"/>
        <pt x="550" y="338" on="1"/>
        <pt x="600" y="35" on="0"/>
        <pt x="610" y="0" on="1"/>
        <pt x="570" y="0" on="1"/>
        <pt x="537" y="-30" on="0"/>
        <pt x="515" y="-81" on="1"/>
        <pt x="507" y="-102" on="0"/>
        <pt x="507" y="-114" on="1"/>
        <pt x="507" y="-145" on="0"/>
        <pt x="546" y="-143" on="1"/>
        <pt x="567" y="-143" on="0"/>
        <pt x="602" y="-120" on="1"/>
      </contour>
      <contour>
        <pt x="440" y="282" on="1"/>
        <pt x="435" y="325" on="0"/>
        <pt x="424" y="409" on="0"/>
        <pt x="419" y="451" on="1"/>
        <pt x="394" y="408" on="0"/>
        <pt x="345" y="324" on="0"/>
        <pt x="320" y="282" on="1"/>
      </contour>
    </TTGlyph>
    <TTGlyph name="Aring" xMin="17" yMin="0" xMax="610" yMax="841">
      <contour>
        <pt x="457" y="657" on="1"/>
        <pt x="424" y="657" on="0"/>
        <pt x="383" y="698" on="0"/>
        <pt x="383" y="729" on="1"/>
        <pt x="383" y="772" on="0"/>
        <pt x="418" y="807" on="1"/>
        <pt x="452" y="841" on="0"/>
        <pt x="496" y="841" on="1"/>
        <pt x="529" y="841" on="0"/>
        <pt x="571" y="799" on="0"/>
        <pt x="571" y="768" on="1"/>
        <pt x="571" y="725" on="0"/>
        <pt x="536" y="690" on="1"/>
        <pt x="501" y="657" on="0"/>
      </contour>
      <contour>
        <pt x="520" y="749" on="1"/>
        <pt x="524" y="767" on="0"/>
        <pt x="504" y="792" on="0"/>
        <pt x="486" y="792" on="1"/>
        <pt x="468" y="792" on="0"/>
        <pt x="437" y="767" on="0"/>
        <pt x="433" y="749" on="1"/>
        <pt x="430" y="731" on="0"/>
        <pt x="450" y="705" on="0"/>
        <pt x="468" y="705" on="1"/>
        <pt x="486" y="705" on="0"/>
        <pt x="516" y="731" on="0"/>
      </contour>
      <contour>
        <pt x="610" y="0" on="1"/>
        <pt x="474" y="0" on="1"/>
        <pt x="451" y="163" on="0"/>
        <pt x="450" y="162" on="1"/>
        <pt x="254" y="162" on="1"/>
        <pt x="213" y="97" on="0"/>
        <pt x="161" y="0" on="1"/>
        <pt x="17" y="0" on="1"/>
        <pt x="49" y="49" on="0"/>
        <pt x="240" y="364" on="0"/>
        <pt x="399" y="633" on="1"/>
        <pt x="504" y="633" on="1"/>
        <pt x="517" y="548" on="0"/>
        <pt x="540" y="401" on="0"/>
        <pt x="550" y="338" on="1"/>
        <pt x="600" y="35" on="0"/>
      </contour>
      <contour>
        <pt x="440" y="282" on="1"/>
        <pt x="435" y="325" on="0"/>
        <pt x="424" y="409" on="0"/>
        <pt x="419" y="451" on="1"/>
        <pt x="394" y="408" on="0"/>
        <pt x="345" y="324" on="0"/>
        <pt x="320" y="282" on="1"/>
      </contour>
    </TTGlyph>
    <TTGlyph name="Aringacute" xMin="17" yMin="0" xMax="637" yMax="1083">
      <contour>
        <pt x="457" y="673" on="1"/>
        <pt x="424" y="673" on="0"/>
        <pt x="383" y="714" on="0"/>
        <pt x="383" y="746" on="1"/>
        <pt x="383" y="788" on="0"/>
        <pt x="418" y="823" on="1"/>
        <pt x="452" y="857" on="0"/>
        <pt x="496" y="857" on="1"/>
        <pt x="529" y="857" on="0"/>
        <pt x="571" y="816" on="0"/>
        <pt x="571" y="784" on="1"/>
        <pt x="571" y="742" on="0"/>
        <pt x="536" y="707" on="1"/>
        <pt x="502" y="673" on="0"/>
      </contour>
      <contour>
        <pt x="520" y="765" on="1"/>
        <pt x="524" y="783" on="0"/>
        <pt x="504" y="808" on="0"/>
        <pt x="486" y="808" on="1"/>
        <pt x="468" y="808" on="0"/>
        <pt x="437" y="783" on="0"/>
        <pt x="433" y="765" on="1"/>
        <pt x="429" y="747" on="0"/>
        <pt x="450" y="722" on="0"/>
        <pt x="468" y="722" on="1"/>
        <pt x="486" y="722" on="0"/>
        <pt x="516" y="747" on="0"/>
      </contour>
      <contour>
        <pt x="637" y="1053" on="1"/>
        <pt x="538" y="886" on="1"/>
        <pt x="469" y="906" on="1"/>
        <pt x="556" y="1083" on="1"/>
      </contour>
      <contour>
        <pt x="637" y="1053" on="1"/>
        <pt x="538" y="886" on="1"/>
        <pt x="469" y="906" on="1"/>
        <pt x="556" y="1083" on="1"/>
      </contour>
      <contour>
        <pt x="610" y="0" on="1"/>
        <pt x="474" y="0" on="1"/>
        <pt x="451" y="163" on="0"/>
        <pt x="450" y="162" on="1"/>
        <pt x="254" y="162" on="1"/>
        <pt x="213" y="97" on="0"/>
        <pt x="161" y="0" on="1"/>
        <pt x="17" y="0" on="1"/>
        <pt x="49" y="49" on="0"/>
        <pt x="240" y="364" on="0"/>
        <pt x="399" y="633" on="1"/>
        <pt x="504" y="633" on="1"/>
        <pt x="517" y="548" on="0"/>
        <pt x="540" y="401" on="0"/>
        <pt x="550" y="338" on="1"/>
        <pt x="600" y="35" on="0"/>
      </contour>
      <contour>
        <pt x="440" y="282" on="1"/>
        <pt x="435" y="325" on="0"/>
        <pt x="424" y="409" on="0"/>
        <pt x="419" y="451" on="1"/>
        <pt x="394" y="408" on="0"/>
        <pt x="345" y="324" on="0"/>
        <pt x="320" y="282" on="1"/>
      </contour>
    </TTGlyph>
    <TTGlyph name="Atilde" xMin="17" yMin="0" xMax="662" yMax="789">
      <contour>
        <pt x="610" y="0" on="1"/>
        <pt x="474" y="0" on="1"/>
        <pt x="451" y="163" on="0"/>
        <pt x="450" y="162" on="1"/>
        <pt x="254" y="162" on="1"/>
        <pt x="213" y="97" on="0"/>
        <pt x="161" y="0" on="1"/>
        <pt x="17" y="0" on="1"/>
        <pt x="49" y="49" on="0"/>
        <pt x="240" y="364" on="0"/>
        <pt x="399" y="633" on="1"/>
        <pt x="504" y="633" on="1"/>
        <pt x="517" y="548" on="0"/>
        <pt x="540" y="401" on="0"/>
        <pt x="550" y="338" on="1"/>
        <pt x="600" y="35" on="0"/>
      </contour>
      <contour>
        <pt x="440" y="282" on="1"/>
        <pt x="435" y="325" on="0"/>
        <pt x="424" y="409" on="0"/>
        <pt x="419" y="451" on="1"/>
        <pt x="394" y="408" on="0"/>
        <pt x="345" y="324" on="0"/>
        <pt x="320" y="282" on="1"/>
      </contour>
      <contour>
        <pt x="662" y="744" on="1"/>
        <pt x="598" y="674" on="0"/>
        <pt x="527" y="674" on="1"/>
        <pt x="477" y="674" on="0"/>
        <pt x="446" y="698" on="1"/>
        <pt x="415" y="722" on="0"/>
        <pt x="381" y="723" on="1"/>
        <pt x="349" y="725" on="0"/>
        <pt x="302" y="669" on="1"/>
        <pt x="256" y="690" on="1"/>
        <pt x="284" y="744" on="0"/>
        <pt x="327" y="769" on="1"/>
        <pt x="361" y="789" on="0"/>
        <pt x="390" y="789" on="1"/>
        <pt x="449" y="789" on="0"/>
        <pt x="483" y="764" on="1"/>
        <pt x="517" y="740" on="0"/>
        <pt x="548" y="740" on="1"/>
        <pt x="584" y="740" on="0"/>
        <pt x="606" y="786" on="1"/>
        <pt x="620" y="775" on="0"/>
        <pt x="648" y="755" on="0"/>
      </contour>
    </TTGlyph>
    <TTGlyph name="B" xMin="7" yMin="0" xMax="611" yMax="625">
      <contour>
        <pt x="606" y="460" on="1"/>
        <pt x="591" y="389" on="0"/>
        <pt x="532" y="351" on="1"/>
        <pt x="488" y="322" on="0"/>
        <pt x="449" y="324" on="1"/>
        <pt x="492" y="323" on="0"/>
        <pt x="525" y="297" on="1"/>
        <pt x="566" y="265" on="0"/>
        <pt x="566" y="209" on="1"/>
        <pt x="566" y="190" on="0"/>
        <pt x="561" y="165" on="1"/>
        <pt x="537" y="72" on="0"/>
        <pt x="450" y="30" on="1"/>
        <pt x="387" y="0" on="0"/>
        <pt x="308" y="0" on="1"/>
        <pt x="7" y="0" on="1"/>
        <pt x="26" y="39" on="0"/>
        <pt x="45" y="125" on="1"/>
        <pt x="46" y="132" on="0"/>
        <pt x="84" y="308" on="1"/>
        <pt x="123" y="494" on="1"/>
        <pt x="143" y="590" on="0"/>
        <pt x="140" y="625" on="1"/>
        <pt x="439" y="625" on="1"/>
        <pt x="505" y="625" on="0"/>
        <pt x="551" y="600" on="1"/>
        <pt x="611" y="565" on="0"/>
        <pt x="611" y="499" on="1"/>
        <pt x="611" y="482" on="0"/>
      </contour>
      <contour>
        <pt x="469" y="454" on="1"/>
        <pt x="470" y="459" on="0"/>
        <pt x="471" y="468" on="0"/>
        <pt x="471" y="472" on="1"/>
        <pt x="471" y="497" on="0"/>
        <pt x="436" y="527" on="0"/>
        <pt x="411" y="527" on="1"/>
        <pt x="260" y="526" on="1"/>
        <pt x="228" y="377" on="1"/>
        <pt x="379" y="377" on="1"/>
        <pt x="452" y="377" on="0"/>
      </contour>
      <contour>
        <pt x="427" y="185" on="1"/>
        <pt x="428" y="190" on="0"/>
        <pt x="429" y="200" on="0"/>
        <pt x="429" y="205" on="1"/>
        <pt x="429" y="242" on="0"/>
        <pt x="394" y="260" on="1"/>
        <pt x="374" y="270" on="0"/>
        <pt x="351" y="270" on="1"/>
        <pt x="205" y="270" on="1"/>
        <pt x="170" y="104" on="1"/>
        <pt x="325" y="104" on="1"/>
        <pt x="353" y="104" on="0"/>
        <pt x="380" y="119" on="1"/>
        <pt x="418" y="142" on="0"/>
      </contour>
    </TTGlyph>
    <TTGlyph name="Beta" xMin="7" yMin="0" xMax="611" yMax="625">
      <contour>
        <pt x="606" y="460" on="1"/>
        <pt x="591" y="389" on="0"/>
        <pt x="532" y="351" on="1"/>
        <pt x="488" y="322" on="0"/>
        <pt x="449" y="324" on="1"/>
        <pt x="492" y="323" on="0"/>
        <pt x="525" y="297" on="1"/>
        <pt x="566" y="265" on="0"/>
        <pt x="566" y="209" on="1"/>
        <pt x="566" y="190" on="0"/>
        <pt x="561" y="165" on="1"/>
        <pt x="537" y="72" on="0"/>
        <pt x="450" y="30" on="1"/>
        <pt x="387" y="0" on="0"/>
        <pt x="308" y="0" on="1"/>
        <pt x="7" y="0" on="1"/>
        <pt x="26" y="39" on="0"/>
        <pt x="45" y="125" on="1"/>
        <pt x="46" y="132" on="0"/>
        <pt x="84" y="308" on="1"/>
        <pt x="123" y="494" on="1"/>
        <pt x="143" y="590" on="0"/>
        <pt x="140" y="625" on="1"/>
        <pt x="439" y="625" on="1"/>
        <pt x="505" y="625" on="0"/>
        <pt x="551" y="600" on="1"/>
        <pt x="611" y="565" on="0"/>
        <pt x="611" y="499" on="1"/>
        <pt x="611" y="482" on="0"/>
      </contour>
      <contour>
        <pt x="469" y="454" on="1"/>
        <pt x="470" y="459" on="0"/>
        <pt x="471" y="468" on="0"/>
        <pt x="471" y="472" on="1"/>
        <pt x="471" y="497" on="0"/>
        <pt x="436" y="527" on="0"/>
        <pt x="411" y="527" on="1"/>
        <pt x="260" y="526" on="1"/>
        <pt x="228" y="377" on="1"/>
        <pt x="379" y="377" on="1"/>
        <pt x="452" y="377" on="0"/>
      </contour>
      <contour>
        <pt x="427" y="185" on="1"/>
        <pt x="428" y="190" on="0"/>
        <pt x="429" y="200" on="0"/>
        <pt x="429" y="205" on="1"/>
        <pt x="429" y="242" on="0"/>
        <pt x="394" y="260" on="1"/>
        <pt x="374" y="270" on="0"/>
        <pt x="351" y="270" on="1"/>
        <pt x="205" y="270" on="1"/>
        <pt x="170" y="104" on="1"/>
        <pt x="325" y="104" on="1"/>
        <pt x="353" y="104" on="0"/>
        <pt x="380" y="119" on="1"/>
        <pt x="418" y="142" on="0"/>
      </contour>
    </TTGlyph>
    <TTGlyph name="C" xMin="20" yMin="-18" xMax="570" yMax="642">
      <contour>
        <pt x="570" y="616" on="1"/>
        <pt x="567" y="602" on="0"/>
        <pt x="557" y="522" on="0"/>
        <pt x="550" y="454" on="1"/>
        <pt x="468" y="454" on="1"/>
        <pt x="468" y="475" on="1"/>
        <pt x="466" y="486" on="0"/>
        <pt x="463" y="490" on="1"/>
        <pt x="440" y="518" on="0"/>
        <pt x="377" y="516" on="1"/>
        <pt x="310" y="514" on="0"/>
        <pt x="252" y="464" on="1"/>
        <pt x="185" y="406" on="0"/>
        <pt x="164" y="308" on="1"/>
        <pt x="158" y="279" on="0"/>
        <pt x="158" y="255" on="1"/>
        <pt x="158" y="186" on="0"/>
        <pt x="239" y="108" on="0"/>
        <pt x="303" y="112" on="1"/>
        <pt x="363" y="117" on="0"/>
        <pt x="388" y="137" on="1"/>
        <pt x="400" y="146" on="0"/>
        <pt x="413" y="174" on="1"/>
        <pt x="497" y="175" on="1"/>
        <pt x="486" y="140" on="0"/>
        <pt x="460" y="56" on="0"/>
        <pt x="446" y="6" on="1"/>
        <pt x="419" y="10" on="0"/>
        <pt x="359" y="-5" on="1"/>
        <pt x="310" y="-18" on="0"/>
        <pt x="255" y="-18" on="1"/>
        <pt x="233" y="-18" on="0"/>
        <pt x="214" y="-15" on="1"/>
        <pt x="121" y="-1" on="0"/>
        <pt x="69" y="74" on="1"/>
        <pt x="20" y="144" on="0"/>
        <pt x="20" y="246" on="1"/>
        <pt x="20" y="265" on="0"/>
        <pt x="24" y="303" on="0"/>
        <pt x="28" y="323" on="1"/>
        <pt x="57" y="469" on="0"/>
        <pt x="156" y="555" on="1"/>
        <pt x="256" y="642" on="0"/>
        <pt x="401" y="642" on="1"/>
        <pt x="425" y="642" on="0"/>
        <pt x="488" y="626" on="1"/>
        <pt x="546" y="611" on="0"/>
      </contour>
    </TTGlyph>
    <TTGlyph name="Cacute" xMin="20" yMin="-18" xMax="570" yMax="867">
      <contour>
        <pt x="570" y="616" on="1"/>
        <pt x="567" y="602" on="0"/>
        <pt x="557" y="522" on="0"/>
        <pt x="550" y="454" on="1"/>
        <pt x="468" y="454" on="1"/>
        <pt x="468" y="475" on="1"/>
        <pt x="466" y="486" on="0"/>
        <pt x="463" y="490" on="1"/>
        <pt x="440" y="518" on="0"/>
        <pt x="377" y="516" on="1"/>
        <pt x="310" y="514" on="0"/>
        <pt x="252" y="464" on="1"/>
        <pt x="185" y="406" on="0"/>
        <pt x="164" y="308" on="1"/>
        <pt x="158" y="279" on="0"/>
        <pt x="158" y="255" on="1"/>
        <pt x="158" y="186" on="0"/>
        <pt x="239" y="108" on="0"/>
        <pt x="303" y="112" on="1"/>
        <pt x="363" y="117" on="0"/>
        <pt x="388" y="137" on="1"/>
        <pt x="400" y="146" on="0"/>
        <pt x="413" y="174" on="1"/>
        <pt x="497" y="175" on="1"/>
        <pt x="486" y="140" on="0"/>
        <pt x="460" y="56" on="0"/>
        <pt x="446" y="6" on="1"/>
        <pt x="419" y="10" on="0"/>
        <pt x="359" y="-5" on="1"/>
        <pt x="310" y="-18" on="0"/>
        <pt x="255" y="-18" on="1"/>
        <pt x="233" y="-18" on="0"/>
        <pt x="214" y="-15" on="1"/>
        <pt x="121" y="-1" on="0"/>
        <pt x="69" y="74" on="1"/>
        <pt x="20" y="144" on="0"/>
        <pt x="20" y="246" on="1"/>
        <pt x="20" y="265" on="0"/>
        <pt x="24" y="303" on="0"/>
        <pt x="28" y="323" on="1"/>
        <pt x="57" y="469" on="0"/>
        <pt x="156" y="555" on="1"/>
        <pt x="256" y="642" on="0"/>
        <pt x="401" y="642" on="1"/>
        <pt x="425" y="642" on="0"/>
        <pt x="488" y="626" on="1"/>
        <pt x="546" y="611" on="0"/>
      </contour>
      <contour>
        <pt x="532" y="837" on="1"/>
        <pt x="434" y="670" on="1"/>
        <pt x="365" y="690" on="1"/>
        <pt x="452" y="867" on="1"/>
      </contour>
      <contour>
        <pt x="532" y="837" on="1"/>
        <pt x="434" y="670" on="1"/>
        <pt x="365" y="690" on="1"/>
        <pt x="452" y="867" on="1"/>
      </contour>
    </TTGlyph>
    <TTGlyph name="Ccaron" xMin="20" yMin="-18" xMax="609" yMax="849">
      <contour>
        <pt x="570" y="616" on="1"/>
        <pt x="567" y="602" on="0"/>
        <pt x="557" y="522" on="0"/>
        <pt x="550" y="454" on="1"/>
        <pt x="468" y="454" on="1"/>
        <pt x="468" y="475" on="1"/>
        <pt x="466" y="486" on="0"/>
        <pt x="463" y="490" on="1"/>
        <pt x="440" y="518" on="0"/>
        <pt x="377" y="516" on="1"/>
        <pt x="310" y="514" on="0"/>
        <pt x="252" y="464" on="1"/>
        <pt x="185" y="406" on="0"/>
        <pt x="164" y="308" on="1"/>
        <pt x="158" y="279" on="0"/>
        <pt x="158" y="255" on="1"/>
        <pt x="158" y="186" on="0"/>
        <pt x="239" y="108" on="0"/>
        <pt x="303" y="112" on="1"/>
        <pt x="363" y="117" on="0"/>
        <pt x="388" y="137" on="1"/>
        <pt x="400" y="146" on="0"/>
        <pt x="413" y="174" on="1"/>
        <pt x="497" y="175" on="1"/>
        <pt x="486" y="140" on="0"/>
        <pt x="460" y="56" on="0"/>
        <pt x="446" y="6" on="1"/>
        <pt x="419" y="10" on="0"/>
        <pt x="359" y="-5" on="1"/>
        <pt x="310" y="-18" on="0"/>
        <pt x="255" y="-18" on="1"/>
        <pt x="233" y="-18" on="0"/>
        <pt x="214" y="-15" on="1"/>
        <pt x="121" y="-1" on="0"/>
        <pt x="69" y="74" on="1"/>
        <pt x="20" y="144" on="0"/>
        <pt x="20" y="246" on="1"/>
        <pt x="20" y="265" on="0"/>
        <pt x="24" y="303" on="0"/>
        <pt x="28" y="323" on="1"/>
        <pt x="57" y="469" on="0"/>
        <pt x="156" y="555" on="1"/>
        <pt x="256" y="642" on="0"/>
        <pt x="401" y="642" on="1"/>
        <pt x="425" y="642" on="0"/>
        <pt x="488" y="626" on="1"/>
        <pt x="546" y="611" on="0"/>
      </contour>
      <contour>
        <pt x="609" y="789" on="1"/>
        <pt x="564" y="758" on="0"/>
        <pt x="475" y="697" on="0"/>
        <pt x="428" y="668" on="1"/>
        <pt x="382" y="668" on="1"/>
        <pt x="253" y="789" on="1"/>
        <pt x="309" y="847" on="1"/>
        <pt x="329" y="829" on="0"/>
        <pt x="383" y="781" on="0"/>
        <pt x="418" y="751" on="1"/>
        <pt x="446" y="769" on="0"/>
        <pt x="520" y="818" on="0"/>
        <pt x="568" y="849" on="1"/>
      </contour>
    </TTGlyph>
    <TTGlyph name="Ccedilla" xMin="21" yMin="-193" xMax="570" yMax="642">
      <contour>
        <pt x="251" y="-18" on="1"/>
        <pt x="243" y="-29" on="1"/>
        <pt x="280" y="-51" on="0"/>
        <pt x="280" y="-89" on="1"/>
        <pt x="280" y="-112" on="0"/>
        <pt x="265" y="-137" on="1"/>
        <pt x="227" y="-200" on="0"/>
        <pt x="129" y="-193" on="1"/>
        <pt x="84" y="-190" on="0"/>
        <pt x="77" y="-180" on="1"/>
        <pt x="117" y="-110" on="1"/>
        <pt x="127" y="-116" on="0"/>
        <pt x="143" y="-116" on="1"/>
        <pt x="171" y="-116" on="0"/>
        <pt x="179" y="-98" on="1"/>
        <pt x="184" y="-85" on="0"/>
        <pt x="184" y="-77" on="1"/>
        <pt x="184" y="-53" on="0"/>
        <pt x="143" y="-48" on="1"/>
        <pt x="141" y="-48" on="0"/>
        <pt x="172" y="-5" on="1"/>
        <pt x="99" y="20" on="0"/>
        <pt x="59" y="92" on="1"/>
        <pt x="21" y="159" on="0"/>
        <pt x="21" y="249" on="1"/>
        <pt x="21" y="288" on="0"/>
        <pt x="28" y="323" on="1"/>
        <pt x="54" y="468" on="0"/>
        <pt x="155" y="554" on="1"/>
        <pt x="256" y="642" on="0"/>
        <pt x="401" y="642" on="1"/>
        <pt x="425" y="642" on="0"/>
        <pt x="488" y="626" on="1"/>
        <pt x="546" y="611" on="0"/>
        <pt x="570" y="616" on="1"/>
        <pt x="567" y="602" on="0"/>
        <pt x="557" y="522" on="0"/>
        <pt x="550" y="454" on="1"/>
        <pt x="468" y="454" on="1"/>
        <pt x="468" y="475" on="1"/>
        <pt x="466" y="486" on="0"/>
        <pt x="463" y="490" on="1"/>
        <pt x="440" y="518" on="0"/>
        <pt x="377" y="516" on="1"/>
        <pt x="310" y="514" on="0"/>
        <pt x="252" y="464" on="1"/>
        <pt x="185" y="406" on="0"/>
        <pt x="164" y="308" on="1"/>
        <pt x="158" y="279" on="0"/>
        <pt x="158" y="255" on="1"/>
        <pt x="158" y="186" on="0"/>
        <pt x="239" y="108" on="0"/>
        <pt x="303" y="112" on="1"/>
        <pt x="363" y="117" on="0"/>
        <pt x="388" y="137" on="1"/>
        <pt x="400" y="146" on="0"/>
        <pt x="413" y="174" on="1"/>
        <pt x="497" y="175" on="1"/>
        <pt x="486" y="140" on="0"/>
        <pt x="460" y="56" on="0"/>
        <pt x="446" y="6" on="1"/>
        <pt x="419" y="10" on="0"/>
        <pt x="359" y="-5" on="1"/>
        <pt x="308" y="-18" on="0"/>
      </contour>
    </TTGlyph>
    <TTGlyph name="Ccircumflex" xMin="20" yMin="-18" xMax="570" yMax="848">
      <contour>
        <pt x="570" y="616" on="1"/>
        <pt x="567" y="602" on="0"/>
        <pt x="557" y="522" on="0"/>
        <pt x="550" y="454" on="1"/>
        <pt x="468" y="454" on="1"/>
        <pt x="468" y="475" on="1"/>
        <pt x="466" y="486" on="0"/>
        <pt x="463" y="490" on="1"/>
        <pt x="440" y="518" on="0"/>
        <pt x="377" y="516" on="1"/>
        <pt x="310" y="514" on="0"/>
        <pt x="252" y="464" on="1"/>
        <pt x="185" y="406" on="0"/>
        <pt x="164" y="308" on="1"/>
        <pt x="158" y="279" on="0"/>
        <pt x="158" y="255" on="1"/>
        <pt x="158" y="186" on="0"/>
        <pt x="239" y="108" on="0"/>
        <pt x="303" y="112" on="1"/>
        <pt x="363" y="117" on="0"/>
        <pt x="388" y="137" on="1"/>
        <pt x="400" y="146" on="0"/>
        <pt x="413" y="174" on="1"/>
        <pt x="497" y="175" on="1"/>
        <pt x="486" y="140" on="0"/>
        <pt x="460" y="56" on="0"/>
        <pt x="446" y="6" on="1"/>
        <pt x="419" y="10" on="0"/>
        <pt x="359" y="-5" on="1"/>
        <pt x="310" y="-18" on="0"/>
        <pt x="255" y="-18" on="1"/>
        <pt x="233" y="-18" on="0"/>
        <pt x="214" y="-15" on="1"/>
        <pt x="121" y="-1" on="0"/>
        <pt x="69" y="74" on="1"/>
        <pt x="20" y="144" on="0"/>
        <pt x="20" y="246" on="1"/>
        <pt x="20" y="265" on="0"/>
        <pt x="24" y="303" on="0"/>
        <pt x="28" y="323" on="1"/>
        <pt x="57" y="469" on="0"/>
        <pt x="156" y="555" on="1"/>
        <pt x="256" y="642" on="0"/>
        <pt x="401" y="642" on="1"/>
        <pt x="425" y="642" on="0"/>
        <pt x="488" y="626" on="1"/>
        <pt x="546" y="611" on="0"/>
      </contour>
      <contour>
        <pt x="555" y="724" on="1"/>
        <pt x="498" y="673" on="1"/>
        <pt x="479" y="688" on="0"/>
        <pt x="429" y="730" on="0"/>
        <pt x="397" y="758" on="1"/>
        <pt x="369" y="742" on="0"/>
        <pt x="289" y="695" on="0"/>
        <pt x="235" y="663" on="1"/>
        <pt x="199" y="724" on="1"/>
        <pt x="403" y="848" on="1"/>
        <pt x="441" y="817" on="0"/>
        <pt x="517" y="755" on="0"/>
      </contour>
    </TTGlyph>
    <TTGlyph name="Cdotaccent" xMin="11" yMin="-18" xMax="561" yMax="768">
      <contour>
        <pt x="561" y="616" on="1"/>
        <pt x="558" y="602" on="0"/>
        <pt x="548" y="522" on="0"/>
        <pt x="541" y="454" on="1"/>
        <pt x="459" y="454" on="1"/>
        <pt x="459" y="475" on="1"/>
        <pt x="457" y="486" on="0"/>
        <pt x="454" y="490" on="1"/>
        <pt x="431" y="518" on="0"/>
        <pt x="368" y="516" on="1"/>
        <pt x="301" y="514" on="0"/>
        <pt x="243" y="464" on="1"/>
        <pt x="176" y="406" on="0"/>
        <pt x="155" y="308" on="1"/>
        <pt x="149" y="279" on="0"/>
        <pt x="149" y="255" on="1"/>
        <pt x="149" y="186" on="0"/>
        <pt x="230" y="108" on="0"/>
        <pt x="294" y="112" on="1"/>
        <pt x="354" y="117" on="0"/>
        <pt x="379" y="137" on="1"/>
        <pt x="391" y="146" on="0"/>
        <pt x="404" y="174" on="1"/>
        <pt x="488" y="175" on="1"/>
        <pt x="477" y="140" on="0"/>
        <pt x="451" y="56" on="0"/>
        <pt x="437" y="6" on="1"/>
        <pt x="410" y="10" on="0"/>
        <pt x="350" y="-5" on="1"/>
        <pt x="301" y="-18" on="0"/>
        <pt x="246" y="-18" on="1"/>
        <pt x="224" y="-18" on="0"/>
        <pt x="205" y="-15" on="1"/>
        <pt x="112" y="-1" on="0"/>
        <pt x="60" y="74" on="1"/>
        <pt x="11" y="144" on="0"/>
        <pt x="11" y="246" on="1"/>
        <pt x="11" y="265" on="0"/>
        <pt x="15" y="303" on="0"/>
        <pt x="19" y="323" on="1"/>
        <pt x="48" y="469" on="0"/>
        <pt x="147" y="555" on="1"/>
        <pt x="247" y="642" on="0"/>
        <pt x="392" y="642" on="1"/>
        <pt x="416" y="642" on="0"/>
        <pt x="479" y="626" on="1"/>
        <pt x="537" y="611" on="0"/>
      </contour>
      <contour>
        <pt x="446" y="723" on="1"/>
        <pt x="436" y="674" on="0"/>
        <pt x="390" y="674" on="1"/>
        <pt x="352" y="674" on="0"/>
        <pt x="352" y="709" on="1"/>
        <pt x="352" y="733" on="0"/>
        <pt x="386" y="768" on="0"/>
        <pt x="410" y="768" on="1"/>
        <pt x="430" y="768" on="0"/>
        <pt x="450" y="741" on="0"/>
      </contour>
    </TTGlyph>
    <TTGlyph name="Chi" xMin="8" yMin="0" xMax="773" yMax="626">
      <contour>
        <pt x="773" y="626" on="1"/>
        <pt x="744" y="599" on="0"/>
        <pt x="602" y="446" on="0"/>
        <pt x="488" y="318" on="1"/>
        <pt x="656" y="0" on="1"/>
        <pt x="489" y="0" on="1"/>
        <pt x="486" y="25" on="0"/>
        <pt x="462" y="94" on="1"/>
        <pt x="397" y="237" on="1"/>
        <pt x="259" y="90" on="1"/>
        <pt x="239" y="68" on="0"/>
        <pt x="205" y="23" on="0"/>
        <pt x="191" y="0" on="1"/>
        <pt x="8" y="0" on="1"/>
        <pt x="70" y="60" on="0"/>
        <pt x="237" y="223" on="0"/>
        <pt x="344" y="326" on="1"/>
        <pt x="324" y="366" on="0"/>
        <pt x="288" y="435" on="0"/>
        <pt x="272" y="465" on="1"/>
        <pt x="234" y="537" on="0"/>
        <pt x="186" y="616" on="0"/>
        <pt x="177" y="626" on="1"/>
        <pt x="353" y="626" on="1"/>
        <pt x="355" y="615" on="0"/>
        <pt x="371" y="567" on="0"/>
        <pt x="385" y="529" on="1"/>
        <pt x="435" y="412" on="1"/>
        <pt x="527" y="526" on="1"/>
        <pt x="561" y="569" on="0"/>
        <pt x="593" y="626" on="1"/>
      </contour>
    </TTGlyph>
    <TTGlyph name="D" xMin="7" yMin="0" xMax="657" yMax="625">
      <contour>
        <pt x="649" y="302" on="1"/>
        <pt x="623" y="164" on="0"/>
        <pt x="520" y="79" on="1"/>
        <pt x="425" y="0" on="0"/>
        <pt x="255" y="0" on="1"/>
        <pt x="7" y="0" on="1"/>
        <pt x="13" y="14" on="0"/>
        <pt x="25" y="51" on="0"/>
        <pt x="32" y="75" on="1"/>
        <pt x="39" y="99" on="0"/>
        <pt x="65" y="217" on="0"/>
        <pt x="85" y="312" on="1"/>
        <pt x="93" y="348" on="0"/>
        <pt x="116" y="456" on="0"/>
        <pt x="130" y="529" on="1"/>
        <pt x="143" y="596" on="0"/>
        <pt x="142" y="625" on="1"/>
        <pt x="397" y="625" on="1"/>
        <pt x="470" y="625" on="0"/>
        <pt x="591" y="572" on="0"/>
        <pt x="621" y="526" on="1"/>
        <pt x="657" y="470" on="0"/>
        <pt x="657" y="389" on="1"/>
        <pt x="657" y="369" on="0"/>
        <pt x="653" y="325" on="0"/>
      </contour>
      <contour>
        <pt x="511" y="303" on="1"/>
        <pt x="520" y="343" on="0"/>
        <pt x="520" y="373" on="1"/>
        <pt x="520" y="425" on="0"/>
        <pt x="488" y="469" on="1"/>
        <pt x="453" y="517" on="0"/>
        <pt x="368" y="517" on="1"/>
        <pt x="261" y="517" on="1"/>
        <pt x="256" y="498" on="0"/>
        <pt x="245" y="449" on="0"/>
        <pt x="238" y="419" on="1"/>
        <pt x="231" y="389" on="0"/>
        <pt x="220" y="340" on="0"/>
        <pt x="216" y="321" on="1"/>
        <pt x="211" y="301" on="0"/>
        <pt x="190" y="192" on="0"/>
        <pt x="173" y="104" on="1"/>
        <pt x="276" y="104" on="1"/>
        <pt x="366" y="104" on="0"/>
        <pt x="425" y="156" on="1"/>
        <pt x="491" y="213" on="0"/>
      </contour>
    </TTGlyph>
    <TTGlyph name="Dcaron" xMin="7" yMin="0" xMax="657" yMax="847">
      <contour>
        <pt x="649" y="302" on="1"/>
        <pt x="623" y="164" on="0"/>
        <pt x="520" y="79" on="1"/>
        <pt x="425" y="0" on="0"/>
        <pt x="255" y="0" on="1"/>
        <pt x="7" y="0" on="1"/>
        <pt x="13" y="14" on="0"/>
        <pt x="25" y="51" on="0"/>
        <pt x="32" y="75" on="1"/>
        <pt x="39" y="99" on="0"/>
        <pt x="65" y="217" on="0"/>
        <pt x="85" y="312" on="1"/>
        <pt x="93" y="348" on="0"/>
        <pt x="116" y="456" on="0"/>
        <pt x="130" y="529" on="1"/>
        <pt x="143" y="596" on="0"/>
        <pt x="142" y="625" on="1"/>
        <pt x="397" y="625" on="1"/>
        <pt x="470" y="625" on="0"/>
        <pt x="591" y="572" on="0"/>
        <pt x="621" y="526" on="1"/>
        <pt x="657" y="470" on="0"/>
        <pt x="657" y="389" on="1"/>
        <pt x="657" y="369" on="0"/>
        <pt x="653" y="325" on="0"/>
      </contour>
      <contour>
        <pt x="511" y="303" on="1"/>
        <pt x="520" y="343" on="0"/>
        <pt x="520" y="373" on="1"/>
        <pt x="520" y="425" on="0"/>
        <pt x="488" y="469" on="1"/>
        <pt x="453" y="517" on="0"/>
        <pt x="368" y="517" on="1"/>
        <pt x="261" y="517" on="1"/>
        <pt x="256" y="498" on="0"/>
        <pt x="245" y="449" on="0"/>
        <pt x="238" y="419" on="1"/>
        <pt x="231" y="389" on="0"/>
        <pt x="220" y="340" on="0"/>
        <pt x="216" y="321" on="1"/>
        <pt x="211" y="301" on="0"/>
        <pt x="190" y="192" on="0"/>
        <pt x="173" y="104" on="1"/>
        <pt x="276" y="104" on="1"/>
        <pt x="366" y="104" on="0"/>
        <pt x="425" y="156" on="1"/>
        <pt x="491" y="213" on="0"/>
      </contour>
      <contour>
        <pt x="577" y="787" on="1"/>
        <pt x="532" y="756" on="0"/>
        <pt x="443" y="695" on="0"/>
        <pt x="396" y="666" on="1"/>
        <pt x="350" y="666" on="1"/>
        <pt x="221" y="787" on="1"/>
        <pt x="277" y="845" on="1"/>
        <pt x="297" y="827" on="0"/>
        <pt x="351" y="779" on="0"/>
        <pt x="386" y="749" on="1"/>
        <pt x="414" y="767" on="0"/>
        <pt x="488" y="816" on="0"/>
        <pt x="536" y="847" on="1"/>
      </contour>
    </TTGlyph>
    <TTGlyph name="Delta" xMin="21" yMin="0" xMax="614" yMax="633">
      <contour>
        <pt x="614" y="0" on="1"/>
        <pt x="21" y="0" on="1"/>
        <pt x="53" y="49" on="0"/>
        <pt x="240" y="364" on="0"/>
        <pt x="395" y="633" on="1"/>
        <pt x="508" y="633" on="1"/>
        <pt x="521" y="548" on="0"/>
        <pt x="544" y="401" on="0"/>
        <pt x="554" y="338" on="1"/>
        <pt x="604" y="35" on="0"/>
      </contour>
      <contour>
        <pt x="458" y="104" on="1"/>
        <pt x="448" y="192" on="0"/>
        <pt x="429" y="364" on="0"/>
        <pt x="419" y="451" on="1"/>
        <pt x="368" y="363" on="0"/>
        <pt x="270" y="191" on="0"/>
        <pt x="220" y="104" on="1"/>
      </contour>
    </TTGlyph>
    <TTGlyph name="Dmacron" xMin="-16" yMin="0" xMax="657" yMax="625">
      <contour>
        <pt x="649" y="302" on="1"/>
        <pt x="621" y="144" on="0"/>
        <pt x="429" y="0" on="0"/>
        <pt x="255" y="0" on="1"/>
        <pt x="7" y="0" on="1"/>
        <pt x="13" y="14" on="0"/>
        <pt x="25" y="51" on="0"/>
        <pt x="32" y="75" on="1"/>
        <pt x="40" y="104" on="0"/>
        <pt x="64" y="211" on="0"/>
        <pt x="81" y="291" on="1"/>
        <pt x="-16" y="291" on="1"/>
        <pt x="-3" y="366" on="1"/>
        <pt x="97" y="366" on="1"/>
        <pt x="108" y="418" on="0"/>
        <pt x="125" y="499" on="0"/>
        <pt x="130" y="529" on="1"/>
        <pt x="143" y="596" on="0"/>
        <pt x="142" y="625" on="1"/>
        <pt x="397" y="625" on="1"/>
        <pt x="525" y="625" on="0"/>
        <pt x="593" y="559" on="1"/>
        <pt x="657" y="496" on="0"/>
        <pt x="657" y="383" on="1"/>
        <pt x="657" y="348" on="0"/>
      </contour>
      <contour>
        <pt x="511" y="303" on="1"/>
        <pt x="519" y="340" on="0"/>
        <pt x="519" y="369" on="1"/>
        <pt x="519" y="517" on="0"/>
        <pt x="368" y="517" on="1"/>
        <pt x="261" y="517" on="1"/>
        <pt x="255" y="492" on="0"/>
        <pt x="237" y="417" on="0"/>
        <pt x="226" y="366" on="1"/>
        <pt x="383" y="366" on="1"/>
        <pt x="370" y="291" on="1"/>
        <pt x="210" y="291" on="1"/>
        <pt x="208" y="280" on="0"/>
        <pt x="189" y="188" on="0"/>
        <pt x="173" y="104" on="1"/>
        <pt x="276" y="104" on="1"/>
        <pt x="364" y="104" on="0"/>
        <pt x="428" y="159" on="1"/>
        <pt x="491" y="213" on="0"/>
      </contour>
    </TTGlyph>
    <TTGlyph name="E" xMin="2" yMin="-1" xMax="603" yMax="627">
      <contour>
        <pt x="603" y="626" on="1"/>
        <pt x="586" y="573" on="0"/>
        <pt x="574" y="489" on="1"/>
        <pt x="491" y="489" on="1"/>
        <pt x="492" y="507" on="0"/>
        <pt x="488" y="514" on="1"/>
        <pt x="484" y="521" on="0"/>
        <pt x="429" y="521" on="1"/>
        <pt x="254" y="521" on="1"/>
        <pt x="223" y="378" on="1"/>
        <pt x="440" y="378" on="0"/>
        <pt x="476" y="392" on="1"/>
        <pt x="449" y="266" on="1"/>
        <pt x="405" y="281" on="0"/>
        <pt x="201" y="278" on="1"/>
        <pt x="163" y="107" on="1"/>
        <pt x="364" y="107" on="1"/>
        <pt x="415" y="107" on="0"/>
        <pt x="426" y="119" on="1"/>
        <pt x="435" y="130" on="0"/>
        <pt x="442" y="150" on="1"/>
        <pt x="524" y="150" on="1"/>
        <pt x="517" y="124" on="0"/>
        <pt x="502" y="50" on="0"/>
        <pt x="492" y="0" on="1"/>
        <pt x="419" y="3" on="0"/>
        <pt x="307" y="6" on="0"/>
        <pt x="267" y="5" on="1"/>
        <pt x="174" y="5" on="0"/>
        <pt x="2" y="-1" on="1"/>
        <pt x="23" y="43" on="0"/>
        <pt x="83" y="324" on="1"/>
        <pt x="93" y="370" on="0"/>
        <pt x="112" y="460" on="0"/>
        <pt x="121" y="506" on="1"/>
        <pt x="131" y="552" on="0"/>
        <pt x="139" y="613" on="0"/>
        <pt x="138" y="627" on="1"/>
        <pt x="186" y="624" on="0"/>
        <pt x="375" y="621" on="1"/>
        <pt x="415" y="620" on="0"/>
        <pt x="528" y="623" on="0"/>
      </contour>
    </TTGlyph>
    <TTGlyph name="Eacute" xMin="2" yMin="-1" xMax="603" yMax="866">
      <contour>
        <pt x="603" y="626" on="1"/>
        <pt x="586" y="573" on="0"/>
        <pt x="574" y="489" on="1"/>
        <pt x="491" y="489" on="1"/>
        <pt x="492" y="507" on="0"/>
        <pt x="488" y="514" on="1"/>
        <pt x="484" y="521" on="0"/>
        <pt x="429" y="521" on="1"/>
        <pt x="254" y="521" on="1"/>
        <pt x="223" y="378" on="1"/>
        <pt x="440" y="378" on="0"/>
        <pt x="476" y="392" on="1"/>
        <pt x="449" y="266" on="1"/>
        <pt x="405" y="281" on="0"/>
        <pt x="201" y="278" on="1"/>
        <pt x="163" y="107" on="1"/>
        <pt x="364" y="107" on="1"/>
        <pt x="415" y="107" on="0"/>
        <pt x="426" y="119" on="1"/>
        <pt x="435" y="130" on="0"/>
        <pt x="442" y="150" on="1"/>
        <pt x="524" y="150" on="1"/>
        <pt x="517" y="124" on="0"/>
        <pt x="502" y="50" on="0"/>
        <pt x="492" y="0" on="1"/>
        <pt x="419" y="3" on="0"/>
        <pt x="307" y="6" on="0"/>
        <pt x="267" y="5" on="1"/>
        <pt x="174" y="5" on="0"/>
        <pt x="2" y="-1" on="1"/>
        <pt x="23" y="43" on="0"/>
        <pt x="83" y="324" on="1"/>
        <pt x="93" y="370" on="0"/>
        <pt x="112" y="460" on="0"/>
        <pt x="121" y="506" on="1"/>
        <pt x="131" y="552" on="0"/>
        <pt x="139" y="613" on="0"/>
        <pt x="138" y="627" on="1"/>
        <pt x="186" y="624" on="0"/>
        <pt x="375" y="621" on="1"/>
        <pt x="415" y="620" on="0"/>
        <pt x="528" y="623" on="0"/>
      </contour>
      <contour>
        <pt x="510" y="836" on="1"/>
        <pt x="412" y="669" on="1"/>
        <pt x="343" y="689" on="1"/>
        <pt x="430" y="866" on="1"/>
      </contour>
      <contour>
        <pt x="510" y="836" on="1"/>
        <pt x="412" y="669" on="1"/>
        <pt x="343" y="689" on="1"/>
        <pt x="430" y="866" on="1"/>
      </contour>
    </TTGlyph>
    <TTGlyph name="Ebreve" xMin="2" yMin="-1" xMax="603" yMax="811">
      <contour>
        <pt x="603" y="626" on="1"/>
        <pt x="586" y="573" on="0"/>
        <pt x="574" y="489" on="1"/>
        <pt x="491" y="489" on="1"/>
        <pt x="492" y="507" on="0"/>
        <pt x="488" y="514" on="1"/>
        <pt x="484" y="521" on="0"/>
        <pt x="429" y="521" on="1"/>
        <pt x="254" y="521" on="1"/>
        <pt x="223" y="378" on="1"/>
        <pt x="440" y="378" on="0"/>
        <pt x="476" y="392" on="1"/>
        <pt x="449" y="266" on="1"/>
        <pt x="405" y="281" on="0"/>
        <pt x="201" y="278" on="1"/>
        <pt x="163" y="107" on="1"/>
        <pt x="364" y="107" on="1"/>
        <pt x="415" y="107" on="0"/>
        <pt x="426" y="119" on="1"/>
        <pt x="435" y="130" on="0"/>
        <pt x="442" y="150" on="1"/>
        <pt x="524" y="150" on="1"/>
        <pt x="517" y="124" on="0"/>
        <pt x="502" y="50" on="0"/>
        <pt x="492" y="0" on="1"/>
        <pt x="419" y="3" on="0"/>
        <pt x="307" y="6" on="0"/>
        <pt x="267" y="5" on="1"/>
        <pt x="174" y="5" on="0"/>
        <pt x="2" y="-1" on="1"/>
        <pt x="23" y="43" on="0"/>
        <pt x="83" y="324" on="1"/>
        <pt x="93" y="370" on="0"/>
        <pt x="112" y="460" on="0"/>
        <pt x="121" y="506" on="1"/>
        <pt x="131" y="552" on="0"/>
        <pt x="139" y="613" on="0"/>
        <pt x="138" y="627" on="1"/>
        <pt x="186" y="624" on="0"/>
        <pt x="375" y="621" on="1"/>
        <pt x="415" y="620" on="0"/>
        <pt x="528" y="623" on="0"/>
      </contour>
      <contour>
        <pt x="552" y="772" on="1"/>
        <pt x="490" y="704" on="0"/>
        <pt x="480" y="697" on="1"/>
        <pt x="440" y="668" on="0"/>
        <pt x="374" y="669" on="1"/>
        <pt x="321" y="671" on="0"/>
        <pt x="289" y="698" on="1"/>
        <pt x="276" y="709" on="0"/>
        <pt x="250" y="746" on="0"/>
        <pt x="236" y="772" on="1"/>
        <pt x="281" y="805" on="1"/>
        <pt x="289" y="792" on="0"/>
        <pt x="307" y="767" on="0"/>
        <pt x="315" y="754" on="1"/>
        <pt x="340" y="727" on="0"/>
        <pt x="386" y="725" on="1"/>
        <pt x="421" y="724" on="0"/>
        <pt x="457" y="753" on="1"/>
        <pt x="468" y="762" on="0"/>
        <pt x="514" y="811" on="1"/>
      </contour>
    </TTGlyph>
    <TTGlyph name="Ecaron" xMin="2" yMin="-1" xMax="603" yMax="848">
      <contour>
        <pt x="603" y="626" on="1"/>
        <pt x="586" y="573" on="0"/>
        <pt x="574" y="489" on="1"/>
        <pt x="491" y="489" on="1"/>
        <pt x="492" y="507" on="0"/>
        <pt x="488" y="514" on="1"/>
        <pt x="484" y="521" on="0"/>
        <pt x="429" y="521" on="1"/>
        <pt x="254" y="521" on="1"/>
        <pt x="223" y="378" on="1"/>
        <pt x="440" y="378" on="0"/>
        <pt x="476" y="392" on="1"/>
        <pt x="449" y="266" on="1"/>
        <pt x="405" y="281" on="0"/>
        <pt x="201" y="278" on="1"/>
        <pt x="163" y="107" on="1"/>
        <pt x="364" y="107" on="1"/>
        <pt x="415" y="107" on="0"/>
        <pt x="426" y="119" on="1"/>
        <pt x="435" y="130" on="0"/>
        <pt x="442" y="150" on="1"/>
        <pt x="524" y="150" on="1"/>
        <pt x="517" y="124" on="0"/>
        <pt x="502" y="50" on="0"/>
        <pt x="492" y="0" on="1"/>
        <pt x="419" y="3" on="0"/>
        <pt x="307" y="6" on="0"/>
        <pt x="267" y="5" on="1"/>
        <pt x="174" y="5" on="0"/>
        <pt x="2" y="-1" on="1"/>
        <pt x="23" y="43" on="0"/>
        <pt x="83" y="324" on="1"/>
        <pt x="93" y="370" on="0"/>
        <pt x="112" y="460" on="0"/>
        <pt x="121" y="506" on="1"/>
        <pt x="131" y="552" on="0"/>
        <pt x="139" y="613" on="0"/>
        <pt x="138" y="627" on="1"/>
        <pt x="186" y="624" on="0"/>
        <pt x="375" y="621" on="1"/>
        <pt x="415" y="620" on="0"/>
        <pt x="528" y="623" on="0"/>
      </contour>
      <contour>
        <pt x="574" y="788" on="1"/>
        <pt x="529" y="757" on="0"/>
        <pt x="440" y="696" on="0"/>
        <pt x="393" y="667" on="1"/>
        <pt x="347" y="667" on="1"/>
        <pt x="218" y="788" on="1"/>
        <pt x="274" y="846" on="1"/>
        <pt x="294" y="828" on="0"/>
        <pt x="348" y="780" on="0"/>
        <pt x="383" y="750" on="1"/>
        <pt x="411" y="768" on="0"/>
        <pt x="485" y="817" on="0"/>
        <pt x="533" y="848" on="1"/>
      </contour>
    </TTGlyph>
    <TTGlyph name="Ecircumflex" xMin="2" yMin="-1" xMax="603" yMax="850">
      <contour>
        <pt x="603" y="626" on="1"/>
        <pt x="586" y="573" on="0"/>
        <pt x="574" y="489" on="1"/>
        <pt x="491" y="489" on="1"/>
        <pt x="492" y="507" on="0"/>
        <pt x="488" y="514" on="1"/>
        <pt x="484" y="521" on="0"/>
        <pt x="429" y="521" on="1"/>
        <pt x="254" y="521" on="1"/>
        <pt x="223" y="378" on="1"/>
        <pt x="440" y="378" on="0"/>
        <pt x="476" y="392" on="1"/>
        <pt x="449" y="266" on="1"/>
        <pt x="405" y="281" on="0"/>
        <pt x="201" y="278" on="1"/>
        <pt x="163" y="107" on="1"/>
        <pt x="364" y="107" on="1"/>
        <pt x="415" y="107" on="0"/>
        <pt x="426" y="119" on="1"/>
        <pt x="435" y="130" on="0"/>
        <pt x="442" y="150" on="1"/>
        <pt x="524" y="150" on="1"/>
        <pt x="517" y="124" on="0"/>
        <pt x="502" y="50" on="0"/>
        <pt x="492" y="0" on="1"/>
        <pt x="419" y="3" on="0"/>
        <pt x="307" y="6" on="0"/>
        <pt x="267" y="5" on="1"/>
        <pt x="174" y="5" on="0"/>
        <pt x="2" y="-1" on="1"/>
        <pt x="23" y="43" on="0"/>
        <pt x="83" y="324" on="1"/>
        <pt x="93" y="370" on="0"/>
        <pt x="112" y="460" on="0"/>
        <pt x="121" y="506" on="1"/>
        <pt x="131" y="552" on="0"/>
        <pt x="139" y="613" on="0"/>
        <pt x="138" y="627" on="1"/>
        <pt x="186" y="624" on="0"/>
        <pt x="375" y="621" on="1"/>
        <pt x="415" y="620" on="0"/>
        <pt x="528" y="623" on="0"/>
      </contour>
      <contour>
        <pt x="572" y="726" on="1"/>
        <pt x="515" y="675" on="1"/>
        <pt x="496" y="690" on="0"/>
        <pt x="446" y="732" on="0"/>
        <pt x="414" y="760" on="1"/>
        <pt x="386" y="744" on="0"/>
        <pt x="306" y="697" on="0"/>
        <pt x="252" y="665" on="1"/>
        <pt x="216" y="726" on="1"/>
        <pt x="420" y="850" on="1"/>
        <pt x="458" y="819" on="0"/>
        <pt x="534" y="757" on="0"/>
      </contour>
    </TTGlyph>
    <TTGlyph name="Edieresis" xMin="2" yMin="-1" xMax="603" yMax="778">
      <contour>
        <pt x="603" y="626" on="1"/>
        <pt x="586" y="573" on="0"/>
        <pt x="574" y="489" on="1"/>
        <pt x="491" y="489" on="1"/>
        <pt x="492" y="507" on="0"/>
        <pt x="488" y="514" on="1"/>
        <pt x="484" y="521" on="0"/>
        <pt x="429" y="521" on="1"/>
        <pt x="254" y="521" on="1"/>
        <pt x="223" y="378" on="1"/>
        <pt x="440" y="378" on="0"/>
        <pt x="476" y="392" on="1"/>
        <pt x="449" y="266" on="1"/>
        <pt x="405" y="281" on="0"/>
        <pt x="201" y="278" on="1"/>
        <pt x="163" y="107" on="1"/>
        <pt x="364" y="107" on="1"/>
        <pt x="415" y="107" on="0"/>
        <pt x="426" y="119" on="1"/>
        <pt x="435" y="130" on="0"/>
        <pt x="442" y="150" on="1"/>
        <pt x="524" y="150" on="1"/>
        <pt x="517" y="124" on="0"/>
        <pt x="502" y="50" on="0"/>
        <pt x="492" y="0" on="1"/>
        <pt x="419" y="3" on="0"/>
        <pt x="307" y="6" on="0"/>
        <pt x="267" y="5" on="1"/>
        <pt x="174" y="5" on="0"/>
        <pt x="2" y="-1" on="1"/>
        <pt x="23" y="43" on="0"/>
        <pt x="83" y="324" on="1"/>
        <pt x="93" y="370" on="0"/>
        <pt x="112" y="460" on="0"/>
        <pt x="121" y="506" on="1"/>
        <pt x="131" y="552" on="0"/>
        <pt x="139" y="613" on="0"/>
        <pt x="138" y="627" on="1"/>
        <pt x="186" y="624" on="0"/>
        <pt x="375" y="621" on="1"/>
        <pt x="415" y="620" on="0"/>
        <pt x="528" y="623" on="0"/>
      </contour>
      <contour>
        <pt x="493" y="670" on="1"/>
        <pt x="475" y="670" on="0"/>
        <pt x="452" y="695" on="0"/>
        <pt x="452" y="712" on="1"/>
        <pt x="452" y="724" on="0"/>
        <pt x="463" y="747" on="0"/>
        <pt x="481" y="765" on="0"/>
        <pt x="504" y="776" on="0"/>
        <pt x="516" y="776" on="1"/>
        <pt x="534" y="776" on="0"/>
        <pt x="558" y="751" on="0"/>
        <pt x="558" y="733" on="1"/>
        <pt x="558" y="721" on="0"/>
        <pt x="547" y="698" on="0"/>
        <pt x="528" y="681" on="0"/>
        <pt x="505" y="670" on="0"/>
      </contour>
      <contour>
        <pt x="366" y="725" on="1"/>
        <pt x="361" y="705" on="0"/>
        <pt x="323" y="673" on="0"/>
        <pt x="302" y="673" on="1"/>
        <pt x="283" y="673" on="0"/>
        <pt x="258" y="697" on="0"/>
        <pt x="258" y="715" on="1"/>
        <pt x="258" y="727" on="0"/>
        <pt x="270" y="750" on="0"/>
        <pt x="288" y="767" on="0"/>
        <pt x="312" y="778" on="0"/>
        <pt x="324" y="778" on="1"/>
        <pt x="345" y="778" on="0"/>
        <pt x="370" y="745" on="0"/>
      </contour>
    </TTGlyph>
    <TTGlyph name="Edotaccent" xMin="2" yMin="-1" xMax="603" yMax="764">
      <contour>
        <pt x="603" y="626" on="1"/>
        <pt x="586" y="573" on="0"/>
        <pt x="574" y="489" on="1"/>
        <pt x="491" y="489" on="1"/>
        <pt x="492" y="507" on="0"/>
        <pt x="488" y="514" on="1"/>
        <pt x="484" y="521" on="0"/>
        <pt x="429" y="521" on="1"/>
        <pt x="254" y="521" on="1"/>
        <pt x="223" y="378" on="1"/>
        <pt x="440" y="378" on="0"/>
        <pt x="476" y="392" on="1"/>
        <pt x="449" y="266" on="1"/>
        <pt x="405" y="281" on="0"/>
        <pt x="201" y="278" on="1"/>
        <pt x="163" y="107" on="1"/>
        <pt x="364" y="107" on="1"/>
        <pt x="415" y="107" on="0"/>
        <pt x="426" y="119" on="1"/>
        <pt x="435" y="130" on="0"/>
        <pt x="442" y="150" on="1"/>
        <pt x="524" y="150" on="1"/>
        <pt x="517" y="124" on="0"/>
        <pt x="502" y="50" on="0"/>
        <pt x="492" y="0" on="1"/>
        <pt x="419" y="3" on="0"/>
        <pt x="307" y="6" on="0"/>
        <pt x="267" y="5" on="1"/>
        <pt x="174" y="5" on="0"/>
        <pt x="2" y="-1" on="1"/>
        <pt x="23" y="43" on="0"/>
        <pt x="83" y="324" on="1"/>
        <pt x="93" y="370" on="0"/>
        <pt x="112" y="460" on="0"/>
        <pt x="121" y="506" on="1"/>
        <pt x="131" y="552" on="0"/>
        <pt x="139" y="613" on="0"/>
        <pt x="138" y="627" on="1"/>
        <pt x="186" y="624" on="0"/>
        <pt x="375" y="621" on="1"/>
        <pt x="415" y="620" on="0"/>
        <pt x="528" y="623" on="0"/>
      </contour>
      <contour>
        <pt x="444" y="719" on="1"/>
        <pt x="434" y="670" on="0"/>
        <pt x="388" y="670" on="1"/>
        <pt x="350" y="670" on="0"/>
        <pt x="350" y="705" on="1"/>
        <pt x="350" y="729" on="0"/>
        <pt x="384" y="764" on="0"/>
        <pt x="408" y="764" on="1"/>
        <pt x="428" y="764" on="0"/>
        <pt x="448" y="737" on="0"/>
      </contour>
    </TTGlyph>
    <TTGlyph name="Egrave" xMin="2" yMin="-1" xMax="603" yMax="861">
      <contour>
        <pt x="603" y="626" on="1"/>
        <pt x="586" y="573" on="0"/>
        <pt x="574" y="489" on="1"/>
        <pt x="491" y="489" on="1"/>
        <pt x="492" y="507" on="0"/>
        <pt x="488" y="514" on="1"/>
        <pt x="484" y="521" on="0"/>
        <pt x="429" y="521" on="1"/>
        <pt x="254" y="521" on="1"/>
        <pt x="223" y="378" on="1"/>
        <pt x="440" y="378" on="0"/>
        <pt x="476" y="392" on="1"/>
        <pt x="449" y="266" on="1"/>
        <pt x="405" y="281" on="0"/>
        <pt x="201" y="278" on="1"/>
        <pt x="163" y="107" on="1"/>
        <pt x="364" y="107" on="1"/>
        <pt x="415" y="107" on="0"/>
        <pt x="426" y="119" on="1"/>
        <pt x="435" y="130" on="0"/>
        <pt x="442" y="150" on="1"/>
        <pt x="524" y="150" on="1"/>
        <pt x="517" y="124" on="0"/>
        <pt x="502" y="50" on="0"/>
        <pt x="492" y="0" on="1"/>
        <pt x="419" y="3" on="0"/>
        <pt x="307" y="6" on="0"/>
        <pt x="267" y="5" on="1"/>
        <pt x="174" y="5" on="0"/>
        <pt x="2" y="-1" on="1"/>
        <pt x="23" y="43" on="0"/>
        <pt x="83" y="324" on="1"/>
        <pt x="93" y="370" on="0"/>
        <pt x="112" y="460" on="0"/>
        <pt x="121" y="506" on="1"/>
        <pt x="131" y="552" on="0"/>
        <pt x="139" y="613" on="0"/>
        <pt x="138" y="627" on="1"/>
        <pt x="186" y="624" on="0"/>
        <pt x="375" y="621" on="1"/>
        <pt x="415" y="620" on="0"/>
        <pt x="528" y="623" on="0"/>
      </contour>
      <contour>
        <pt x="435" y="687" on="1"/>
        <pt x="366" y="665" on="1"/>
        <pt x="289" y="832" on="1"/>
        <pt x="368" y="861" on="1"/>
      </contour>
    </TTGlyph>
    <TTGlyph name="Emacron" xMin="2" yMin="-1" xMax="603" yMax="715">
      <contour>
        <pt x="603" y="626" on="1"/>
        <pt x="586" y="573" on="0"/>
        <pt x="574" y="489" on="1"/>
        <pt x="491" y="489" on="1"/>
        <pt x="492" y="507" on="0"/>
        <pt x="488" y="514" on="1"/>
        <pt x="484" y="521" on="0"/>
        <pt x="429" y="521" on="1"/>
        <pt x="254" y="521" on="1"/>
        <pt x="223" y="378" on="1"/>
        <pt x="440" y="378" on="0"/>
        <pt x="476" y="392" on="1"/>
        <pt x="449" y="266" on="1"/>
        <pt x="405" y="281" on="0"/>
        <pt x="201" y="278" on="1"/>
        <pt x="163" y="107" on="1"/>
        <pt x="364" y="107" on="1"/>
        <pt x="415" y="107" on="0"/>
        <pt x="426" y="119" on="1"/>
        <pt x="435" y="130" on="0"/>
        <pt x="442" y="150" on="1"/>
        <pt x="524" y="150" on="1"/>
        <pt x="517" y="124" on="0"/>
        <pt x="502" y="50" on="0"/>
        <pt x="492" y="0" on="1"/>
        <pt x="419" y="3" on="0"/>
        <pt x="307" y="6" on="0"/>
        <pt x="267" y="5" on="1"/>
        <pt x="174" y="5" on="0"/>
        <pt x="2" y="-1" on="1"/>
        <pt x="23" y="43" on="0"/>
        <pt x="83" y="324" on="1"/>
        <pt x="93" y="370" on="0"/>
        <pt x="112" y="460" on="0"/>
        <pt x="121" y="506" on="1"/>
        <pt x="131" y="552" on="0"/>
        <pt x="139" y="613" on="0"/>
        <pt x="138" y="627" on="1"/>
        <pt x="186" y="624" on="0"/>
        <pt x="375" y="621" on="1"/>
        <pt x="415" y="620" on="0"/>
        <pt x="528" y="623" on="0"/>
      </contour>
      <contour>
        <pt x="537" y="666" on="1"/>
        <pt x="220" y="666" on="1"/>
        <pt x="231" y="715" on="1"/>
        <pt x="547" y="715" on="1"/>
      </contour>
    </TTGlyph>
    <TTGlyph name="Eng" xMin="0" yMin="-223" xMax="786" yMax="627">
      <contour>
        <pt x="786" y="626" on="1"/>
        <pt x="778" y="607" on="0"/>
        <pt x="759" y="543" on="0"/>
        <pt x="749" y="496" on="1"/>
        <pt x="739" y="449" on="0"/>
        <pt x="719" y="357" on="0"/>
        <pt x="709" y="310" on="1"/>
        <pt x="644" y="0" on="1"/>
        <pt x="594" y="-219" on="0"/>
        <pt x="402" y="-223" on="1"/>
        <pt x="360" y="-225" on="0"/>
        <pt x="324" y="-208" on="1"/>
        <pt x="279" y="-188" on="0"/>
        <pt x="261" y="-185" on="1"/>
        <pt x="330" y="-91" on="1"/>
        <pt x="373" y="-130" on="0"/>
        <pt x="414" y="-129" on="1"/>
        <pt x="448" y="-128" on="0"/>
        <pt x="480" y="-87" on="1"/>
        <pt x="513" y="-45" on="0"/>
        <pt x="514" y="0" on="1"/>
        <pt x="427" y="135" on="0"/>
        <pt x="289" y="358" on="0"/>
        <pt x="235" y="449" on="1"/>
        <pt x="205" y="310" on="1"/>
        <pt x="195" y="264" on="0"/>
        <pt x="176" y="174" on="0"/>
        <pt x="166" y="129" on="1"/>
        <pt x="148" y="38" on="0"/>
        <pt x="150" y="0" on="1"/>
        <pt x="0" y="0" on="1"/>
        <pt x="9" y="19" on="0"/>
        <pt x="28" y="82" on="0"/>
        <pt x="38" y="128" on="1"/>
        <pt x="48" y="174" on="0"/>
        <pt x="68" y="266" on="0"/>
        <pt x="78" y="312" on="1"/>
        <pt x="126" y="538" on="0"/>
        <pt x="126" y="606" on="1"/>
        <pt x="126" y="616" on="0"/>
        <pt x="124" y="626" on="1"/>
        <pt x="287" y="626" on="0"/>
        <pt x="287" y="627" on="1"/>
        <pt x="391" y="457" on="0"/>
        <pt x="523" y="237" on="0"/>
        <pt x="552" y="184" on="1"/>
        <pt x="556" y="201" on="0"/>
        <pt x="570" y="264" on="0"/>
        <pt x="580" y="311" on="1"/>
        <pt x="590" y="358" on="0"/>
        <pt x="609" y="450" on="0"/>
        <pt x="619" y="496" on="1"/>
        <pt x="639" y="591" on="0"/>
        <pt x="636" y="626" on="1"/>
      </contour>
    </TTGlyph>
    <TTGlyph name="Eogonek" xMin="2" yMin="-222" xMax="603" yMax="627">
      <contour>
        <pt x="603" y="626" on="1"/>
        <pt x="586" y="573" on="0"/>
        <pt x="574" y="489" on="1"/>
        <pt x="491" y="489" on="1"/>
        <pt x="492" y="507" on="0"/>
        <pt x="488" y="514" on="1"/>
        <pt x="484" y="521" on="0"/>
        <pt x="429" y="521" on="1"/>
        <pt x="254" y="521" on="1"/>
        <pt x="223" y="378" on="1"/>
        <pt x="440" y="378" on="0"/>
        <pt x="476" y="392" on="1"/>
        <pt x="449" y="266" on="1"/>
        <pt x="405" y="281" on="0"/>
        <pt x="201" y="278" on="1"/>
        <pt x="163" y="107" on="1"/>
        <pt x="364" y="107" on="1"/>
        <pt x="415" y="107" on="0"/>
        <pt x="426" y="119" on="1"/>
        <pt x="435" y="130" on="0"/>
        <pt x="442" y="150" on="1"/>
        <pt x="524" y="150" on="1"/>
        <pt x="517" y="124" on="0"/>
        <pt x="502" y="50" on="0"/>
        <pt x="492" y="0" on="1"/>
        <pt x="470" y="1" on="0"/>
        <pt x="388" y="3" on="0"/>
        <pt x="326" y="5" on="1"/>
        <pt x="309" y="-9" on="0"/>
        <pt x="278" y="-52" on="0"/>
        <pt x="265" y="-81" on="1"/>
        <pt x="257" y="-102" on="0"/>
        <pt x="257" y="-114" on="1"/>
        <pt x="257" y="-145" on="0"/>
        <pt x="296" y="-143" on="1"/>
        <pt x="317" y="-143" on="0"/>
        <pt x="352" y="-120" on="1"/>
        <pt x="363" y="-193" on="1"/>
        <pt x="328" y="-219" on="0"/>
        <pt x="263" y="-222" on="1"/>
        <pt x="220" y="-222" on="0"/>
        <pt x="171" y="-165" on="0"/>
        <pt x="175" y="-123" on="1"/>
        <pt x="183" y="-45" on="0"/>
        <pt x="230" y="5" on="1"/>
        <pt x="147" y="3" on="0"/>
        <pt x="2" y="-1" on="1"/>
        <pt x="23" y="43" on="0"/>
        <pt x="83" y="324" on="1"/>
        <pt x="93" y="370" on="0"/>
        <pt x="112" y="460" on="0"/>
        <pt x="121" y="506" on="1"/>
        <pt x="131" y="552" on="0"/>
        <pt x="139" y="613" on="0"/>
        <pt x="138" y="627" on="1"/>
        <pt x="186" y="624" on="0"/>
        <pt x="375" y="621" on="1"/>
        <pt x="415" y="620" on="0"/>
        <pt x="528" y="623" on="0"/>
      </contour>
    </TTGlyph>
    <TTGlyph name="Epsilon" xMin="2" yMin="-1" xMax="603" yMax="627">
      <contour>
        <pt x="603" y="626" on="1"/>
        <pt x="586" y="573" on="0"/>
        <pt x="574" y="489" on="1"/>
        <pt x="491" y="489" on="1"/>
        <pt x="492" y="507" on="0"/>
        <pt x="488" y="514" on="1"/>
        <pt x="484" y="521" on="0"/>
        <pt x="429" y="521" on="1"/>
        <pt x="254" y="521" on="1"/>
        <pt x="223" y="378" on="1"/>
        <pt x="440" y="378" on="0"/>
        <pt x="476" y="392" on="1"/>
        <pt x="449" y="266" on="1"/>
        <pt x="405" y="281" on="0"/>
        <pt x="201" y="278" on="1"/>
        <pt x="163" y="107" on="1"/>
        <pt x="364" y="107" on="1"/>
        <pt x="415" y="107" on="0"/>
        <pt x="426" y="119" on="1"/>
        <pt x="435" y="130" on="0"/>
        <pt x="442" y="150" on="1"/>
        <pt x="524" y="150" on="1"/>
        <pt x="517" y="124" on="0"/>
        <pt x="502" y="50" on="0"/>
        <pt x="492" y="0" on="1"/>
        <pt x="419" y="3" on="0"/>
        <pt x="307" y="6" on="0"/>
        <pt x="267" y="5" on="1"/>
        <pt x="174" y="5" on="0"/>
        <pt x="2" y="-1" on="1"/>
        <pt x="23" y="43" on="0"/>
        <pt x="83" y="324" on="1"/>
        <pt x="93" y="370" on="0"/>
        <pt x="112" y="460" on="0"/>
        <pt x="121" y="506" on="1"/>
        <pt x="131" y="552" on="0"/>
        <pt x="139" y="613" on="0"/>
        <pt x="138" y="627" on="1"/>
        <pt x="186" y="624" on="0"/>
        <pt x="375" y="621" on="1"/>
        <pt x="415" y="620" on="0"/>
        <pt x="528" y="623" on="0"/>
      </contour>
    </TTGlyph>
    <TTGlyph name="Epsilon.alt" xMin="21" yMin="-16" xMax="570" yMax="642">
      <contour>
        <pt x="179" y="359" on="1"/>
        <pt x="385" y="359" on="0"/>
        <pt x="428" y="376" on="1"/>
        <pt x="398" y="250" on="1"/>
        <pt x="358" y="263" on="0"/>
        <pt x="159" y="262" on="1"/>
        <pt x="159" y="190" on="0"/>
        <pt x="231" y="112" on="0"/>
        <pt x="300" y="113" on="1"/>
        <pt x="359" y="115" on="0"/>
        <pt x="388" y="139" on="1"/>
        <pt x="401" y="149" on="0"/>
        <pt x="412" y="175" on="1"/>
        <pt x="497" y="175" on="1"/>
        <pt x="486" y="140" on="0"/>
        <pt x="462" y="56" on="0"/>
        <pt x="448" y="7" on="1"/>
        <pt x="415" y="12" on="0"/>
        <pt x="356" y="-3" on="1"/>
        <pt x="308" y="-16" on="0"/>
        <pt x="254" y="-16" on="1"/>
        <pt x="232" y="-16" on="0"/>
        <pt x="213" y="-13" on="1"/>
        <pt x="121" y="0" on="0"/>
        <pt x="69" y="74" on="1"/>
        <pt x="21" y="143" on="0"/>
        <pt x="21" y="244" on="1"/>
        <pt x="21" y="278" on="0"/>
        <pt x="27" y="313" on="1"/>
        <pt x="53" y="459" on="0"/>
        <pt x="151" y="550" on="1"/>
        <pt x="251" y="642" on="0"/>
        <pt x="389" y="642" on="1"/>
        <pt x="439" y="642" on="0"/>
        <pt x="490" y="626" on="1"/>
        <pt x="529" y="613" on="0"/>
        <pt x="570" y="616" on="1"/>
        <pt x="563" y="590" on="0"/>
        <pt x="551" y="452" on="1"/>
        <pt x="465" y="452" on="1"/>
        <pt x="468" y="466" on="0"/>
        <pt x="463" y="491" on="1"/>
        <pt x="442" y="516" on="0"/>
        <pt x="370" y="515" on="1"/>
        <pt x="317" y="514" on="0"/>
        <pt x="264" y="476" on="1"/>
        <pt x="208" y="433" on="0"/>
      </contour>
    </TTGlyph>
    <TTGlyph name="Epsilontonos" xMin="-95" yMin="-1" xMax="602" yMax="674">
      <contour>
        <pt x="602" y="626" on="1"/>
        <pt x="585" y="573" on="0"/>
        <pt x="573" y="489" on="1"/>
        <pt x="490" y="489" on="1"/>
        <pt x="491" y="507" on="0"/>
        <pt x="487" y="514" on="1"/>
        <pt x="483" y="521" on="0"/>
        <pt x="428" y="521" on="1"/>
        <pt x="253" y="521" on="1"/>
        <pt x="222" y="378" on="1"/>
        <pt x="439" y="378" on="0"/>
        <pt x="475" y="392" on="1"/>
        <pt x="448" y="266" on="1"/>
        <pt x="404" y="281" on="0"/>
        <pt x="200" y="278" on="1"/>
        <pt x="162" y="107" on="1"/>
        <pt x="363" y="107" on="1"/>
        <pt x="414" y="107" on="0"/>
        <pt x="425" y="119" on="1"/>
        <pt x="434" y="130" on="0"/>
        <pt x="441" y="150" on="1"/>
        <pt x="523" y="150" on="1"/>
        <pt x="516" y="124" on="0"/>
        <pt x="501" y="50" on="0"/>
        <pt x="491" y="0" on="1"/>
        <pt x="418" y="3" on="0"/>
        <pt x="306" y="6" on="0"/>
        <pt x="266" y="5" on="1"/>
        <pt x="173" y="5" on="0"/>
        <pt x="1" y="-1" on="1"/>
        <pt x="22" y="43" on="0"/>
        <pt x="82" y="324" on="1"/>
        <pt x="92" y="370" on="0"/>
        <pt x="111" y="460" on="0"/>
        <pt x="120" y="506" on="1"/>
        <pt x="130" y="552" on="0"/>
        <pt x="138" y="613" on="0"/>
        <pt x="137" y="627" on="1"/>
        <pt x="185" y="624" on="0"/>
        <pt x="374" y="621" on="1"/>
        <pt x="414" y="620" on="0"/>
        <pt x="527" y="623" on="0"/>
      </contour>
      <contour>
        <pt x="41" y="644" on="1"/>
        <pt x="-22" y="477" on="1"/>
        <pt x="-95" y="497" on="1"/>
        <pt x="-46" y="674" on="1"/>
      </contour>
    </TTGlyph>
    <TTGlyph name="Eta" xMin="5" yMin="0" xMax="716" yMax="625">
      <contour>
        <pt x="716" y="625" on="1"/>
        <pt x="708" y="606" on="0"/>
        <pt x="689" y="542" on="0"/>
        <pt x="678" y="495" on="1"/>
        <pt x="668" y="449" on="0"/>
        <pt x="649" y="357" on="0"/>
        <pt x="639" y="310" on="1"/>
        <pt x="582" y="46" on="0"/>
        <pt x="585" y="0" on="1"/>
        <pt x="433" y="0" on="1"/>
        <pt x="444" y="25" on="0"/>
        <pt x="477" y="152" on="0"/>
        <pt x="498" y="256" on="1"/>
        <pt x="200" y="256" on="1"/>
        <pt x="155" y="44" on="0"/>
        <pt x="157" y="0" on="1"/>
        <pt x="5" y="0" on="1"/>
        <pt x="23" y="38" on="0"/>
        <pt x="44" y="127" on="1"/>
        <pt x="83" y="313" on="0"/>
        <pt x="126" y="519" on="0"/>
        <pt x="131" y="542" on="1"/>
        <pt x="140" y="588" on="0"/>
        <pt x="137" y="625" on="1"/>
        <pt x="289" y="625" on="1"/>
        <pt x="260" y="563" on="0"/>
        <pt x="223" y="370" on="1"/>
        <pt x="522" y="370" on="1"/>
        <pt x="568" y="577" on="0"/>
        <pt x="565" y="625" on="1"/>
      </contour>
    </TTGlyph>
    <TTGlyph name="Etatonos" xMin="-109" yMin="0" xMax="722" yMax="676">
      <contour>
        <pt x="722" y="625" on="1"/>
        <pt x="714" y="606" on="0"/>
        <pt x="695" y="542" on="0"/>
        <pt x="684" y="495" on="1"/>
        <pt x="674" y="449" on="0"/>
        <pt x="655" y="357" on="0"/>
        <pt x="645" y="310" on="1"/>
        <pt x="588" y="46" on="0"/>
        <pt x="591" y="0" on="1"/>
        <pt x="439" y="0" on="1"/>
        <pt x="450" y="25" on="0"/>
        <pt x="483" y="152" on="0"/>
        <pt x="504" y="256" on="1"/>
        <pt x="206" y="256" on="1"/>
        <pt x="161" y="44" on="0"/>
        <pt x="163" y="0" on="1"/>
        <pt x="11" y="0" on="1"/>
        <pt x="29" y="38" on="0"/>
        <pt x="50" y="127" on="1"/>
        <pt x="89" y="313" on="0"/>
        <pt x="132" y="519" on="0"/>
        <pt x="137" y="542" on="1"/>
        <pt x="146" y="588" on="0"/>
        <pt x="143" y="625" on="1"/>
        <pt x="295" y="625" on="1"/>
        <pt x="266" y="563" on="0"/>
        <pt x="229" y="370" on="1"/>
        <pt x="528" y="370" on="1"/>
        <pt x="574" y="577" on="0"/>
        <pt x="571" y="625" on="1"/>
      </contour>
      <contour>
        <pt x="27" y="646" on="1"/>
        <pt x="-36" y="479" on="1"/>
        <pt x="-109" y="499" on="1"/>
        <pt x="-60" y="676" on="1"/>
      </contour>
    </TTGlyph>
    <TTGlyph name="Eth" xMin="-16" yMin="0" xMax="657" yMax="625">
      <contour>
        <pt x="649" y="302" on="1"/>
        <pt x="621" y="144" on="0"/>
        <pt x="429" y="0" on="0"/>
        <pt x="255" y="0" on="1"/>
        <pt x="7" y="0" on="1"/>
        <pt x="13" y="14" on="0"/>
        <pt x="25" y="51" on="0"/>
        <pt x="32" y="75" on="1"/>
        <pt x="40" y="104" on="0"/>
        <pt x="64" y="211" on="0"/>
        <pt x="81" y="291" on="1"/>
        <pt x="-16" y="291" on="1"/>
        <pt x="-3" y="366" on="1"/>
        <pt x="97" y="366" on="1"/>
        <pt x="108" y="418" on="0"/>
        <pt x="125" y="499" on="0"/>
        <pt x="130" y="529" on="1"/>
        <pt x="143" y="596" on="0"/>
        <pt x="142" y="625" on="1"/>
        <pt x="397" y="625" on="1"/>
        <pt x="525" y="625" on="0"/>
        <pt x="593" y="559" on="1"/>
        <pt x="657" y="496" on="0"/>
        <pt x="657" y="383" on="1"/>
        <pt x="657" y="348" on="0"/>
      </contour>
      <contour>
        <pt x="511" y="303" on="1"/>
        <pt x="519" y="340" on="0"/>
        <pt x="519" y="369" on="1"/>
        <pt x="519" y="517" on="0"/>
        <pt x="368" y="517" on="1"/>
        <pt x="261" y="517" on="1"/>
        <pt x="255" y="492" on="0"/>
        <pt x="237" y="417" on="0"/>
        <pt x="226" y="366" on="1"/>
        <pt x="383" y="366" on="1"/>
        <pt x="370" y="291" on="1"/>
        <pt x="210" y="291" on="1"/>
        <pt x="208" y="280" on="0"/>
        <pt x="189" y="188" on="0"/>
        <pt x="173" y="104" on="1"/>
        <pt x="276" y="104" on="1"/>
        <pt x="364" y="104" on="0"/>
        <pt x="428" y="159" on="1"/>
        <pt x="491" y="213" on="0"/>
      </contour>
    </TTGlyph>
    <TTGlyph name="Euro" xMin="28" yMin="0" xMax="690" yMax="648">
      <contour>
        <pt x="28" y="214" on="1"/>
        <pt x="65" y="302" on="1"/>
        <pt x="126" y="302" on="1"/>
        <pt x="125" y="309" on="0"/>
        <pt x="126" y="323" on="0"/>
        <pt x="126" y="330" on="1"/>
        <pt x="34" y="330" on="1"/>
        <pt x="71" y="419" on="1"/>
        <pt x="139" y="419" on="1"/>
        <pt x="150" y="457" on="0"/>
        <pt x="189" y="525" on="0"/>
        <pt x="218" y="554" on="1"/>
        <pt x="309" y="648" on="0"/>
        <pt x="449" y="648" on="1"/>
        <pt x="585" y="648" on="0"/>
        <pt x="690" y="542" on="1"/>
        <pt x="653" y="451" on="1"/>
        <pt x="554" y="559" on="0"/>
        <pt x="449" y="559" on="1"/>
        <pt x="351" y="559" on="0"/>
        <pt x="281" y="491" on="1"/>
        <pt x="250" y="459" on="0"/>
        <pt x="232" y="419" on="1"/>
        <pt x="638" y="419" on="1"/>
        <pt x="602" y="330" on="1"/>
        <pt x="213" y="330" on="1"/>
        <pt x="213" y="319" on="0"/>
        <pt x="212" y="311" on="0"/>
        <pt x="213" y="302" on="1"/>
        <pt x="590" y="302" on="1"/>
        <pt x="552" y="214" on="1"/>
        <pt x="238" y="214" on="1"/>
        <pt x="274" y="151" on="0"/>
        <pt x="381" y="89" on="0"/>
        <pt x="449" y="89" on="1"/>
        <pt x="476" y="89" on="0"/>
        <pt x="530" y="96" on="0"/>
        <pt x="584" y="116" on="0"/>
        <pt x="639" y="153" on="0"/>
        <pt x="666" y="183" on="1"/>
        <pt x="666" y="79" on="1"/>
        <pt x="574" y="0" on="0"/>
        <pt x="449" y="0" on="1"/>
        <pt x="395" y="0" on="0"/>
        <pt x="299" y="29" on="0"/>
        <pt x="220" y="85" on="0"/>
        <pt x="161" y="164" on="0"/>
        <pt x="144" y="214" on="1"/>
      </contour>
    </TTGlyph>
    <TTGlyph name="F" xMin="6" yMin="0" xMax="605" yMax="628">
      <contour>
        <pt x="605" y="627" on="1"/>
        <pt x="599" y="612" on="0"/>
        <pt x="587" y="551" on="1"/>
        <pt x="584" y="531" on="0"/>
        <pt x="578" y="494" on="1"/>
        <pt x="494" y="494" on="1"/>
        <pt x="495" y="499" on="0"/>
        <pt x="495" y="507" on="1"/>
        <pt x="495" y="526" on="0"/>
        <pt x="455" y="526" on="1"/>
        <pt x="257" y="526" on="1"/>
        <pt x="224" y="368" on="1"/>
        <pt x="308" y="368" on="1"/>
        <pt x="441" y="368" on="0"/>
        <pt x="477" y="382" on="1"/>
        <pt x="450" y="256" on="1"/>
        <pt x="417" y="266" on="0"/>
        <pt x="287" y="266" on="1"/>
        <pt x="236" y="266" on="1"/>
        <pt x="225" y="266" on="0"/>
        <pt x="207" y="266" on="0"/>
        <pt x="199" y="265" on="1"/>
        <pt x="195" y="246" on="0"/>
        <pt x="182" y="183" on="0"/>
        <pt x="173" y="138" on="1"/>
        <pt x="155" y="49" on="0"/>
        <pt x="158" y="0" on="1"/>
        <pt x="6" y="0" on="1"/>
        <pt x="13" y="12" on="0"/>
        <pt x="25" y="57" on="1"/>
        <pt x="37" y="100" on="0"/>
        <pt x="85" y="324" on="1"/>
        <pt x="89" y="343" on="0"/>
        <pt x="99" y="397" on="0"/>
        <pt x="107" y="432" on="1"/>
        <pt x="115" y="468" on="0"/>
        <pt x="126" y="522" on="0"/>
        <pt x="130" y="541" on="1"/>
        <pt x="140" y="589" on="0"/>
        <pt x="137" y="628" on="1"/>
        <pt x="175" y="628" on="0"/>
        <pt x="255" y="625" on="1"/>
        <pt x="334" y="622" on="0"/>
        <pt x="377" y="622" on="1"/>
        <pt x="409" y="622" on="0"/>
        <pt x="465" y="622" on="0"/>
        <pt x="490" y="623" on="1"/>
        <pt x="529" y="624" on="0"/>
        <pt x="586" y="626" on="0"/>
      </contour>
    </TTGlyph>
    <TTGlyph name="G" xMin="23" yMin="-17" xMax="596" yMax="642">
      <contour>
        <pt x="596" y="620" on="1"/>
        <pt x="593" y="606" on="0"/>
        <pt x="583" y="524" on="0"/>
        <pt x="576" y="454" on="1"/>
        <pt x="493" y="454" on="1"/>
        <pt x="496" y="479" on="0"/>
        <pt x="479" y="501" on="0"/>
        <pt x="450" y="509" on="1"/>
        <pt x="418" y="518" on="0"/>
        <pt x="381" y="518" on="1"/>
        <pt x="314" y="516" on="0"/>
        <pt x="257" y="465" on="1"/>
        <pt x="190" y="407" on="0"/>
        <pt x="169" y="308" on="1"/>
        <pt x="167" y="294" on="0"/>
        <pt x="164" y="268" on="0"/>
        <pt x="164" y="255" on="1"/>
        <pt x="164" y="188" on="0"/>
        <pt x="240" y="111" on="0"/>
        <pt x="300" y="110" on="1"/>
        <pt x="412" y="109" on="0"/>
        <pt x="426" y="169" on="1"/>
        <pt x="432" y="196" on="1"/>
        <pt x="407" y="196" on="1"/>
        <pt x="402" y="195" on="0"/>
        <pt x="388" y="192" on="0"/>
        <pt x="380" y="188" on="1"/>
        <pt x="373" y="183" on="0"/>
        <pt x="369" y="164" on="1"/>
        <pt x="285" y="164" on="1"/>
        <pt x="311" y="255" on="0"/>
        <pt x="316" y="311" on="1"/>
        <pt x="407" y="310" on="0"/>
        <pt x="535" y="309" on="0"/>
        <pt x="575" y="310" on="1"/>
        <pt x="569" y="291" on="0"/>
        <pt x="530" y="133" on="0"/>
        <pt x="498" y="-8" on="1"/>
        <pt x="464" y="6" on="0"/>
        <pt x="441" y="6" on="1"/>
        <pt x="410" y="6" on="0"/>
        <pt x="364" y="-5" on="1"/>
        <pt x="317" y="-17" on="0"/>
        <pt x="261" y="-17" on="1"/>
        <pt x="236" y="-17" on="0"/>
        <pt x="217" y="-14" on="1"/>
        <pt x="124" y="0" on="0"/>
        <pt x="72" y="76" on="1"/>
        <pt x="23" y="146" on="0"/>
        <pt x="23" y="249" on="1"/>
        <pt x="23" y="268" on="0"/>
        <pt x="27" y="306" on="0"/>
        <pt x="31" y="326" on="1"/>
        <pt x="58" y="465" on="0"/>
        <pt x="160" y="554" on="1"/>
        <pt x="263" y="642" on="0"/>
        <pt x="406" y="642" on="1"/>
        <pt x="467" y="642" on="0"/>
        <pt x="514" y="630" on="1"/>
        <pt x="562" y="618" on="0"/>
        <pt x="578" y="618" on="1"/>
        <pt x="586" y="618" on="0"/>
      </contour>
    </TTGlyph>
    <TTGlyph name="Gamma" xMin="5" yMin="-1" xMax="612" yMax="626">
      <contour>
        <pt x="612" y="625" on="1"/>
        <pt x="595" y="572" on="0"/>
        <pt x="581" y="478" on="1"/>
        <pt x="497" y="478" on="1"/>
        <pt x="501" y="504" on="0"/>
        <pt x="495" y="515" on="1"/>
        <pt x="489" y="526" on="0"/>
        <pt x="437" y="526" on="1"/>
        <pt x="259" y="526" on="1"/>
        <pt x="211" y="301" on="1"/>
        <pt x="201" y="256" on="0"/>
        <pt x="183" y="167" on="0"/>
        <pt x="173" y="122" on="1"/>
        <pt x="165" y="79" on="0"/>
        <pt x="158" y="18" on="0"/>
        <pt x="159" y="-1" on="1"/>
        <pt x="5" y="-1" on="1"/>
        <pt x="22" y="35" on="0"/>
        <pt x="42" y="123" on="1"/>
        <pt x="52" y="168" on="0"/>
        <pt x="71" y="256" on="0"/>
        <pt x="81" y="301" on="1"/>
        <pt x="112" y="447" on="0"/>
        <pt x="141" y="609" on="0"/>
        <pt x="140" y="626" on="1"/>
        <pt x="153" y="625" on="0"/>
        <pt x="284" y="623" on="0"/>
        <pt x="404" y="621" on="1"/>
        <pt x="444" y="620" on="0"/>
        <pt x="548" y="623" on="0"/>
      </contour>
    </TTGlyph>
    <TTGlyph name="Gbreve" xMin="23" yMin="-17" xMax="596" yMax="811">
      <contour>
        <pt x="582" y="772" on="1"/>
        <pt x="520" y="704" on="0"/>
        <pt x="510" y="697" on="1"/>
        <pt x="470" y="668" on="0"/>
        <pt x="404" y="669" on="1"/>
        <pt x="351" y="671" on="0"/>
        <pt x="319" y="698" on="1"/>
        <pt x="306" y="709" on="0"/>
        <pt x="280" y="746" on="0"/>
        <pt x="266" y="772" on="1"/>
        <pt x="311" y="805" on="1"/>
        <pt x="319" y="792" on="0"/>
        <pt x="337" y="767" on="0"/>
        <pt x="345" y="754" on="1"/>
        <pt x="370" y="727" on="0"/>
        <pt x="416" y="725" on="1"/>
        <pt x="451" y="724" on="0"/>
        <pt x="487" y="753" on="1"/>
        <pt x="498" y="762" on="0"/>
        <pt x="544" y="811" on="1"/>
      </contour>
      <contour>
        <pt x="596" y="620" on="1"/>
        <pt x="593" y="606" on="0"/>
        <pt x="583" y="524" on="0"/>
        <pt x="576" y="454" on="1"/>
        <pt x="493" y="454" on="1"/>
        <pt x="496" y="479" on="0"/>
        <pt x="479" y="501" on="0"/>
        <pt x="450" y="509" on="1"/>
        <pt x="418" y="518" on="0"/>
        <pt x="381" y="518" on="1"/>
        <pt x="314" y="516" on="0"/>
        <pt x="257" y="465" on="1"/>
        <pt x="190" y="407" on="0"/>
        <pt x="169" y="308" on="1"/>
        <pt x="167" y="294" on="0"/>
        <pt x="164" y="268" on="0"/>
        <pt x="164" y="255" on="1"/>
        <pt x="164" y="188" on="0"/>
        <pt x="240" y="111" on="0"/>
        <pt x="300" y="110" on="1"/>
        <pt x="412" y="109" on="0"/>
        <pt x="426" y="169" on="1"/>
        <pt x="432" y="196" on="1"/>
        <pt x="407" y="196" on="1"/>
        <pt x="402" y="195" on="0"/>
        <pt x="388" y="192" on="0"/>
        <pt x="380" y="188" on="1"/>
        <pt x="373" y="183" on="0"/>
        <pt x="369" y="164" on="1"/>
        <pt x="285" y="164" on="1"/>
        <pt x="311" y="255" on="0"/>
        <pt x="316" y="311" on="1"/>
        <pt x="407" y="310" on="0"/>
        <pt x="535" y="309" on="0"/>
        <pt x="575" y="310" on="1"/>
        <pt x="569" y="291" on="0"/>
        <pt x="530" y="133" on="0"/>
        <pt x="498" y="-8" on="1"/>
        <pt x="464" y="6" on="0"/>
        <pt x="441" y="6" on="1"/>
        <pt x="410" y="6" on="0"/>
        <pt x="364" y="-5" on="1"/>
        <pt x="317" y="-17" on="0"/>
        <pt x="261" y="-17" on="1"/>
        <pt x="236" y="-17" on="0"/>
        <pt x="217" y="-14" on="1"/>
        <pt x="124" y="0" on="0"/>
        <pt x="72" y="76" on="1"/>
        <pt x="23" y="146" on="0"/>
        <pt x="23" y="249" on="1"/>
        <pt x="23" y="268" on="0"/>
        <pt x="27" y="306" on="0"/>
        <pt x="31" y="326" on="1"/>
        <pt x="58" y="465" on="0"/>
        <pt x="160" y="554" on="1"/>
        <pt x="263" y="642" on="0"/>
        <pt x="406" y="642" on="1"/>
        <pt x="467" y="642" on="0"/>
        <pt x="514" y="630" on="1"/>
        <pt x="562" y="618" on="0"/>
        <pt x="578" y="618" on="1"/>
        <pt x="586" y="618" on="0"/>
      </contour>
    </TTGlyph>
    <TTGlyph name="Gcircumflex" xMin="23" yMin="-13" xMax="596" yMax="850">
      <contour>
        <pt x="596" y="624" on="1"/>
        <pt x="593" y="610" on="0"/>
        <pt x="583" y="528" on="0"/>
        <pt x="576" y="458" on="1"/>
        <pt x="493" y="458" on="1"/>
        <pt x="496" y="483" on="0"/>
        <pt x="479" y="505" on="0"/>
        <pt x="450" y="513" on="1"/>
        <pt x="418" y="522" on="0"/>
        <pt x="381" y="522" on="1"/>
        <pt x="314" y="520" on="0"/>
        <pt x="257" y="469" on="1"/>
        <pt x="190" y="411" on="0"/>
        <pt x="169" y="312" on="1"/>
        <pt x="167" y="298" on="0"/>
        <pt x="164" y="272" on="0"/>
        <pt x="164" y="259" on="1"/>
        <pt x="164" y="192" on="0"/>
        <pt x="240" y="115" on="0"/>
        <pt x="300" y="114" on="1"/>
        <pt x="412" y="113" on="0"/>
        <pt x="426" y="173" on="1"/>
        <pt x="432" y="200" on="1"/>
        <pt x="407" y="200" on="1"/>
        <pt x="402" y="199" on="0"/>
        <pt x="388" y="196" on="0"/>
        <pt x="380" y="192" on="1"/>
        <pt x="373" y="187" on="0"/>
        <pt x="369" y="168" on="1"/>
        <pt x="285" y="168" on="1"/>
        <pt x="311" y="259" on="0"/>
        <pt x="316" y="315" on="1"/>
        <pt x="407" y="314" on="0"/>
        <pt x="535" y="313" on="0"/>
        <pt x="575" y="314" on="1"/>
        <pt x="569" y="295" on="0"/>
        <pt x="530" y="137" on="0"/>
        <pt x="498" y="-4" on="1"/>
        <pt x="464" y="10" on="0"/>
        <pt x="441" y="10" on="1"/>
        <pt x="410" y="10" on="0"/>
        <pt x="364" y="-1" on="1"/>
        <pt x="317" y="-13" on="0"/>
        <pt x="261" y="-13" on="1"/>
        <pt x="236" y="-13" on="0"/>
        <pt x="217" y="-10" on="1"/>
        <pt x="124" y="4" on="0"/>
        <pt x="72" y="80" on="1"/>
        <pt x="23" y="150" on="0"/>
        <pt x="23" y="253" on="1"/>
        <pt x="23" y="272" on="0"/>
        <pt x="27" y="310" on="0"/>
        <pt x="31" y="330" on="1"/>
        <pt x="58" y="469" on="0"/>
        <pt x="160" y="558" on="1"/>
        <pt x="263" y="646" on="0"/>
        <pt x="406" y="646" on="1"/>
        <pt x="467" y="646" on="0"/>
        <pt x="514" y="634" on="1"/>
        <pt x="562" y="622" on="0"/>
        <pt x="578" y="622" on="1"/>
        <pt x="586" y="622" on="0"/>
      </contour>
      <contour>
        <pt x="582" y="726" on="1"/>
        <pt x="525" y="675" on="1"/>
        <pt x="506" y="690" on="0"/>
        <pt x="456" y="732" on="0"/>
        <pt x="424" y="760" on="1"/>
        <pt x="396" y="744" on="0"/>
        <pt x="316" y="697" on="0"/>
        <pt x="262" y="665" on="1"/>
        <pt x="226" y="726" on="1"/>
        <pt x="430" y="850" on="1"/>
        <pt x="468" y="819" on="0"/>
        <pt x="544" y="757" on="0"/>
      </contour>
    </TTGlyph>
    <TTGlyph name="Gcommaaccent" xMin="23" yMin="-299" xMax="596" yMax="642">
      <contour>
        <pt x="596" y="620" on="1"/>
        <pt x="593" y="606" on="0"/>
        <pt x="583" y="524" on="0"/>
        <pt x="576" y="454" on="1"/>
        <pt x="493" y="454" on="1"/>
        <pt x="496" y="479" on="0"/>
        <pt x="479" y="501" on="0"/>
        <pt x="450" y="509" on="1"/>
        <pt x="418" y="518" on="0"/>
        <pt x="381" y="518" on="1"/>
        <pt x="314" y="516" on="0"/>
        <pt x="257" y="465" on="1"/>
        <pt x="190" y="407" on="0"/>
        <pt x="169" y="308" on="1"/>
        <pt x="167" y="294" on="0"/>
        <pt x="164" y="268" on="0"/>
        <pt x="164" y="255" on="1"/>
        <pt x="164" y="188" on="0"/>
        <pt x="240" y="111" on="0"/>
        <pt x="300" y="110" on="1"/>
        <pt x="412" y="109" on="0"/>
        <pt x="426" y="169" on="1"/>
        <pt x="432" y="196" on="1"/>
        <pt x="407" y="196" on="1"/>
        <pt x="402" y="195" on="0"/>
        <pt x="388" y="192" on="0"/>
        <pt x="380" y="188" on="1"/>
        <pt x="373" y="183" on="0"/>
        <pt x="369" y="164" on="1"/>
        <pt x="285" y="164" on="1"/>
        <pt x="311" y="255" on="0"/>
        <pt x="316" y="311" on="1"/>
        <pt x="407" y="310" on="0"/>
        <pt x="535" y="309" on="0"/>
        <pt x="575" y="310" on="1"/>
        <pt x="569" y="291" on="0"/>
        <pt x="530" y="133" on="0"/>
        <pt x="498" y="-8" on="1"/>
        <pt x="464" y="6" on="0"/>
        <pt x="441" y="6" on="1"/>
        <pt x="410" y="6" on="0"/>
        <pt x="364" y="-5" on="1"/>
        <pt x="317" y="-17" on="0"/>
        <pt x="261" y="-17" on="1"/>
        <pt x="236" y="-17" on="0"/>
        <pt x="217" y="-14" on="1"/>
        <pt x="124" y="0" on="0"/>
        <pt x="72" y="76" on="1"/>
        <pt x="23" y="146" on="0"/>
        <pt x="23" y="249" on="1"/>
        <pt x="23" y="268" on="0"/>
        <pt x="27" y="306" on="0"/>
        <pt x="31" y="326" on="1"/>
        <pt x="58" y="465" on="0"/>
        <pt x="160" y="554" on="1"/>
        <pt x="263" y="642" on="0"/>
        <pt x="406" y="642" on="1"/>
        <pt x="467" y="642" on="0"/>
        <pt x="514" y="630" on="1"/>
        <pt x="562" y="618" on="0"/>
        <pt x="578" y="618" on="1"/>
        <pt x="586" y="618" on="0"/>
      </contour>
      <contour>
        <pt x="336" y="-111" on="1"/>
        <pt x="323" y="-172" on="1"/>
        <pt x="299" y="-285" on="0"/>
        <pt x="180" y="-299" on="1"/>
        <pt x="186" y="-256" on="1"/>
        <pt x="229" y="-249" on="0"/>
        <pt x="244" y="-178" on="1"/>
        <pt x="216" y="-178" on="1"/>
        <pt x="230" y="-111" on="1"/>
      </contour>
    </TTGlyph>
    <TTGlyph name="Gdotaccent" xMin="23" yMin="-17" xMax="596" yMax="775">
      <contour>
        <pt x="596" y="620" on="1"/>
        <pt x="593" y="606" on="0"/>
        <pt x="583" y="524" on="0"/>
        <pt x="576" y="454" on="1"/>
        <pt x="493" y="454" on="1"/>
        <pt x="496" y="479" on="0"/>
        <pt x="479" y="501" on="0"/>
        <pt x="450" y="509" on="1"/>
        <pt x="418" y="518" on="0"/>
        <pt x="381" y="518" on="1"/>
        <pt x="314" y="516" on="0"/>
        <pt x="257" y="465" on="1"/>
        <pt x="190" y="407" on="0"/>
        <pt x="169" y="308" on="1"/>
        <pt x="167" y="294" on="0"/>
        <pt x="164" y="268" on="0"/>
        <pt x="164" y="255" on="1"/>
        <pt x="164" y="188" on="0"/>
        <pt x="240" y="111" on="0"/>
        <pt x="300" y="110" on="1"/>
        <pt x="412" y="109" on="0"/>
        <pt x="426" y="169" on="1"/>
        <pt x="432" y="196" on="1"/>
        <pt x="407" y="196" on="1"/>
        <pt x="402" y="195" on="0"/>
        <pt x="388" y="192" on="0"/>
        <pt x="380" y="188" on="1"/>
        <pt x="373" y="183" on="0"/>
        <pt x="369" y="164" on="1"/>
        <pt x="285" y="164" on="1"/>
        <pt x="311" y="255" on="0"/>
        <pt x="316" y="311" on="1"/>
        <pt x="407" y="310" on="0"/>
        <pt x="535" y="309" on="0"/>
        <pt x="575" y="310" on="1"/>
        <pt x="569" y="291" on="0"/>
        <pt x="530" y="133" on="0"/>
        <pt x="498" y="-8" on="1"/>
        <pt x="464" y="6" on="0"/>
        <pt x="441" y="6" on="1"/>
        <pt x="410" y="6" on="0"/>
        <pt x="364" y="-5" on="1"/>
        <pt x="317" y="-17" on="0"/>
        <pt x="261" y="-17" on="1"/>
        <pt x="236" y="-17" on="0"/>
        <pt x="217" y="-14" on="1"/>
        <pt x="124" y="0" on="0"/>
        <pt x="72" y="76" on="1"/>
        <pt x="23" y="146" on="0"/>
        <pt x="23" y="249" on="1"/>
        <pt x="23" y="268" on="0"/>
        <pt x="27" y="306" on="0"/>
        <pt x="31" y="326" on="1"/>
        <pt x="58" y="465" on="0"/>
        <pt x="160" y="554" on="1"/>
        <pt x="263" y="642" on="0"/>
        <pt x="406" y="642" on="1"/>
        <pt x="467" y="642" on="0"/>
        <pt x="514" y="630" on="1"/>
        <pt x="562" y="618" on="0"/>
        <pt x="578" y="618" on="1"/>
        <pt x="586" y="618" on="0"/>
      </contour>
      <contour>
        <pt x="476" y="720" on="1"/>
        <pt x="476" y="697" on="0"/>
        <pt x="444" y="665" on="0"/>
        <pt x="421" y="665" on="1"/>
        <pt x="398" y="665" on="0"/>
        <pt x="366" y="697" on="0"/>
        <pt x="366" y="720" on="1"/>
        <pt x="366" y="743" on="0"/>
        <pt x="398" y="775" on="0"/>
        <pt x="421" y="775" on="1"/>
        <pt x="444" y="775" on="0"/>
        <pt x="476" y="743" on="0"/>
      </contour>
    </TTGlyph>
    <TTGlyph name="H" xMin="5" yMin="0" xMax="716" yMax="625">
      <contour>
        <pt x="716" y="625" on="1"/>
        <pt x="708" y="606" on="0"/>
        <pt x="689" y="542" on="0"/>
        <pt x="678" y="495" on="1"/>
        <pt x="668" y="449" on="0"/>
        <pt x="649" y="357" on="0"/>
        <pt x="639" y="310" on="1"/>
        <pt x="582" y="46" on="0"/>
        <pt x="585" y="0" on="1"/>
        <pt x="433" y="0" on="1"/>
        <pt x="444" y="25" on="0"/>
        <pt x="477" y="152" on="0"/>
        <pt x="498" y="256" on="1"/>
        <pt x="200" y="256" on="1"/>
        <pt x="155" y="44" on="0"/>
        <pt x="157" y="0" on="1"/>
        <pt x="5" y="0" on="1"/>
        <pt x="23" y="38" on="0"/>
        <pt x="44" y="127" on="1"/>
        <pt x="83" y="313" on="0"/>
        <pt x="126" y="519" on="0"/>
        <pt x="131" y="542" on="1"/>
        <pt x="140" y="588" on="0"/>
        <pt x="137" y="625" on="1"/>
        <pt x="289" y="625" on="1"/>
        <pt x="260" y="563" on="0"/>
        <pt x="223" y="370" on="1"/>
        <pt x="522" y="370" on="1"/>
        <pt x="568" y="577" on="0"/>
        <pt x="565" y="625" on="1"/>
      </contour>
    </TTGlyph>
    <TTGlyph name="H18533" xMin="52" yMin="46" xMax="335" yMax="330">
      <contour>
        <pt x="194" y="330" on="1"/>
        <pt x="252" y="330" on="0"/>
        <pt x="293" y="288" on="1"/>
        <pt x="335" y="247" on="0"/>
        <pt x="335" y="188" on="1"/>
        <pt x="335" y="130" on="0"/>
        <pt x="294" y="87" on="1"/>
        <pt x="253" y="46" on="0"/>
        <pt x="194" y="46" on="1"/>
        <pt x="134" y="46" on="0"/>
        <pt x="93" y="87" on="1"/>
        <pt x="52" y="130" on="0"/>
        <pt x="52" y="188" on="1"/>
        <pt x="52" y="247" on="0"/>
        <pt x="93" y="288" on="1"/>
        <pt x="135" y="330" on="0"/>
      </contour>
    </TTGlyph>
    <TTGlyph name="H18543" xMin="65" yMin="92" xMax="251" yMax="278">
      <contour>
        <pt x="251" y="278" on="1"/>
        <pt x="251" y="92" on="1"/>
        <pt x="65" y="92" on="1"/>
        <pt x="65" y="278" on="1"/>
      </contour>
    </TTGlyph>
    <TTGlyph name="H18551" xMin="68" yMin="94" xMax="254" yMax="280">
      <contour>
        <pt x="254" y="280" on="1"/>
        <pt x="254" y="94" on="1"/>
        <pt x="68" y="94" on="1"/>
        <pt x="68" y="280" on="1"/>
      </contour>
      <contour>
        <pt x="223" y="249" on="1"/>
        <pt x="98" y="249" on="1"/>
        <pt x="98" y="124" on="1"/>
        <pt x="223" y="124" on="1"/>
      </contour>
    </TTGlyph>
    <TTGlyph name="H22073" xMin="29" yMin="-4" xMax="408" yMax="375">
      <contour>
        <pt x="29" y="375" on="1"/>
        <pt x="408" y="375" on="1"/>
        <pt x="408" y="-4" on="1"/>
        <pt x="29" y="-4" on="1"/>
      </contour>
      <contour>
        <pt x="59" y="345" on="1"/>
        <pt x="59" y="26" on="1"/>
        <pt x="378" y="26" on="1"/>
        <pt x="378" y="345" on="1"/>
      </contour>
    </TTGlyph>
    <TTGlyph name="Hbar" xMin="-35" yMin="0" xMax="706" yMax="625">
      <contour>
        <pt x="706" y="507" on="1"/>
        <pt x="693" y="432" on="1"/>
        <pt x="624" y="432" on="1"/>
        <pt x="599" y="310" on="1"/>
        <pt x="542" y="46" on="0"/>
        <pt x="545" y="0" on="1"/>
        <pt x="393" y="0" on="1"/>
        <pt x="404" y="25" on="0"/>
        <pt x="437" y="152" on="0"/>
        <pt x="458" y="256" on="1"/>
        <pt x="160" y="256" on="1"/>
        <pt x="115" y="44" on="0"/>
        <pt x="117" y="0" on="1"/>
        <pt x="-35" y="0" on="1"/>
        <pt x="-17" y="38" on="0"/>
        <pt x="4" y="127" on="1"/>
        <pt x="4" y="127" on="0"/>
        <pt x="43" y="312" on="1"/>
        <pt x="48" y="332" on="0"/>
        <pt x="61" y="392" on="0"/>
        <pt x="69" y="432" on="1"/>
        <pt x="8" y="432" on="1"/>
        <pt x="22" y="507" on="1"/>
        <pt x="84" y="507" on="1"/>
        <pt x="100" y="588" on="0"/>
        <pt x="97" y="625" on="1"/>
        <pt x="249" y="625" on="1"/>
        <pt x="232" y="586" on="0"/>
        <pt x="212" y="507" on="1"/>
        <pt x="512" y="507" on="1"/>
        <pt x="528" y="585" on="0"/>
        <pt x="525" y="625" on="1"/>
        <pt x="676" y="625" on="1"/>
        <pt x="660" y="591" on="0"/>
        <pt x="640" y="507" on="1"/>
      </contour>
      <contour>
        <pt x="496" y="432" on="1"/>
        <pt x="196" y="432" on="1"/>
        <pt x="193" y="418" on="0"/>
        <pt x="187" y="387" on="0"/>
        <pt x="183" y="370" on="1"/>
        <pt x="482" y="370" on="1"/>
      </contour>
    </TTGlyph>
    <TTGlyph name="Hcircumflex" xMin="5" yMin="0" xMax="716" yMax="852">
      <contour>
        <pt x="716" y="625" on="1"/>
        <pt x="708" y="606" on="0"/>
        <pt x="689" y="542" on="0"/>
        <pt x="678" y="495" on="1"/>
        <pt x="668" y="449" on="0"/>
        <pt x="649" y="357" on="0"/>
        <pt x="639" y="310" on="1"/>
        <pt x="582" y="46" on="0"/>
        <pt x="585" y="0" on="1"/>
        <pt x="433" y="0" on="1"/>
        <pt x="444" y="25" on="0"/>
        <pt x="477" y="152" on="0"/>
        <pt x="498" y="256" on="1"/>
        <pt x="200" y="256" on="1"/>
        <pt x="155" y="44" on="0"/>
        <pt x="157" y="0" on="1"/>
        <pt x="5" y="0" on="1"/>
        <pt x="23" y="38" on="0"/>
        <pt x="44" y="127" on="1"/>
        <pt x="83" y="313" on="0"/>
        <pt x="126" y="519" on="0"/>
        <pt x="131" y="542" on="1"/>
        <pt x="140" y="588" on="0"/>
        <pt x="137" y="625" on="1"/>
        <pt x="289" y="625" on="1"/>
        <pt x="260" y="563" on="0"/>
        <pt x="223" y="370" on="1"/>
        <pt x="522" y="370" on="1"/>
        <pt x="568" y="577" on="0"/>
        <pt x="565" y="625" on="1"/>
      </contour>
      <contour>
        <pt x="621" y="728" on="1"/>
        <pt x="564" y="677" on="1"/>
        <pt x="545" y="692" on="0"/>
        <pt x="495" y="734" on="0"/>
        <pt x="463" y="762" on="1"/>
        <pt x="435" y="746" on="0"/>
        <pt x="355" y="699" on="0"/>
        <pt x="301" y="667" on="1"/>
        <pt x="265" y="728" on="1"/>
        <pt x="469" y="852" on="1"/>
        <pt x="507" y="821" on="0"/>
        <pt x="583" y="759" on="0"/>
      </contour>
    </TTGlyph>
    <TTGlyph name="I" xMin="5" yMin="0" xMax="289" yMax="623">
      <contour>
        <pt x="289" y="623" on="1"/>
        <pt x="281" y="604" on="0"/>
        <pt x="262" y="541" on="0"/>
        <pt x="252" y="495" on="1"/>
        <pt x="242" y="449" on="0"/>
        <pt x="222" y="358" on="0"/>
        <pt x="212" y="312" on="1"/>
        <pt x="202" y="266" on="0"/>
        <pt x="184" y="175" on="0"/>
        <pt x="174" y="129" on="1"/>
        <pt x="154" y="37" on="0"/>
        <pt x="156" y="0" on="1"/>
        <pt x="5" y="0" on="1"/>
        <pt x="22" y="36" on="0"/>
        <pt x="45" y="128" on="1"/>
        <pt x="45" y="129" on="0"/>
        <pt x="84" y="314" on="1"/>
        <pt x="94" y="360" on="0"/>
        <pt x="113" y="450" on="0"/>
        <pt x="123" y="496" on="1"/>
        <pt x="139" y="586" on="0"/>
        <pt x="138" y="623" on="1"/>
      </contour>
    </TTGlyph>
    <TTGlyph name="IJ" xMin="5" yMin="-19" xMax="657" yMax="625">
      <contour>
        <pt x="289" y="623" on="1"/>
        <pt x="281" y="604" on="0"/>
        <pt x="262" y="541" on="0"/>
        <pt x="252" y="495" on="1"/>
        <pt x="242" y="449" on="0"/>
        <pt x="222" y="358" on="0"/>
        <pt x="212" y="312" on="1"/>
        <pt x="202" y="266" on="0"/>
        <pt x="184" y="175" on="0"/>
        <pt x="174" y="129" on="1"/>
        <pt x="154" y="37" on="0"/>
        <pt x="156" y="0" on="1"/>
        <pt x="5" y="0" on="1"/>
        <pt x="22" y="36" on="0"/>
        <pt x="45" y="128" on="1"/>
        <pt x="45" y="129" on="0"/>
        <pt x="84" y="314" on="1"/>
        <pt x="94" y="360" on="0"/>
        <pt x="113" y="450" on="0"/>
        <pt x="123" y="496" on="1"/>
        <pt x="139" y="586" on="0"/>
        <pt x="138" y="623" on="1"/>
      </contour>
      <contour>
        <pt x="657" y="625" on="1"/>
        <pt x="648" y="606" on="0"/>
        <pt x="629" y="542" on="0"/>
        <pt x="619" y="495" on="1"/>
        <pt x="609" y="449" on="0"/>
        <pt x="589" y="357" on="0"/>
        <pt x="579" y="310" on="1"/>
        <pt x="533" y="89" on="0"/>
        <pt x="497" y="41" on="1"/>
        <pt x="453" y="-19" on="0"/>
        <pt x="354" y="-19" on="1"/>
        <pt x="309" y="-19" on="0"/>
        <pt x="273" y="-7" on="1"/>
        <pt x="238" y="5" on="0"/>
        <pt x="214" y="0" on="1"/>
        <pt x="242" y="130" on="1"/>
        <pt x="300" y="130" on="1"/>
        <pt x="299" y="106" on="0"/>
        <pt x="320" y="94" on="1"/>
        <pt x="334" y="86" on="0"/>
        <pt x="351" y="86" on="1"/>
        <pt x="392" y="86" on="0"/>
        <pt x="406" y="127" on="1"/>
        <pt x="414" y="150" on="0"/>
        <pt x="437" y="242" on="0"/>
        <pt x="452" y="312" on="1"/>
        <pt x="472" y="405" on="0"/>
        <pt x="495" y="519" on="0"/>
        <pt x="499" y="542" on="1"/>
        <pt x="508" y="586" on="0"/>
        <pt x="506" y="625" on="1"/>
      </contour>
    </TTGlyph>
    <TTGlyph name="Iacute" xMin="5" yMin="0" xMax="363" yMax="865">
      <contour>
        <pt x="289" y="623" on="1"/>
        <pt x="281" y="604" on="0"/>
        <pt x="262" y="541" on="0"/>
        <pt x="252" y="495" on="1"/>
        <pt x="242" y="449" on="0"/>
        <pt x="222" y="358" on="0"/>
        <pt x="212" y="312" on="1"/>
        <pt x="202" y="266" on="0"/>
        <pt x="184" y="175" on="0"/>
        <pt x="174" y="129" on="1"/>
        <pt x="154" y="37" on="0"/>
        <pt x="156" y="0" on="1"/>
        <pt x="5" y="0" on="1"/>
        <pt x="22" y="36" on="0"/>
        <pt x="45" y="128" on="1"/>
        <pt x="45" y="129" on="0"/>
        <pt x="84" y="314" on="1"/>
        <pt x="94" y="360" on="0"/>
        <pt x="113" y="450" on="0"/>
        <pt x="123" y="496" on="1"/>
        <pt x="139" y="586" on="0"/>
        <pt x="138" y="623" on="1"/>
      </contour>
      <contour>
        <pt x="363" y="835" on="1"/>
        <pt x="265" y="668" on="1"/>
        <pt x="196" y="688" on="1"/>
        <pt x="283" y="865" on="1"/>
      </contour>
      <contour>
        <pt x="363" y="835" on="1"/>
        <pt x="265" y="668" on="1"/>
        <pt x="196" y="688" on="1"/>
        <pt x="283" y="865" on="1"/>
      </contour>
    </TTGlyph>
    <TTGlyph name="Ibreve" xMin="5" yMin="0" xMax="387" yMax="812">
      <contour>
        <pt x="289" y="623" on="1"/>
        <pt x="281" y="604" on="0"/>
        <pt x="262" y="541" on="0"/>
        <pt x="252" y="495" on="1"/>
        <pt x="242" y="449" on="0"/>
        <pt x="222" y="358" on="0"/>
        <pt x="212" y="312" on="1"/>
        <pt x="202" y="266" on="0"/>
        <pt x="184" y="175" on="0"/>
        <pt x="174" y="129" on="1"/>
        <pt x="154" y="37" on="0"/>
        <pt x="156" y="0" on="1"/>
        <pt x="5" y="0" on="1"/>
        <pt x="22" y="36" on="0"/>
        <pt x="45" y="128" on="1"/>
        <pt x="45" y="129" on="0"/>
        <pt x="84" y="314" on="1"/>
        <pt x="94" y="360" on="0"/>
        <pt x="113" y="450" on="0"/>
        <pt x="123" y="496" on="1"/>
        <pt x="139" y="586" on="0"/>
        <pt x="138" y="623" on="1"/>
      </contour>
      <contour>
        <pt x="387" y="773" on="1"/>
        <pt x="325" y="705" on="0"/>
        <pt x="315" y="698" on="1"/>
        <pt x="275" y="669" on="0"/>
        <pt x="209" y="670" on="1"/>
        <pt x="156" y="672" on="0"/>
        <pt x="124" y="699" on="1"/>
        <pt x="111" y="710" on="0"/>
        <pt x="85" y="747" on="0"/>
        <pt x="71" y="773" on="1"/>
        <pt x="116" y="806" on="1"/>
        <pt x="124" y="793" on="0"/>
        <pt x="142" y="768" on="0"/>
        <pt x="150" y="755" on="1"/>
        <pt x="175" y="728" on="0"/>
        <pt x="221" y="726" on="1"/>
        <pt x="256" y="725" on="0"/>
        <pt x="292" y="754" on="1"/>
        <pt x="303" y="763" on="0"/>
        <pt x="349" y="812" on="1"/>
      </contour>
    </TTGlyph>
    <TTGlyph name="Icircumflex" xMin="5" yMin="0" xMax="400" yMax="847">
      <contour>
        <pt x="289" y="623" on="1"/>
        <pt x="281" y="604" on="0"/>
        <pt x="262" y="541" on="0"/>
        <pt x="252" y="495" on="1"/>
        <pt x="242" y="449" on="0"/>
        <pt x="222" y="358" on="0"/>
        <pt x="212" y="312" on="1"/>
        <pt x="202" y="266" on="0"/>
        <pt x="184" y="175" on="0"/>
        <pt x="174" y="129" on="1"/>
        <pt x="154" y="37" on="0"/>
        <pt x="156" y="0" on="1"/>
        <pt x="5" y="0" on="1"/>
        <pt x="22" y="36" on="0"/>
        <pt x="45" y="128" on="1"/>
        <pt x="45" y="129" on="0"/>
        <pt x="84" y="314" on="1"/>
        <pt x="94" y="360" on="0"/>
        <pt x="113" y="450" on="0"/>
        <pt x="123" y="496" on="1"/>
        <pt x="139" y="586" on="0"/>
        <pt x="138" y="623" on="1"/>
      </contour>
      <contour>
        <pt x="400" y="723" on="1"/>
        <pt x="343" y="672" on="1"/>
        <pt x="324" y="687" on="0"/>
        <pt x="274" y="729" on="0"/>
        <pt x="242" y="757" on="1"/>
        <pt x="214" y="741" on="0"/>
        <pt x="134" y="694" on="0"/>
        <pt x="80" y="662" on="1"/>
        <pt x="44" y="723" on="1"/>
        <pt x="248" y="847" on="1"/>
        <pt x="286" y="816" on="0"/>
        <pt x="362" y="754" on="0"/>
      </contour>
    </TTGlyph>
    <TTGlyph name="Idieresis" xMin="5" yMin="0" xMax="379" yMax="775">
      <contour>
        <pt x="289" y="623" on="1"/>
        <pt x="281" y="604" on="0"/>
        <pt x="262" y="541" on="0"/>
        <pt x="252" y="495" on="1"/>
        <pt x="242" y="449" on="0"/>
        <pt x="222" y="358" on="0"/>
        <pt x="212" y="312" on="1"/>
        <pt x="202" y="266" on="0"/>
        <pt x="184" y="175" on="0"/>
        <pt x="174" y="129" on="1"/>
        <pt x="154" y="37" on="0"/>
        <pt x="156" y="0" on="1"/>
        <pt x="5" y="0" on="1"/>
        <pt x="22" y="36" on="0"/>
        <pt x="45" y="128" on="1"/>
        <pt x="45" y="129" on="0"/>
        <pt x="84" y="314" on="1"/>
        <pt x="94" y="360" on="0"/>
        <pt x="113" y="450" on="0"/>
        <pt x="123" y="496" on="1"/>
        <pt x="139" y="586" on="0"/>
        <pt x="138" y="623" on="1"/>
      </contour>
      <contour>
        <pt x="314" y="667" on="1"/>
        <pt x="296" y="667" on="0"/>
        <pt x="273" y="692" on="0"/>
        <pt x="273" y="709" on="1"/>
        <pt x="273" y="721" on="0"/>
        <pt x="284" y="744" on="0"/>
        <pt x="302" y="762" on="0"/>
        <pt x="325" y="773" on="0"/>
        <pt x="337" y="773" on="1"/>
        <pt x="355" y="773" on="0"/>
        <pt x="379" y="748" on="0"/>
        <pt x="379" y="730" on="1"/>
        <pt x="379" y="718" on="0"/>
        <pt x="368" y="695" on="0"/>
        <pt x="349" y="678" on="0"/>
        <pt x="326" y="667" on="0"/>
      </contour>
      <contour>
        <pt x="187" y="722" on="1"/>
        <pt x="182" y="702" on="0"/>
        <pt x="144" y="670" on="0"/>
        <pt x="123" y="670" on="1"/>
        <pt x="104" y="670" on="0"/>
        <pt x="79" y="694" on="0"/>
        <pt x="79" y="712" on="1"/>
        <pt x="79" y="724" on="0"/>
        <pt x="91" y="747" on="0"/>
        <pt x="109" y="764" on="0"/>
        <pt x="133" y="775" on="0"/>
        <pt x="145" y="775" on="1"/>
        <pt x="166" y="775" on="0"/>
        <pt x="191" y="742" on="0"/>
      </contour>
    </TTGlyph>
    <TTGlyph name="Idotaccent" xMin="5" yMin="0" xMax="289" yMax="766">
      <contour>
        <pt x="289" y="623" on="1"/>
        <pt x="281" y="604" on="0"/>
        <pt x="262" y="541" on="0"/>
        <pt x="252" y="495" on="1"/>
        <pt x="242" y="449" on="0"/>
        <pt x="222" y="358" on="0"/>
        <pt x="212" y="312" on="1"/>
        <pt x="202" y="266" on="0"/>
        <pt x="184" y="175" on="0"/>
        <pt x="174" y="129" on="1"/>
        <pt x="154" y="37" on="0"/>
        <pt x="156" y="0" on="1"/>
        <pt x="5" y="0" on="1"/>
        <pt x="22" y="36" on="0"/>
        <pt x="45" y="128" on="1"/>
        <pt x="45" y="129" on="0"/>
        <pt x="84" y="314" on="1"/>
        <pt x="94" y="360" on="0"/>
        <pt x="113" y="450" on="0"/>
        <pt x="123" y="496" on="1"/>
        <pt x="139" y="586" on="0"/>
        <pt x="138" y="623" on="1"/>
      </contour>
      <contour>
        <pt x="281" y="721" on="1"/>
        <pt x="271" y="672" on="0"/>
        <pt x="225" y="672" on="1"/>
        <pt x="187" y="672" on="0"/>
        <pt x="187" y="707" on="1"/>
        <pt x="187" y="731" on="0"/>
        <pt x="221" y="766" on="0"/>
        <pt x="245" y="766" on="1"/>
        <pt x="265" y="766" on="0"/>
        <pt x="285" y="739" on="0"/>
      </contour>
    </TTGlyph>
    <TTGlyph name="Igrave" xMin="5" yMin="0" xMax="289" yMax="864">
      <contour>
        <pt x="289" y="623" on="1"/>
        <pt x="281" y="604" on="0"/>
        <pt x="262" y="541" on="0"/>
        <pt x="252" y="495" on="1"/>
        <pt x="242" y="449" on="0"/>
        <pt x="222" y="358" on="0"/>
        <pt x="212" y="312" on="1"/>
        <pt x="202" y="266" on="0"/>
        <pt x="184" y="175" on="0"/>
        <pt x="174" y="129" on="1"/>
        <pt x="154" y="37" on="0"/>
        <pt x="156" y="0" on="1"/>
        <pt x="5" y="0" on="1"/>
        <pt x="22" y="36" on="0"/>
        <pt x="45" y="128" on="1"/>
        <pt x="45" y="129" on="0"/>
        <pt x="84" y="314" on="1"/>
        <pt x="94" y="360" on="0"/>
        <pt x="113" y="450" on="0"/>
        <pt x="123" y="496" on="1"/>
        <pt x="139" y="586" on="0"/>
        <pt x="138" y="623" on="1"/>
      </contour>
      <contour>
        <pt x="269" y="690" on="1"/>
        <pt x="200" y="668" on="1"/>
        <pt x="123" y="835" on="1"/>
        <pt x="202" y="864" on="1"/>
      </contour>
    </TTGlyph>
    <TTGlyph name="Imacron" xMin="5" yMin="0" xMax="384" yMax="721">
      <contour>
        <pt x="289" y="623" on="1"/>
        <pt x="281" y="604" on="0"/>
        <pt x="262" y="541" on="0"/>
        <pt x="252" y="495" on="1"/>
        <pt x="242" y="449" on="0"/>
        <pt x="222" y="358" on="0"/>
        <pt x="212" y="312" on="1"/>
        <pt x="202" y="266" on="0"/>
        <pt x="184" y="175" on="0"/>
        <pt x="174" y="129" on="1"/>
        <pt x="154" y="37" on="0"/>
        <pt x="156" y="0" on="1"/>
        <pt x="5" y="0" on="1"/>
        <pt x="22" y="36" on="0"/>
        <pt x="45" y="128" on="1"/>
        <pt x="45" y="129" on="0"/>
        <pt x="84" y="314" on="1"/>
        <pt x="94" y="360" on="0"/>
        <pt x="113" y="450" on="0"/>
        <pt x="123" y="496" on="1"/>
        <pt x="139" y="586" on="0"/>
        <pt x="138" y="623" on="1"/>
      </contour>
      <contour>
        <pt x="384" y="721" on="1"/>
        <pt x="373" y="669" on="1"/>
        <pt x="66" y="669" on="1"/>
        <pt x="77" y="721" on="1"/>
      </contour>
    </TTGlyph>
    <TTGlyph name="Iogonek" xMin="-25" yMin="-222" xMax="289" yMax="623">
      <contour>
        <pt x="289" y="623" on="1"/>
        <pt x="281" y="604" on="0"/>
        <pt x="262" y="541" on="0"/>
        <pt x="252" y="495" on="1"/>
        <pt x="242" y="449" on="0"/>
        <pt x="222" y="358" on="0"/>
        <pt x="212" y="312" on="1"/>
        <pt x="202" y="266" on="0"/>
        <pt x="184" y="175" on="0"/>
        <pt x="174" y="129" on="1"/>
        <pt x="154" y="37" on="0"/>
        <pt x="156" y="0" on="1"/>
        <pt x="120" y="0" on="1"/>
        <pt x="87" y="-30" on="0"/>
        <pt x="65" y="-81" on="1"/>
        <pt x="57" y="-102" on="0"/>
        <pt x="57" y="-114" on="1"/>
        <pt x="57" y="-145" on="0"/>
        <pt x="96" y="-143" on="1"/>
        <pt x="117" y="-143" on="0"/>
        <pt x="152" y="-120" on="1"/>
        <pt x="163" y="-193" on="1"/>
        <pt x="128" y="-219" on="0"/>
        <pt x="63" y="-222" on="1"/>
        <pt x="20" y="-222" on="0"/>
        <pt x="-29" y="-165" on="0"/>
        <pt x="-25" y="-123" on="1"/>
        <pt x="-18" y="-50" on="0"/>
        <pt x="26" y="0" on="1"/>
        <pt x="5" y="0" on="1"/>
        <pt x="22" y="36" on="0"/>
        <pt x="45" y="128" on="1"/>
        <pt x="84" y="314" on="1"/>
        <pt x="94" y="360" on="0"/>
        <pt x="113" y="450" on="0"/>
        <pt x="123" y="496" on="1"/>
        <pt x="139" y="586" on="0"/>
        <pt x="138" y="623" on="1"/>
      </contour>
    </TTGlyph>
    <TTGlyph name="Iota" xMin="5" yMin="0" xMax="289" yMax="623">
      <contour>
        <pt x="289" y="623" on="1"/>
        <pt x="281" y="604" on="0"/>
        <pt x="262" y="541" on="0"/>
        <pt x="252" y="495" on="1"/>
        <pt x="242" y="449" on="0"/>
        <pt x="222" y="358" on="0"/>
        <pt x="212" y="312" on="1"/>
        <pt x="202" y="266" on="0"/>
        <pt x="184" y="175" on="0"/>
        <pt x="174" y="129" on="1"/>
        <pt x="154" y="37" on="0"/>
        <pt x="156" y="0" on="1"/>
        <pt x="5" y="0" on="1"/>
        <pt x="22" y="36" on="0"/>
        <pt x="45" y="128" on="1"/>
        <pt x="84" y="314" on="1"/>
        <pt x="94" y="360" on="0"/>
        <pt x="113" y="450" on="0"/>
        <pt x="123" y="496" on="1"/>
        <pt x="139" y="586" on="0"/>
        <pt x="138" y="623" on="1"/>
      </contour>
    </TTGlyph>
    <TTGlyph name="Iotadieresis" xMin="5" yMin="0" xMax="387" yMax="775">
      <contour>
        <pt x="289" y="623" on="1"/>
        <pt x="281" y="604" on="0"/>
        <pt x="262" y="541" on="0"/>
        <pt x="252" y="495" on="1"/>
        <pt x="242" y="449" on="0"/>
        <pt x="222" y="358" on="0"/>
        <pt x="212" y="312" on="1"/>
        <pt x="202" y="266" on="0"/>
        <pt x="184" y="175" on="0"/>
        <pt x="174" y="129" on="1"/>
        <pt x="154" y="37" on="0"/>
        <pt x="156" y="0" on="1"/>
        <pt x="5" y="0" on="1"/>
        <pt x="22" y="36" on="0"/>
        <pt x="45" y="128" on="1"/>
        <pt x="84" y="314" on="1"/>
        <pt x="94" y="360" on="0"/>
        <pt x="113" y="450" on="0"/>
        <pt x="123" y="496" on="1"/>
        <pt x="139" y="586" on="0"/>
        <pt x="138" y="623" on="1"/>
      </contour>
      <contour>
        <pt x="322" y="667" on="1"/>
        <pt x="304" y="667" on="0"/>
        <pt x="281" y="692" on="0"/>
        <pt x="281" y="709" on="1"/>
        <pt x="281" y="721" on="0"/>
        <pt x="292" y="744" on="0"/>
        <pt x="310" y="762" on="0"/>
        <pt x="333" y="773" on="0"/>
        <pt x="345" y="773" on="1"/>
        <pt x="363" y="773" on="0"/>
        <pt x="387" y="748" on="0"/>
        <pt x="387" y="730" on="1"/>
        <pt x="387" y="718" on="0"/>
        <pt x="376" y="695" on="0"/>
        <pt x="357" y="678" on="0"/>
        <pt x="334" y="667" on="0"/>
      </contour>
      <contour>
        <pt x="195" y="722" on="1"/>
        <pt x="190" y="702" on="0"/>
        <pt x="152" y="670" on="0"/>
        <pt x="131" y="670" on="1"/>
        <pt x="112" y="670" on="0"/>
        <pt x="87" y="694" on="0"/>
        <pt x="87" y="712" on="1"/>
        <pt x="87" y="724" on="0"/>
        <pt x="99" y="747" on="0"/>
        <pt x="117" y="764" on="0"/>
        <pt x="141" y="775" on="0"/>
        <pt x="153" y="775" on="1"/>
        <pt x="174" y="775" on="0"/>
        <pt x="199" y="742" on="0"/>
      </contour>
    </TTGlyph>
    <TTGlyph name="Iotatonos" xMin="-106" yMin="0" xMax="291" yMax="671">
      <contour>
        <pt x="291" y="623" on="1"/>
        <pt x="283" y="604" on="0"/>
        <pt x="264" y="541" on="0"/>
        <pt x="254" y="495" on="1"/>
        <pt x="244" y="449" on="0"/>
        <pt x="224" y="358" on="0"/>
        <pt x="214" y="312" on="1"/>
        <pt x="204" y="266" on="0"/>
        <pt x="186" y="175" on="0"/>
        <pt x="176" y="129" on="1"/>
        <pt x="156" y="37" on="0"/>
        <pt x="158" y="0" on="1"/>
        <pt x="7" y="0" on="1"/>
        <pt x="24" y="36" on="0"/>
        <pt x="47" y="128" on="1"/>
        <pt x="86" y="314" on="1"/>
        <pt x="96" y="360" on="0"/>
        <pt x="115" y="450" on="0"/>
        <pt x="125" y="496" on="1"/>
        <pt x="141" y="586" on="0"/>
        <pt x="140" y="623" on="1"/>
      </contour>
      <contour>
        <pt x="61" y="641" on="1"/>
        <pt x="-37" y="474" on="1"/>
        <pt x="-106" y="494" on="1"/>
        <pt x="-19" y="671" on="1"/>
      </contour>
    </TTGlyph>
    <TTGlyph name="Itilde" xMin="5" yMin="0" xMax="432" yMax="785">
      <contour>
        <pt x="289" y="623" on="1"/>
        <pt x="281" y="604" on="0"/>
        <pt x="262" y="541" on="0"/>
        <pt x="252" y="495" on="1"/>
        <pt x="242" y="449" on="0"/>
        <pt x="222" y="358" on="0"/>
        <pt x="212" y="312" on="1"/>
        <pt x="202" y="266" on="0"/>
        <pt x="184" y="175" on="0"/>
        <pt x="174" y="129" on="1"/>
        <pt x="154" y="37" on="0"/>
        <pt x="156" y="0" on="1"/>
        <pt x="5" y="0" on="1"/>
        <pt x="22" y="36" on="0"/>
        <pt x="45" y="128" on="1"/>
        <pt x="45" y="129" on="0"/>
        <pt x="84" y="314" on="1"/>
        <pt x="94" y="360" on="0"/>
        <pt x="113" y="450" on="0"/>
        <pt x="123" y="496" on="1"/>
        <pt x="139" y="586" on="0"/>
        <pt x="138" y="623" on="1"/>
      </contour>
      <contour>
        <pt x="432" y="740" on="1"/>
        <pt x="368" y="670" on="0"/>
        <pt x="297" y="670" on="1"/>
        <pt x="247" y="670" on="0"/>
        <pt x="216" y="694" on="1"/>
        <pt x="185" y="718" on="0"/>
        <pt x="151" y="719" on="1"/>
        <pt x="119" y="721" on="0"/>
        <pt x="72" y="665" on="1"/>
        <pt x="26" y="686" on="1"/>
        <pt x="54" y="740" on="0"/>
        <pt x="97" y="765" on="1"/>
        <pt x="131" y="785" on="0"/>
        <pt x="160" y="785" on="1"/>
        <pt x="219" y="785" on="0"/>
        <pt x="253" y="760" on="1"/>
        <pt x="287" y="736" on="0"/>
        <pt x="318" y="736" on="1"/>
        <pt x="354" y="736" on="0"/>
        <pt x="376" y="782" on="1"/>
        <pt x="390" y="771" on="0"/>
        <pt x="418" y="751" on="0"/>
      </contour>
    </TTGlyph>
    <TTGlyph name="J" xMin="4" yMin="-19" xMax="447" yMax="625">
      <contour>
        <pt x="447" y="625" on="1"/>
        <pt x="438" y="606" on="0"/>
        <pt x="419" y="542" on="0"/>
        <pt x="409" y="495" on="1"/>
        <pt x="399" y="449" on="0"/>
        <pt x="379" y="357" on="0"/>
        <pt x="369" y="310" on="1"/>
        <pt x="323" y="89" on="0"/>
        <pt x="287" y="41" on="1"/>
        <pt x="243" y="-19" on="0"/>
        <pt x="144" y="-19" on="1"/>
        <pt x="99" y="-19" on="0"/>
        <pt x="63" y="-7" on="1"/>
        <pt x="28" y="5" on="0"/>
        <pt x="4" y="0" on="1"/>
        <pt x="32" y="130" on="1"/>
        <pt x="90" y="130" on="1"/>
        <pt x="89" y="106" on="0"/>
        <pt x="110" y="94" on="1"/>
        <pt x="124" y="86" on="0"/>
        <pt x="141" y="86" on="1"/>
        <pt x="182" y="86" on="0"/>
        <pt x="196" y="127" on="1"/>
        <pt x="204" y="150" on="0"/>
        <pt x="227" y="242" on="0"/>
        <pt x="242" y="312" on="1"/>
        <pt x="262" y="405" on="0"/>
        <pt x="285" y="519" on="0"/>
        <pt x="289" y="542" on="1"/>
        <pt x="298" y="586" on="0"/>
        <pt x="296" y="625" on="1"/>
      </contour>
    </TTGlyph>
    <TTGlyph name="Jcircumflex" xMin="4" yMin="-19" xMax="547" yMax="848">
      <contour>
        <pt x="447" y="625" on="1"/>
        <pt x="438" y="606" on="0"/>
        <pt x="419" y="542" on="0"/>
        <pt x="409" y="495" on="1"/>
        <pt x="399" y="449" on="0"/>
        <pt x="379" y="357" on="0"/>
        <pt x="369" y="310" on="1"/>
        <pt x="323" y="89" on="0"/>
        <pt x="287" y="41" on="1"/>
        <pt x="243" y="-19" on="0"/>
        <pt x="144" y="-19" on="1"/>
        <pt x="99" y="-19" on="0"/>
        <pt x="63" y="-7" on="1"/>
        <pt x="28" y="5" on="0"/>
        <pt x="4" y="0" on="1"/>
        <pt x="32" y="130" on="1"/>
        <pt x="90" y="130" on="1"/>
        <pt x="89" y="106" on="0"/>
        <pt x="110" y="94" on="1"/>
        <pt x="124" y="86" on="0"/>
        <pt x="141" y="86" on="1"/>
        <pt x="182" y="86" on="0"/>
        <pt x="196" y="127" on="1"/>
        <pt x="204" y="150" on="0"/>
        <pt x="227" y="242" on="0"/>
        <pt x="242" y="312" on="1"/>
        <pt x="262" y="405" on="0"/>
        <pt x="285" y="519" on="0"/>
        <pt x="289" y="542" on="1"/>
        <pt x="298" y="586" on="0"/>
        <pt x="296" y="625" on="1"/>
      </contour>
      <contour>
        <pt x="547" y="724" on="1"/>
        <pt x="490" y="673" on="1"/>
        <pt x="471" y="688" on="0"/>
        <pt x="421" y="730" on="0"/>
        <pt x="389" y="758" on="1"/>
        <pt x="361" y="742" on="0"/>
        <pt x="281" y="695" on="0"/>
        <pt x="227" y="663" on="1"/>
        <pt x="191" y="724" on="1"/>
        <pt x="395" y="848" on="1"/>
        <pt x="433" y="817" on="0"/>
        <pt x="509" y="755" on="0"/>
      </contour>
    </TTGlyph>
    <TTGlyph name="K" xMin="2" yMin="0" xMax="729" yMax="627">
      <contour>
        <pt x="288" y="626" on="1"/>
        <pt x="265" y="578" on="0"/>
        <pt x="213" y="331" on="1"/>
        <pt x="283" y="392" on="0"/>
        <pt x="345" y="445" on="1"/>
        <pt x="399" y="490" on="0"/>
        <pt x="463" y="544" on="0"/>
        <pt x="474" y="554" on="1"/>
        <pt x="520" y="597" on="0"/>
        <pt x="527" y="627" on="1"/>
        <pt x="729" y="626" on="1"/>
        <pt x="712" y="615" on="0"/>
        <pt x="656" y="569" on="0"/>
        <pt x="614" y="534" on="1"/>
        <pt x="538" y="470" on="0"/>
        <pt x="460" y="403" on="0"/>
        <pt x="456" y="400" on="1"/>
        <pt x="439" y="386" on="0"/>
        <pt x="393" y="348" on="0"/>
        <pt x="364" y="323" on="1"/>
        <pt x="386" y="302" on="0"/>
        <pt x="425" y="260" on="0"/>
        <pt x="444" y="238" on="1"/>
        <pt x="560" y="101" on="0"/>
        <pt x="603" y="0" on="1"/>
        <pt x="434" y="0" on="1"/>
        <pt x="429" y="42" on="0"/>
        <pt x="405" y="82" on="1"/>
        <pt x="395" y="99" on="0"/>
        <pt x="354" y="153" on="0"/>
        <pt x="323" y="191" on="1"/>
        <pt x="292" y="229" on="0"/>
        <pt x="235" y="288" on="0"/>
        <pt x="209" y="310" on="1"/>
        <pt x="152" y="44" on="0"/>
        <pt x="154" y="0" on="1"/>
        <pt x="2" y="0" on="1"/>
        <pt x="22" y="38" on="0"/>
        <pt x="41" y="127" on="1"/>
        <pt x="81" y="313" on="0"/>
        <pt x="124" y="520" on="0"/>
        <pt x="129" y="543" on="1"/>
        <pt x="138" y="589" on="0"/>
        <pt x="135" y="626" on="1"/>
      </contour>
    </TTGlyph>
    <TTGlyph name="Kappa" xMin="2" yMin="0" xMax="729" yMax="627">
      <contour>
        <pt x="288" y="626" on="1"/>
        <pt x="265" y="578" on="0"/>
        <pt x="213" y="331" on="1"/>
        <pt x="283" y="392" on="0"/>
        <pt x="345" y="445" on="1"/>
        <pt x="399" y="490" on="0"/>
        <pt x="463" y="544" on="0"/>
        <pt x="474" y="554" on="1"/>
        <pt x="520" y="597" on="0"/>
        <pt x="527" y="627" on="1"/>
        <pt x="729" y="626" on="1"/>
        <pt x="712" y="615" on="0"/>
        <pt x="656" y="569" on="0"/>
        <pt x="614" y="534" on="1"/>
        <pt x="538" y="470" on="0"/>
        <pt x="460" y="403" on="0"/>
        <pt x="456" y="400" on="1"/>
        <pt x="439" y="386" on="0"/>
        <pt x="393" y="348" on="0"/>
        <pt x="364" y="323" on="1"/>
        <pt x="386" y="302" on="0"/>
        <pt x="425" y="260" on="0"/>
        <pt x="444" y="238" on="1"/>
        <pt x="560" y="101" on="0"/>
        <pt x="603" y="0" on="1"/>
        <pt x="434" y="0" on="1"/>
        <pt x="429" y="42" on="0"/>
        <pt x="405" y="82" on="1"/>
        <pt x="395" y="99" on="0"/>
        <pt x="354" y="153" on="0"/>
        <pt x="323" y="191" on="1"/>
        <pt x="292" y="229" on="0"/>
        <pt x="235" y="288" on="0"/>
        <pt x="209" y="310" on="1"/>
        <pt x="152" y="44" on="0"/>
        <pt x="154" y="0" on="1"/>
        <pt x="2" y="0" on="1"/>
        <pt x="22" y="38" on="0"/>
        <pt x="41" y="127" on="1"/>
        <pt x="81" y="312" on="1"/>
        <pt x="91" y="358" on="0"/>
        <pt x="109" y="450" on="0"/>
        <pt x="119" y="496" on="1"/>
        <pt x="138" y="587" on="0"/>
        <pt x="135" y="626" on="1"/>
      </contour>
    </TTGlyph>
    <TTGlyph name="Kcommaaccent" xMin="2" yMin="-301" xMax="729" yMax="627">
      <contour>
        <pt x="288" y="626" on="1"/>
        <pt x="265" y="578" on="0"/>
        <pt x="213" y="331" on="1"/>
        <pt x="283" y="392" on="0"/>
        <pt x="345" y="445" on="1"/>
        <pt x="399" y="490" on="0"/>
        <pt x="463" y="544" on="0"/>
        <pt x="474" y="554" on="1"/>
        <pt x="520" y="597" on="0"/>
        <pt x="527" y="627" on="1"/>
        <pt x="729" y="626" on="1"/>
        <pt x="712" y="615" on="0"/>
        <pt x="656" y="569" on="0"/>
        <pt x="614" y="534" on="1"/>
        <pt x="538" y="470" on="0"/>
        <pt x="460" y="403" on="0"/>
        <pt x="456" y="400" on="1"/>
        <pt x="439" y="386" on="0"/>
        <pt x="393" y="348" on="0"/>
        <pt x="364" y="323" on="1"/>
        <pt x="386" y="302" on="0"/>
        <pt x="425" y="260" on="0"/>
        <pt x="444" y="238" on="1"/>
        <pt x="560" y="101" on="0"/>
        <pt x="603" y="0" on="1"/>
        <pt x="434" y="0" on="1"/>
        <pt x="429" y="42" on="0"/>
        <pt x="405" y="82" on="1"/>
        <pt x="395" y="99" on="0"/>
        <pt x="354" y="153" on="0"/>
        <pt x="323" y="191" on="1"/>
        <pt x="292" y="229" on="0"/>
        <pt x="235" y="288" on="0"/>
        <pt x="209" y="310" on="1"/>
        <pt x="152" y="44" on="0"/>
        <pt x="154" y="0" on="1"/>
        <pt x="2" y="0" on="1"/>
        <pt x="22" y="38" on="0"/>
        <pt x="41" y="127" on="1"/>
        <pt x="81" y="313" on="0"/>
        <pt x="124" y="520" on="0"/>
        <pt x="129" y="543" on="1"/>
        <pt x="138" y="589" on="0"/>
        <pt x="135" y="626" on="1"/>
      </contour>
      <contour>
        <pt x="318" y="-113" on="1"/>
        <pt x="305" y="-174" on="1"/>
        <pt x="281" y="-287" on="0"/>
        <pt x="162" y="-301" on="1"/>
        <pt x="168" y="-258" on="1"/>
        <pt x="211" y="-251" on="0"/>
        <pt x="226" y="-180" on="1"/>
        <pt x="198" y="-180" on="1"/>
        <pt x="212" y="-113" on="1"/>
      </contour>
    </TTGlyph>
    <TTGlyph name="L" xMin="3" yMin="-2" xMax="515" yMax="625">
      <contour>
        <pt x="515" y="148" on="1"/>
        <pt x="508" y="122" on="0"/>
        <pt x="492" y="48" on="0"/>
        <pt x="483" y="-2" on="1"/>
        <pt x="414" y="1" on="0"/>
        <pt x="308" y="4" on="0"/>
        <pt x="268" y="3" on="1"/>
        <pt x="221" y="3" on="0"/>
        <pt x="90" y="0" on="0"/>
        <pt x="3" y="-2" on="1"/>
        <pt x="22" y="37" on="0"/>
        <pt x="84" y="325" on="1"/>
        <pt x="94" y="370" on="0"/>
        <pt x="113" y="458" on="0"/>
        <pt x="123" y="503" on="1"/>
        <pt x="139" y="588" on="0"/>
        <pt x="138" y="625" on="1"/>
        <pt x="286" y="625" on="1"/>
        <pt x="268" y="587" on="0"/>
        <pt x="247" y="491" on="1"/>
        <pt x="237" y="446" on="0"/>
        <pt x="219" y="356" on="0"/>
        <pt x="209" y="310" on="1"/>
        <pt x="163" y="105" on="1"/>
        <pt x="351" y="106" on="1"/>
        <pt x="364" y="106" on="0"/>
        <pt x="380" y="106" on="0"/>
        <pt x="385" y="107" on="1"/>
        <pt x="409" y="110" on="0"/>
        <pt x="425" y="127" on="0"/>
        <pt x="432" y="149" on="1"/>
      </contour>
    </TTGlyph>
    <TTGlyph name="Lacute" xMin="3" yMin="-2" xMax="515" yMax="865">
      <contour>
        <pt x="515" y="148" on="1"/>
        <pt x="508" y="122" on="0"/>
        <pt x="492" y="48" on="0"/>
        <pt x="483" y="-2" on="1"/>
        <pt x="414" y="1" on="0"/>
        <pt x="308" y="4" on="0"/>
        <pt x="268" y="3" on="1"/>
        <pt x="221" y="3" on="0"/>
        <pt x="90" y="0" on="0"/>
        <pt x="3" y="-2" on="1"/>
        <pt x="22" y="37" on="0"/>
        <pt x="84" y="325" on="1"/>
        <pt x="94" y="370" on="0"/>
        <pt x="113" y="458" on="0"/>
        <pt x="123" y="503" on="1"/>
        <pt x="139" y="588" on="0"/>
        <pt x="138" y="625" on="1"/>
        <pt x="286" y="625" on="1"/>
        <pt x="268" y="587" on="0"/>
        <pt x="247" y="491" on="1"/>
        <pt x="237" y="446" on="0"/>
        <pt x="219" y="356" on="0"/>
        <pt x="209" y="310" on="1"/>
        <pt x="163" y="105" on="1"/>
        <pt x="351" y="106" on="1"/>
        <pt x="364" y="106" on="0"/>
        <pt x="380" y="106" on="0"/>
        <pt x="385" y="107" on="1"/>
        <pt x="409" y="110" on="0"/>
        <pt x="425" y="127" on="0"/>
        <pt x="432" y="149" on="1"/>
      </contour>
      <contour>
        <pt x="355" y="835" on="1"/>
        <pt x="257" y="668" on="1"/>
        <pt x="188" y="688" on="1"/>
        <pt x="275" y="865" on="1"/>
      </contour>
    </TTGlyph>
    <TTGlyph name="Lambda" xMin="21" yMin="0" xMax="614" yMax="633">
      <contour>
        <pt x="614" y="0" on="1"/>
        <pt x="473" y="0" on="1"/>
        <pt x="471" y="14" on="0"/>
        <pt x="444" y="238" on="0"/>
        <pt x="418" y="451" on="1"/>
        <pt x="358" y="349" on="0"/>
        <pt x="230" y="125" on="0"/>
        <pt x="160" y="0" on="1"/>
        <pt x="21" y="0" on="1"/>
        <pt x="53" y="49" on="0"/>
        <pt x="240" y="364" on="0"/>
        <pt x="395" y="633" on="1"/>
        <pt x="508" y="633" on="1"/>
        <pt x="521" y="548" on="0"/>
        <pt x="544" y="401" on="0"/>
        <pt x="554" y="338" on="1"/>
        <pt x="604" y="35" on="0"/>
      </contour>
    </TTGlyph>
    <TTGlyph name="Lcaron" xMin="3" yMin="-2" xMax="587" yMax="740">
      <contour>
        <pt x="515" y="148" on="1"/>
        <pt x="508" y="122" on="0"/>
        <pt x="492" y="48" on="0"/>
        <pt x="483" y="-2" on="1"/>
        <pt x="414" y="1" on="0"/>
        <pt x="308" y="4" on="0"/>
        <pt x="268" y="3" on="1"/>
        <pt x="221" y="3" on="0"/>
        <pt x="90" y="0" on="0"/>
        <pt x="3" y="-2" on="1"/>
        <pt x="22" y="37" on="0"/>
        <pt x="84" y="325" on="1"/>
        <pt x="94" y="370" on="0"/>
        <pt x="113" y="458" on="0"/>
        <pt x="123" y="503" on="1"/>
        <pt x="139" y="588" on="0"/>
        <pt x="138" y="625" on="1"/>
        <pt x="286" y="625" on="1"/>
        <pt x="268" y="587" on="0"/>
        <pt x="247" y="491" on="1"/>
        <pt x="237" y="446" on="0"/>
        <pt x="219" y="356" on="0"/>
        <pt x="209" y="310" on="1"/>
        <pt x="163" y="105" on="1"/>
        <pt x="351" y="106" on="1"/>
        <pt x="364" y="106" on="0"/>
        <pt x="380" y="106" on="0"/>
        <pt x="385" y="107" on="1"/>
        <pt x="409" y="110" on="0"/>
        <pt x="425" y="127" on="0"/>
        <pt x="432" y="149" on="1"/>
      </contour>
      <contour>
        <pt x="587" y="710" on="1"/>
        <pt x="489" y="543" on="1"/>
        <pt x="420" y="563" on="1"/>
        <pt x="507" y="740" on="1"/>
      </contour>
    </TTGlyph>
    <TTGlyph name="Lcommaaccent" xMin="3" yMin="-295" xMax="515" yMax="625">
      <contour>
        <pt x="515" y="148" on="1"/>
        <pt x="508" y="122" on="0"/>
        <pt x="492" y="48" on="0"/>
        <pt x="483" y="-2" on="1"/>
        <pt x="414" y="1" on="0"/>
        <pt x="308" y="4" on="0"/>
        <pt x="268" y="3" on="1"/>
        <pt x="221" y="3" on="0"/>
        <pt x="90" y="0" on="0"/>
        <pt x="3" y="-2" on="1"/>
        <pt x="22" y="37" on="0"/>
        <pt x="84" y="325" on="1"/>
        <pt x="94" y="370" on="0"/>
        <pt x="113" y="458" on="0"/>
        <pt x="123" y="503" on="1"/>
        <pt x="139" y="588" on="0"/>
        <pt x="138" y="625" on="1"/>
        <pt x="286" y="625" on="1"/>
        <pt x="268" y="587" on="0"/>
        <pt x="247" y="491" on="1"/>
        <pt x="237" y="446" on="0"/>
        <pt x="219" y="356" on="0"/>
        <pt x="209" y="310" on="1"/>
        <pt x="163" y="105" on="1"/>
        <pt x="351" y="106" on="1"/>
        <pt x="364" y="106" on="0"/>
        <pt x="380" y="106" on="0"/>
        <pt x="385" y="107" on="1"/>
        <pt x="409" y="110" on="0"/>
        <pt x="425" y="127" on="0"/>
        <pt x="432" y="149" on="1"/>
      </contour>
      <contour>
        <pt x="291" y="-107" on="1"/>
        <pt x="278" y="-168" on="1"/>
        <pt x="254" y="-281" on="0"/>
        <pt x="135" y="-295" on="1"/>
        <pt x="141" y="-252" on="1"/>
        <pt x="184" y="-245" on="0"/>
        <pt x="199" y="-174" on="1"/>
        <pt x="171" y="-174" on="1"/>
        <pt x="185" y="-107" on="1"/>
      </contour>
    </TTGlyph>
    <TTGlyph name="Ldot" xMin="3" yMin="-2" xMax="515" yMax="625">
      <contour>
        <pt x="515" y="148" on="1"/>
        <pt x="508" y="122" on="0"/>
        <pt x="492" y="48" on="0"/>
        <pt x="483" y="-2" on="1"/>
        <pt x="414" y="1" on="0"/>
        <pt x="308" y="4" on="0"/>
        <pt x="268" y="3" on="1"/>
        <pt x="221" y="3" on="0"/>
        <pt x="90" y="0" on="0"/>
        <pt x="3" y="-2" on="1"/>
        <pt x="22" y="37" on="0"/>
        <pt x="84" y="325" on="1"/>
        <pt x="94" y="370" on="0"/>
        <pt x="113" y="458" on="0"/>
        <pt x="123" y="503" on="1"/>
        <pt x="139" y="588" on="0"/>
        <pt x="138" y="625" on="1"/>
        <pt x="286" y="625" on="1"/>
        <pt x="268" y="587" on="0"/>
        <pt x="247" y="491" on="1"/>
        <pt x="237" y="446" on="0"/>
        <pt x="219" y="356" on="0"/>
        <pt x="209" y="310" on="1"/>
        <pt x="163" y="105" on="1"/>
        <pt x="351" y="106" on="1"/>
        <pt x="364" y="106" on="0"/>
        <pt x="380" y="106" on="0"/>
        <pt x="385" y="107" on="1"/>
        <pt x="409" y="110" on="0"/>
        <pt x="425" y="127" on="0"/>
        <pt x="432" y="149" on="1"/>
      </contour>
      <contour>
        <pt x="391" y="371" on="1"/>
        <pt x="391" y="348" on="0"/>
        <pt x="359" y="316" on="0"/>
        <pt x="336" y="316" on="1"/>
        <pt x="313" y="316" on="0"/>
        <pt x="281" y="348" on="0"/>
        <pt x="281" y="371" on="1"/>
        <pt x="281" y="394" on="0"/>
        <pt x="313" y="426" on="0"/>
        <pt x="336" y="426" on="1"/>
        <pt x="359" y="426" on="0"/>
        <pt x="391" y="394" on="0"/>
      </contour>
    </TTGlyph>
    <TTGlyph name="Lslash" xMin="-25" yMin="-2" xMax="515" yMax="625">
      <contour>
        <pt x="515" y="148" on="1"/>
        <pt x="508" y="122" on="0"/>
        <pt x="492" y="48" on="0"/>
        <pt x="483" y="-2" on="1"/>
        <pt x="414" y="1" on="0"/>
        <pt x="308" y="4" on="0"/>
        <pt x="268" y="3" on="1"/>
        <pt x="221" y="3" on="0"/>
        <pt x="90" y="0" on="0"/>
        <pt x="3" y="-2" on="1"/>
        <pt x="13" y="18" on="0"/>
        <pt x="48" y="156" on="0"/>
        <pt x="73" y="274" on="1"/>
        <pt x="-25" y="249" on="1"/>
        <pt x="-25" y="325" on="1"/>
        <pt x="90" y="355" on="1"/>
        <pt x="99" y="395" on="0"/>
        <pt x="117" y="474" on="0"/>
        <pt x="125" y="514" on="1"/>
        <pt x="140" y="588" on="0"/>
        <pt x="138" y="625" on="1"/>
        <pt x="286" y="625" on="1"/>
        <pt x="265" y="580" on="0"/>
        <pt x="226" y="390" on="1"/>
        <pt x="347" y="422" on="1"/>
        <pt x="360" y="347" on="1"/>
        <pt x="209" y="308" on="1"/>
        <pt x="163" y="105" on="1"/>
        <pt x="351" y="106" on="1"/>
        <pt x="364" y="106" on="0"/>
        <pt x="380" y="106" on="0"/>
        <pt x="385" y="107" on="1"/>
        <pt x="409" y="110" on="0"/>
        <pt x="425" y="127" on="0"/>
        <pt x="432" y="149" on="1"/>
      </contour>
    </TTGlyph>
    <TTGlyph name="M" xMin="4" yMin="-1" xMax="895" yMax="626">
      <contour>
        <pt x="895" y="625" on="1"/>
        <pt x="872" y="594" on="0"/>
        <pt x="848" y="501" on="1"/>
        <pt x="837" y="460" on="0"/>
        <pt x="806" y="311" on="1"/>
        <pt x="796" y="265" on="0"/>
        <pt x="777" y="173" on="0"/>
        <pt x="767" y="127" on="1"/>
        <pt x="749" y="38" on="0"/>
        <pt x="751" y="-1" on="1"/>
        <pt x="601" y="-1" on="1"/>
        <pt x="609" y="18" on="0"/>
        <pt x="628" y="81" on="0"/>
        <pt x="638" y="127" on="1"/>
        <pt x="648" y="173" on="0"/>
        <pt x="668" y="264" on="0"/>
        <pt x="678" y="309" on="1"/>
        <pt x="705" y="437" on="1"/>
        <pt x="667" y="395" on="0"/>
        <pt x="514" y="223" on="0"/>
        <pt x="396" y="91" on="1"/>
        <pt x="236" y="437" on="1"/>
        <pt x="209" y="309" on="1"/>
        <pt x="199" y="264" on="0"/>
        <pt x="180" y="173" on="0"/>
        <pt x="170" y="127" on="1"/>
        <pt x="151" y="37" on="0"/>
        <pt x="154" y="-1" on="1"/>
        <pt x="4" y="-1" on="1"/>
        <pt x="12" y="18" on="0"/>
        <pt x="31" y="81" on="0"/>
        <pt x="41" y="127" on="1"/>
        <pt x="52" y="173" on="0"/>
        <pt x="71" y="265" on="0"/>
        <pt x="81" y="311" on="1"/>
        <pt x="130" y="541" on="0"/>
        <pt x="130" y="595" on="1"/>
        <pt x="130" y="614" on="0"/>
        <pt x="127" y="625" on="1"/>
        <pt x="284" y="626" on="1"/>
        <pt x="434" y="308" on="1"/>
        <pt x="721" y="626" on="1"/>
      </contour>
    </TTGlyph>
    <TTGlyph name="Mu" xMin="4" yMin="1" xMax="895" yMax="628">
      <contour>
        <pt x="895" y="627" on="1"/>
        <pt x="872" y="596" on="0"/>
        <pt x="848" y="502" on="1"/>
        <pt x="843" y="483" on="0"/>
        <pt x="823" y="389" on="0"/>
        <pt x="807" y="313" on="1"/>
        <pt x="797" y="267" on="0"/>
        <pt x="778" y="175" on="0"/>
        <pt x="768" y="129" on="1"/>
        <pt x="758" y="83" on="0"/>
        <pt x="750" y="20" on="0"/>
        <pt x="751" y="1" on="1"/>
        <pt x="601" y="1" on="1"/>
        <pt x="619" y="37" on="0"/>
        <pt x="640" y="130" on="1"/>
        <pt x="650" y="175" on="0"/>
        <pt x="668" y="265" on="0"/>
        <pt x="678" y="311" on="1"/>
        <pt x="705" y="439" on="1"/>
        <pt x="668" y="396" on="0"/>
        <pt x="515" y="224" on="0"/>
        <pt x="397" y="93" on="1"/>
        <pt x="236" y="439" on="1"/>
        <pt x="209" y="311" on="1"/>
        <pt x="199" y="265" on="0"/>
        <pt x="180" y="175" on="0"/>
        <pt x="170" y="130" on="1"/>
        <pt x="152" y="39" on="0"/>
        <pt x="154" y="1" on="1"/>
        <pt x="4" y="1" on="1"/>
        <pt x="13" y="20" on="0"/>
        <pt x="32" y="83" on="0"/>
        <pt x="42" y="129" on="1"/>
        <pt x="52" y="175" on="0"/>
        <pt x="72" y="267" on="0"/>
        <pt x="82" y="313" on="1"/>
        <pt x="131" y="542" on="0"/>
        <pt x="131" y="596" on="1"/>
        <pt x="131" y="618" on="0"/>
        <pt x="127" y="627" on="1"/>
        <pt x="284" y="628" on="1"/>
        <pt x="434" y="310" on="1"/>
        <pt x="721" y="628" on="1"/>
      </contour>
    </TTGlyph>
    <TTGlyph name="N" xMin="0" yMin="0" xMax="786" yMax="627">
      <contour>
        <pt x="786" y="626" on="1"/>
        <pt x="778" y="607" on="0"/>
        <pt x="759" y="543" on="0"/>
        <pt x="749" y="496" on="1"/>
        <pt x="739" y="449" on="0"/>
        <pt x="719" y="357" on="0"/>
        <pt x="709" y="310" on="1"/>
        <pt x="643" y="0" on="1"/>
        <pt x="514" y="0" on="1"/>
        <pt x="427" y="135" on="0"/>
        <pt x="289" y="358" on="0"/>
        <pt x="235" y="449" on="1"/>
        <pt x="205" y="310" on="1"/>
        <pt x="195" y="264" on="0"/>
        <pt x="176" y="174" on="0"/>
        <pt x="166" y="129" on="1"/>
        <pt x="148" y="38" on="0"/>
        <pt x="150" y="0" on="1"/>
        <pt x="0" y="0" on="1"/>
        <pt x="9" y="19" on="0"/>
        <pt x="28" y="82" on="0"/>
        <pt x="38" y="128" on="1"/>
        <pt x="48" y="174" on="0"/>
        <pt x="68" y="266" on="0"/>
        <pt x="78" y="312" on="1"/>
        <pt x="126" y="538" on="0"/>
        <pt x="126" y="606" on="1"/>
        <pt x="126" y="616" on="0"/>
        <pt x="124" y="626" on="1"/>
        <pt x="287" y="626" on="0"/>
        <pt x="287" y="627" on="1"/>
        <pt x="391" y="457" on="0"/>
        <pt x="523" y="237" on="0"/>
        <pt x="552" y="184" on="1"/>
        <pt x="556" y="201" on="0"/>
        <pt x="570" y="264" on="0"/>
        <pt x="580" y="311" on="1"/>
        <pt x="590" y="358" on="0"/>
        <pt x="609" y="450" on="0"/>
        <pt x="619" y="496" on="1"/>
        <pt x="639" y="591" on="0"/>
        <pt x="636" y="626" on="1"/>
      </contour>
    </TTGlyph>
    <TTGlyph name="Nacute" xMin="0" yMin="0" xMax="786" yMax="865">
      <contour>
        <pt x="786" y="626" on="1"/>
        <pt x="778" y="607" on="0"/>
        <pt x="759" y="543" on="0"/>
        <pt x="749" y="496" on="1"/>
        <pt x="739" y="449" on="0"/>
        <pt x="719" y="357" on="0"/>
        <pt x="709" y="310" on="1"/>
        <pt x="643" y="0" on="1"/>
        <pt x="514" y="0" on="1"/>
        <pt x="427" y="135" on="0"/>
        <pt x="289" y="358" on="0"/>
        <pt x="235" y="449" on="1"/>
        <pt x="205" y="310" on="1"/>
        <pt x="195" y="264" on="0"/>
        <pt x="176" y="174" on="0"/>
        <pt x="166" y="129" on="1"/>
        <pt x="148" y="38" on="0"/>
        <pt x="150" y="0" on="1"/>
        <pt x="0" y="0" on="1"/>
        <pt x="9" y="19" on="0"/>
        <pt x="28" y="82" on="0"/>
        <pt x="38" y="128" on="1"/>
        <pt x="48" y="174" on="0"/>
        <pt x="68" y="266" on="0"/>
        <pt x="78" y="312" on="1"/>
        <pt x="126" y="538" on="0"/>
        <pt x="126" y="606" on="1"/>
        <pt x="126" y="616" on="0"/>
        <pt x="124" y="626" on="1"/>
        <pt x="287" y="626" on="0"/>
        <pt x="287" y="627" on="1"/>
        <pt x="391" y="457" on="0"/>
        <pt x="523" y="237" on="0"/>
        <pt x="552" y="184" on="1"/>
        <pt x="556" y="201" on="0"/>
        <pt x="570" y="264" on="0"/>
        <pt x="580" y="311" on="1"/>
        <pt x="590" y="358" on="0"/>
        <pt x="609" y="450" on="0"/>
        <pt x="619" y="496" on="1"/>
        <pt x="639" y="591" on="0"/>
        <pt x="636" y="626" on="1"/>
      </contour>
      <contour>
        <pt x="610" y="835" on="1"/>
        <pt x="512" y="668" on="1"/>
        <pt x="443" y="688" on="1"/>
        <pt x="530" y="865" on="1"/>
      </contour>
      <contour>
        <pt x="610" y="835" on="1"/>
        <pt x="512" y="668" on="1"/>
        <pt x="443" y="688" on="1"/>
        <pt x="530" y="865" on="1"/>
      </contour>
    </TTGlyph>
    <TTGlyph name="Ncaron" xMin="0" yMin="0" xMax="786" yMax="849">
      <contour>
        <pt x="786" y="626" on="1"/>
        <pt x="778" y="607" on="0"/>
        <pt x="759" y="543" on="0"/>
        <pt x="749" y="496" on="1"/>
        <pt x="739" y="449" on="0"/>
        <pt x="719" y="357" on="0"/>
        <pt x="709" y="310" on="1"/>
        <pt x="643" y="0" on="1"/>
        <pt x="514" y="0" on="1"/>
        <pt x="427" y="135" on="0"/>
        <pt x="289" y="358" on="0"/>
        <pt x="235" y="449" on="1"/>
        <pt x="205" y="310" on="1"/>
        <pt x="195" y="264" on="0"/>
        <pt x="176" y="174" on="0"/>
        <pt x="166" y="129" on="1"/>
        <pt x="148" y="38" on="0"/>
        <pt x="150" y="0" on="1"/>
        <pt x="0" y="0" on="1"/>
        <pt x="9" y="19" on="0"/>
        <pt x="28" y="82" on="0"/>
        <pt x="38" y="128" on="1"/>
        <pt x="48" y="174" on="0"/>
        <pt x="68" y="266" on="0"/>
        <pt x="78" y="312" on="1"/>
        <pt x="126" y="538" on="0"/>
        <pt x="126" y="606" on="1"/>
        <pt x="126" y="616" on="0"/>
        <pt x="124" y="626" on="1"/>
        <pt x="287" y="626" on="0"/>
        <pt x="287" y="627" on="1"/>
        <pt x="391" y="457" on="0"/>
        <pt x="523" y="237" on="0"/>
        <pt x="552" y="184" on="1"/>
        <pt x="556" y="201" on="0"/>
        <pt x="570" y="264" on="0"/>
        <pt x="580" y="311" on="1"/>
        <pt x="590" y="358" on="0"/>
        <pt x="609" y="450" on="0"/>
        <pt x="619" y="496" on="1"/>
        <pt x="639" y="591" on="0"/>
        <pt x="636" y="626" on="1"/>
      </contour>
      <contour>
        <pt x="695" y="789" on="1"/>
        <pt x="650" y="758" on="0"/>
        <pt x="561" y="697" on="0"/>
        <pt x="514" y="668" on="1"/>
        <pt x="468" y="668" on="1"/>
        <pt x="339" y="789" on="1"/>
        <pt x="395" y="847" on="1"/>
        <pt x="415" y="829" on="0"/>
        <pt x="469" y="781" on="0"/>
        <pt x="504" y="751" on="1"/>
        <pt x="532" y="769" on="0"/>
        <pt x="606" y="818" on="0"/>
        <pt x="654" y="849" on="1"/>
      </contour>
    </TTGlyph>
    <TTGlyph name="Ncommaaccent" xMin="0" yMin="-297" xMax="786" yMax="627">
      <contour>
        <pt x="786" y="626" on="1"/>
        <pt x="778" y="607" on="0"/>
        <pt x="759" y="543" on="0"/>
        <pt x="749" y="496" on="1"/>
        <pt x="739" y="449" on="0"/>
        <pt x="719" y="357" on="0"/>
        <pt x="709" y="310" on="1"/>
        <pt x="643" y="0" on="1"/>
        <pt x="514" y="0" on="1"/>
        <pt x="427" y="135" on="0"/>
        <pt x="289" y="358" on="0"/>
        <pt x="235" y="449" on="1"/>
        <pt x="205" y="310" on="1"/>
        <pt x="195" y="264" on="0"/>
        <pt x="176" y="174" on="0"/>
        <pt x="166" y="129" on="1"/>
        <pt x="148" y="38" on="0"/>
        <pt x="150" y="0" on="1"/>
        <pt x="0" y="0" on="1"/>
        <pt x="9" y="19" on="0"/>
        <pt x="28" y="82" on="0"/>
        <pt x="38" y="128" on="1"/>
        <pt x="48" y="174" on="0"/>
        <pt x="68" y="266" on="0"/>
        <pt x="78" y="312" on="1"/>
        <pt x="126" y="538" on="0"/>
        <pt x="126" y="606" on="1"/>
        <pt x="126" y="616" on="0"/>
        <pt x="124" y="626" on="1"/>
        <pt x="287" y="626" on="0"/>
        <pt x="287" y="627" on="1"/>
        <pt x="391" y="457" on="0"/>
        <pt x="523" y="237" on="0"/>
        <pt x="552" y="184" on="1"/>
        <pt x="556" y="201" on="0"/>
        <pt x="570" y="264" on="0"/>
        <pt x="580" y="311" on="1"/>
        <pt x="590" y="358" on="0"/>
        <pt x="609" y="450" on="0"/>
        <pt x="619" y="496" on="1"/>
        <pt x="639" y="591" on="0"/>
        <pt x="636" y="626" on="1"/>
      </contour>
      <contour>
        <pt x="381" y="-109" on="1"/>
        <pt x="368" y="-170" on="1"/>
        <pt x="344" y="-283" on="0"/>
        <pt x="225" y="-297" on="1"/>
        <pt x="231" y="-254" on="1"/>
        <pt x="274" y="-247" on="0"/>
        <pt x="289" y="-176" on="1"/>
        <pt x="261" y="-176" on="1"/>
        <pt x="275" y="-109" on="1"/>
      </contour>
    </TTGlyph>
    <TTGlyph name="Ntilde" xMin="0" yMin="0" xMax="786" yMax="787">
      <contour>
        <pt x="786" y="626" on="1"/>
        <pt x="778" y="607" on="0"/>
        <pt x="759" y="543" on="0"/>
        <pt x="749" y="496" on="1"/>
        <pt x="739" y="449" on="0"/>
        <pt x="719" y="357" on="0"/>
        <pt x="709" y="310" on="1"/>
        <pt x="643" y="0" on="1"/>
        <pt x="514" y="0" on="1"/>
        <pt x="427" y="135" on="0"/>
        <pt x="289" y="358" on="0"/>
        <pt x="235" y="449" on="1"/>
        <pt x="205" y="310" on="1"/>
        <pt x="195" y="264" on="0"/>
        <pt x="176" y="174" on="0"/>
        <pt x="166" y="129" on="1"/>
        <pt x="148" y="38" on="0"/>
        <pt x="150" y="0" on="1"/>
        <pt x="0" y="0" on="1"/>
        <pt x="9" y="19" on="0"/>
        <pt x="28" y="82" on="0"/>
        <pt x="38" y="128" on="1"/>
        <pt x="48" y="174" on="0"/>
        <pt x="68" y="266" on="0"/>
        <pt x="78" y="312" on="1"/>
        <pt x="126" y="538" on="0"/>
        <pt x="126" y="606" on="1"/>
        <pt x="126" y="616" on="0"/>
        <pt x="124" y="626" on="1"/>
        <pt x="287" y="626" on="0"/>
        <pt x="287" y="627" on="1"/>
        <pt x="391" y="457" on="0"/>
        <pt x="523" y="237" on="0"/>
        <pt x="552" y="184" on="1"/>
        <pt x="556" y="201" on="0"/>
        <pt x="570" y="264" on="0"/>
        <pt x="580" y="311" on="1"/>
        <pt x="590" y="358" on="0"/>
        <pt x="609" y="450" on="0"/>
        <pt x="619" y="496" on="1"/>
        <pt x="639" y="591" on="0"/>
        <pt x="636" y="626" on="1"/>
      </contour>
      <contour>
        <pt x="666" y="742" on="1"/>
        <pt x="602" y="672" on="0"/>
        <pt x="531" y="672" on="1"/>
        <pt x="481" y="672" on="0"/>
        <pt x="450" y="696" on="1"/>
        <pt x="419" y="720" on="0"/>
        <pt x="385" y="721" on="1"/>
        <pt x="353" y="723" on="0"/>
        <pt x="306" y="667" on="1"/>
        <pt x="260" y="688" on="1"/>
        <pt x="288" y="742" on="0"/>
        <pt x="331" y="767" on="1"/>
        <pt x="365" y="787" on="0"/>
        <pt x="394" y="787" on="1"/>
        <pt x="453" y="787" on="0"/>
        <pt x="487" y="762" on="1"/>
        <pt x="521" y="738" on="0"/>
        <pt x="552" y="738" on="1"/>
        <pt x="588" y="738" on="0"/>
        <pt x="610" y="784" on="1"/>
        <pt x="624" y="773" on="0"/>
        <pt x="652" y="753" on="0"/>
      </contour>
    </TTGlyph>
    <TTGlyph name="Nu" xMin="0" yMin="0" xMax="786" yMax="627">
      <contour>
        <pt x="786" y="626" on="1"/>
        <pt x="778" y="607" on="0"/>
        <pt x="759" y="543" on="0"/>
        <pt x="749" y="496" on="1"/>
        <pt x="739" y="449" on="0"/>
        <pt x="719" y="357" on="0"/>
        <pt x="709" y="310" on="1"/>
        <pt x="643" y="0" on="1"/>
        <pt x="514" y="0" on="1"/>
        <pt x="427" y="135" on="0"/>
        <pt x="289" y="358" on="0"/>
        <pt x="235" y="449" on="1"/>
        <pt x="205" y="310" on="1"/>
        <pt x="195" y="264" on="0"/>
        <pt x="176" y="174" on="0"/>
        <pt x="166" y="129" on="1"/>
        <pt x="148" y="38" on="0"/>
        <pt x="150" y="0" on="1"/>
        <pt x="0" y="0" on="1"/>
        <pt x="9" y="19" on="0"/>
        <pt x="28" y="82" on="0"/>
        <pt x="38" y="128" on="1"/>
        <pt x="48" y="174" on="0"/>
        <pt x="68" y="266" on="0"/>
        <pt x="78" y="312" on="1"/>
        <pt x="126" y="538" on="0"/>
        <pt x="126" y="606" on="1"/>
        <pt x="126" y="616" on="0"/>
        <pt x="124" y="626" on="1"/>
        <pt x="287" y="626" on="0"/>
        <pt x="287" y="627" on="1"/>
        <pt x="391" y="457" on="0"/>
        <pt x="523" y="237" on="0"/>
        <pt x="552" y="184" on="1"/>
        <pt x="556" y="201" on="0"/>
        <pt x="570" y="264" on="0"/>
        <pt x="580" y="311" on="1"/>
        <pt x="590" y="358" on="0"/>
        <pt x="609" y="450" on="0"/>
        <pt x="619" y="496" on="1"/>
        <pt x="639" y="591" on="0"/>
        <pt x="636" y="626" on="1"/>
      </contour>
    </TTGlyph>
    <TTGlyph name="O" xMin="18" yMin="-14" xMax="660" yMax="646">
      <contour>
        <pt x="648" y="299" on="1"/>
        <pt x="615" y="156" on="0"/>
        <pt x="511" y="70" on="1"/>
        <pt x="407" y="-14" on="0"/>
        <pt x="268" y="-14" on="1"/>
        <pt x="148" y="-14" on="0"/>
        <pt x="81" y="62" on="1"/>
        <pt x="18" y="132" on="0"/>
        <pt x="18" y="248" on="1"/>
        <pt x="18" y="264" on="0"/>
        <pt x="21" y="297" on="0"/>
        <pt x="23" y="314" on="1"/>
        <pt x="49" y="463" on="0"/>
        <pt x="153" y="554" on="1"/>
        <pt x="260" y="646" on="0"/>
        <pt x="408" y="646" on="1"/>
        <pt x="529" y="646" on="0"/>
        <pt x="597" y="575" on="1"/>
        <pt x="660" y="507" on="0"/>
        <pt x="660" y="396" on="1"/>
        <pt x="660" y="348" on="0"/>
      </contour>
      <contour>
        <pt x="510" y="312" on="1"/>
        <pt x="517" y="344" on="0"/>
        <pt x="517" y="377" on="1"/>
        <pt x="517" y="518" on="0"/>
        <pt x="378" y="518" on="1"/>
        <pt x="288" y="518" on="0"/>
        <pt x="220" y="435" on="1"/>
        <pt x="158" y="356" on="0"/>
        <pt x="158" y="264" on="1"/>
        <pt x="158" y="199" on="0"/>
        <pt x="192" y="159" on="1"/>
        <pt x="230" y="115" on="0"/>
        <pt x="295" y="115" on="1"/>
        <pt x="372" y="115" on="0"/>
        <pt x="434" y="175" on="1"/>
        <pt x="492" y="230" on="0"/>
      </contour>
    </TTGlyph>
    <TTGlyph name="OE" xMin="18" yMin="-14" xMax="983" yMax="646">
      <contour>
        <pt x="983" y="626" on="1"/>
        <pt x="966" y="573" on="0"/>
        <pt x="954" y="489" on="1"/>
        <pt x="870" y="489" on="1"/>
        <pt x="873" y="506" on="0"/>
        <pt x="868" y="514" on="1"/>
        <pt x="864" y="521" on="0"/>
        <pt x="809" y="521" on="1"/>
        <pt x="634" y="521" on="1"/>
        <pt x="602" y="378" on="1"/>
        <pt x="819" y="378" on="0"/>
        <pt x="855" y="392" on="1"/>
        <pt x="829" y="266" on="1"/>
        <pt x="784" y="281" on="0"/>
        <pt x="581" y="278" on="1"/>
        <pt x="543" y="107" on="1"/>
        <pt x="744" y="107" on="1"/>
        <pt x="794" y="107" on="0"/>
        <pt x="806" y="119" on="1"/>
        <pt x="814" y="128" on="0"/>
        <pt x="821" y="150" on="1"/>
        <pt x="904" y="150" on="1"/>
        <pt x="897" y="124" on="0"/>
        <pt x="882" y="50" on="0"/>
        <pt x="872" y="0" on="1"/>
        <pt x="799" y="3" on="0"/>
        <pt x="687" y="6" on="0"/>
        <pt x="647" y="5" on="1"/>
        <pt x="554" y="6" on="0"/>
        <pt x="382" y="-1" on="1"/>
        <pt x="308" y="-14" on="0"/>
        <pt x="268" y="-14" on="1"/>
        <pt x="148" y="-14" on="0"/>
        <pt x="81" y="62" on="1"/>
        <pt x="18" y="132" on="0"/>
        <pt x="18" y="248" on="1"/>
        <pt x="18" y="264" on="0"/>
        <pt x="21" y="297" on="0"/>
        <pt x="23" y="314" on="1"/>
        <pt x="49" y="463" on="0"/>
        <pt x="153" y="554" on="1"/>
        <pt x="260" y="646" on="0"/>
        <pt x="408" y="646" on="1"/>
        <pt x="449" y="646" on="0"/>
        <pt x="519" y="627" on="1"/>
        <pt x="565" y="624" on="0"/>
        <pt x="755" y="621" on="1"/>
        <pt x="795" y="620" on="0"/>
        <pt x="908" y="623" on="0"/>
      </contour>
      <contour>
        <pt x="493" y="466" on="1"/>
        <pt x="459" y="518" on="0"/>
        <pt x="378" y="518" on="1"/>
        <pt x="288" y="518" on="0"/>
        <pt x="220" y="435" on="1"/>
        <pt x="158" y="356" on="0"/>
        <pt x="158" y="264" on="1"/>
        <pt x="158" y="199" on="0"/>
        <pt x="192" y="159" on="1"/>
        <pt x="230" y="115" on="0"/>
        <pt x="295" y="115" on="1"/>
        <pt x="370" y="115" on="0"/>
        <pt x="429" y="170" on="1"/>
        <pt x="436" y="201" on="0"/>
        <pt x="468" y="348" on="0"/>
      </contour>
    </TTGlyph>
    <TTGlyph name="Oacute" xMin="18" yMin="-14" xMax="660" yMax="872">
      <contour>
        <pt x="648" y="299" on="1"/>
        <pt x="615" y="156" on="0"/>
        <pt x="511" y="70" on="1"/>
        <pt x="407" y="-14" on="0"/>
        <pt x="268" y="-14" on="1"/>
        <pt x="148" y="-14" on="0"/>
        <pt x="81" y="62" on="1"/>
        <pt x="18" y="132" on="0"/>
        <pt x="18" y="248" on="1"/>
        <pt x="18" y="264" on="0"/>
        <pt x="21" y="297" on="0"/>
        <pt x="23" y="314" on="1"/>
        <pt x="49" y="463" on="0"/>
        <pt x="153" y="554" on="1"/>
        <pt x="260" y="646" on="0"/>
        <pt x="408" y="646" on="1"/>
        <pt x="529" y="646" on="0"/>
        <pt x="597" y="575" on="1"/>
        <pt x="660" y="507" on="0"/>
        <pt x="660" y="396" on="1"/>
        <pt x="660" y="348" on="0"/>
      </contour>
      <contour>
        <pt x="510" y="312" on="1"/>
        <pt x="517" y="344" on="0"/>
        <pt x="517" y="377" on="1"/>
        <pt x="517" y="518" on="0"/>
        <pt x="378" y="518" on="1"/>
        <pt x="288" y="518" on="0"/>
        <pt x="220" y="435" on="1"/>
        <pt x="158" y="356" on="0"/>
        <pt x="158" y="264" on="1"/>
        <pt x="158" y="199" on="0"/>
        <pt x="192" y="159" on="1"/>
        <pt x="230" y="115" on="0"/>
        <pt x="295" y="115" on="1"/>
        <pt x="372" y="115" on="0"/>
        <pt x="434" y="175" on="1"/>
        <pt x="492" y="230" on="0"/>
      </contour>
      <contour>
        <pt x="543" y="842" on="1"/>
        <pt x="445" y="675" on="1"/>
        <pt x="376" y="695" on="1"/>
        <pt x="463" y="872" on="1"/>
      </contour>
      <contour>
        <pt x="543" y="842" on="1"/>
        <pt x="445" y="675" on="1"/>
        <pt x="376" y="695" on="1"/>
        <pt x="463" y="872" on="1"/>
      </contour>
    </TTGlyph>
    <TTGlyph name="Obreve" xMin="18" yMin="-14" xMax="660" yMax="813">
      <contour>
        <pt x="648" y="299" on="1"/>
        <pt x="615" y="156" on="0"/>
        <pt x="511" y="70" on="1"/>
        <pt x="407" y="-14" on="0"/>
        <pt x="268" y="-14" on="1"/>
        <pt x="148" y="-14" on="0"/>
        <pt x="81" y="62" on="1"/>
        <pt x="18" y="132" on="0"/>
        <pt x="18" y="248" on="1"/>
        <pt x="18" y="264" on="0"/>
        <pt x="21" y="297" on="0"/>
        <pt x="23" y="314" on="1"/>
        <pt x="49" y="463" on="0"/>
        <pt x="153" y="554" on="1"/>
        <pt x="260" y="646" on="0"/>
        <pt x="408" y="646" on="1"/>
        <pt x="529" y="646" on="0"/>
        <pt x="597" y="575" on="1"/>
        <pt x="660" y="507" on="0"/>
        <pt x="660" y="396" on="1"/>
        <pt x="660" y="348" on="0"/>
      </contour>
      <contour>
        <pt x="510" y="312" on="1"/>
        <pt x="517" y="344" on="0"/>
        <pt x="517" y="377" on="1"/>
        <pt x="517" y="518" on="0"/>
        <pt x="378" y="518" on="1"/>
        <pt x="288" y="518" on="0"/>
        <pt x="220" y="435" on="1"/>
        <pt x="158" y="356" on="0"/>
        <pt x="158" y="264" on="1"/>
        <pt x="158" y="199" on="0"/>
        <pt x="192" y="159" on="1"/>
        <pt x="230" y="115" on="0"/>
        <pt x="295" y="115" on="1"/>
        <pt x="372" y="115" on="0"/>
        <pt x="434" y="175" on="1"/>
        <pt x="492" y="230" on="0"/>
      </contour>
      <contour>
        <pt x="587" y="774" on="1"/>
        <pt x="525" y="706" on="0"/>
        <pt x="515" y="699" on="1"/>
        <pt x="475" y="670" on="0"/>
        <pt x="409" y="671" on="1"/>
        <pt x="356" y="673" on="0"/>
        <pt x="324" y="700" on="1"/>
        <pt x="311" y="711" on="0"/>
        <pt x="285" y="748" on="0"/>
        <pt x="271" y="774" on="1"/>
        <pt x="316" y="807" on="1"/>
        <pt x="324" y="794" on="0"/>
        <pt x="342" y="769" on="0"/>
        <pt x="350" y="756" on="1"/>
        <pt x="375" y="729" on="0"/>
        <pt x="421" y="727" on="1"/>
        <pt x="456" y="726" on="0"/>
        <pt x="492" y="755" on="1"/>
        <pt x="503" y="764" on="0"/>
        <pt x="549" y="813" on="1"/>
      </contour>
    </TTGlyph>
    <TTGlyph name="Ocircumflex" xMin="18" yMin="-14" xMax="660" yMax="850">
      <contour>
        <pt x="648" y="299" on="1"/>
        <pt x="615" y="156" on="0"/>
        <pt x="511" y="70" on="1"/>
        <pt x="407" y="-14" on="0"/>
        <pt x="268" y="-14" on="1"/>
        <pt x="148" y="-14" on="0"/>
        <pt x="81" y="62" on="1"/>
        <pt x="18" y="132" on="0"/>
        <pt x="18" y="248" on="1"/>
        <pt x="18" y="264" on="0"/>
        <pt x="21" y="297" on="0"/>
        <pt x="23" y="314" on="1"/>
        <pt x="49" y="463" on="0"/>
        <pt x="153" y="554" on="1"/>
        <pt x="260" y="646" on="0"/>
        <pt x="408" y="646" on="1"/>
        <pt x="529" y="646" on="0"/>
        <pt x="597" y="575" on="1"/>
        <pt x="660" y="507" on="0"/>
        <pt x="660" y="396" on="1"/>
        <pt x="660" y="348" on="0"/>
      </contour>
      <contour>
        <pt x="510" y="312" on="1"/>
        <pt x="517" y="344" on="0"/>
        <pt x="517" y="377" on="1"/>
        <pt x="517" y="518" on="0"/>
        <pt x="378" y="518" on="1"/>
        <pt x="288" y="518" on="0"/>
        <pt x="220" y="435" on="1"/>
        <pt x="158" y="356" on="0"/>
        <pt x="158" y="264" on="1"/>
        <pt x="158" y="199" on="0"/>
        <pt x="192" y="159" on="1"/>
        <pt x="230" y="115" on="0"/>
        <pt x="295" y="115" on="1"/>
        <pt x="372" y="115" on="0"/>
        <pt x="434" y="175" on="1"/>
        <pt x="492" y="230" on="0"/>
      </contour>
      <contour>
        <pt x="585" y="726" on="1"/>
        <pt x="528" y="675" on="1"/>
        <pt x="509" y="690" on="0"/>
        <pt x="459" y="732" on="0"/>
        <pt x="427" y="760" on="1"/>
        <pt x="399" y="744" on="0"/>
        <pt x="319" y="697" on="0"/>
        <pt x="265" y="665" on="1"/>
        <pt x="229" y="726" on="1"/>
        <pt x="433" y="850" on="1"/>
        <pt x="471" y="819" on="0"/>
        <pt x="547" y="757" on="0"/>
      </contour>
    </TTGlyph>
    <TTGlyph name="Odieresis" xMin="18" yMin="-14" xMax="660" yMax="782">
      <contour>
        <pt x="520" y="675" on="1"/>
        <pt x="503" y="675" on="0"/>
        <pt x="479" y="699" on="0"/>
        <pt x="479" y="717" on="1"/>
        <pt x="479" y="729" on="0"/>
        <pt x="490" y="752" on="0"/>
        <pt x="508" y="770" on="0"/>
        <pt x="531" y="781" on="0"/>
        <pt x="543" y="781" on="1"/>
        <pt x="561" y="781" on="0"/>
        <pt x="585" y="755" on="0"/>
        <pt x="585" y="737" on="1"/>
        <pt x="585" y="713" on="0"/>
        <pt x="544" y="675" on="0"/>
      </contour>
      <contour>
        <pt x="393" y="730" on="1"/>
        <pt x="389" y="709" on="0"/>
        <pt x="350" y="677" on="0"/>
        <pt x="329" y="677" on="1"/>
        <pt x="310" y="677" on="0"/>
        <pt x="286" y="702" on="0"/>
        <pt x="286" y="719" on="1"/>
        <pt x="286" y="731" on="0"/>
        <pt x="298" y="754" on="0"/>
        <pt x="316" y="771" on="0"/>
        <pt x="340" y="782" on="0"/>
        <pt x="352" y="782" on="1"/>
        <pt x="372" y="782" on="0"/>
        <pt x="397" y="749" on="0"/>
      </contour>
      <contour>
        <pt x="648" y="299" on="1"/>
        <pt x="615" y="156" on="0"/>
        <pt x="511" y="70" on="1"/>
        <pt x="407" y="-14" on="0"/>
        <pt x="268" y="-14" on="1"/>
        <pt x="148" y="-14" on="0"/>
        <pt x="81" y="62" on="1"/>
        <pt x="18" y="132" on="0"/>
        <pt x="18" y="248" on="1"/>
        <pt x="18" y="264" on="0"/>
        <pt x="21" y="297" on="0"/>
        <pt x="23" y="314" on="1"/>
        <pt x="49" y="463" on="0"/>
        <pt x="153" y="554" on="1"/>
        <pt x="260" y="646" on="0"/>
        <pt x="408" y="646" on="1"/>
        <pt x="529" y="646" on="0"/>
        <pt x="597" y="575" on="1"/>
        <pt x="660" y="507" on="0"/>
        <pt x="660" y="396" on="1"/>
        <pt x="660" y="348" on="0"/>
      </contour>
      <contour>
        <pt x="510" y="312" on="1"/>
        <pt x="517" y="344" on="0"/>
        <pt x="517" y="377" on="1"/>
        <pt x="517" y="518" on="0"/>
        <pt x="378" y="518" on="1"/>
        <pt x="288" y="518" on="0"/>
        <pt x="220" y="435" on="1"/>
        <pt x="158" y="356" on="0"/>
        <pt x="158" y="264" on="1"/>
        <pt x="158" y="199" on="0"/>
        <pt x="192" y="159" on="1"/>
        <pt x="230" y="115" on="0"/>
        <pt x="295" y="115" on="1"/>
        <pt x="372" y="115" on="0"/>
        <pt x="434" y="175" on="1"/>
        <pt x="492" y="230" on="0"/>
      </contour>
    </TTGlyph>
    <TTGlyph name="Ograve" xMin="18" yMin="-14" xMax="660" yMax="870">
      <contour>
        <pt x="648" y="299" on="1"/>
        <pt x="615" y="156" on="0"/>
        <pt x="511" y="70" on="1"/>
        <pt x="407" y="-14" on="0"/>
        <pt x="268" y="-14" on="1"/>
        <pt x="148" y="-14" on="0"/>
        <pt x="81" y="62" on="1"/>
        <pt x="18" y="132" on="0"/>
        <pt x="18" y="248" on="1"/>
        <pt x="18" y="264" on="0"/>
        <pt x="21" y="297" on="0"/>
        <pt x="23" y="314" on="1"/>
        <pt x="49" y="463" on="0"/>
        <pt x="153" y="554" on="1"/>
        <pt x="260" y="646" on="0"/>
        <pt x="408" y="646" on="1"/>
        <pt x="529" y="646" on="0"/>
        <pt x="597" y="575" on="1"/>
        <pt x="660" y="507" on="0"/>
        <pt x="660" y="396" on="1"/>
        <pt x="660" y="348" on="0"/>
      </contour>
      <contour>
        <pt x="510" y="312" on="1"/>
        <pt x="517" y="344" on="0"/>
        <pt x="517" y="377" on="1"/>
        <pt x="517" y="518" on="0"/>
        <pt x="378" y="518" on="1"/>
        <pt x="288" y="518" on="0"/>
        <pt x="220" y="435" on="1"/>
        <pt x="158" y="356" on="0"/>
        <pt x="158" y="264" on="1"/>
        <pt x="158" y="199" on="0"/>
        <pt x="192" y="159" on="1"/>
        <pt x="230" y="115" on="0"/>
        <pt x="295" y="115" on="1"/>
        <pt x="372" y="115" on="0"/>
        <pt x="434" y="175" on="1"/>
        <pt x="492" y="230" on="0"/>
      </contour>
      <contour>
        <pt x="445" y="696" on="1"/>
        <pt x="376" y="674" on="1"/>
        <pt x="299" y="841" on="1"/>
        <pt x="378" y="870" on="1"/>
      </contour>
    </TTGlyph>
    <TTGlyph name="Ohm" xMin="23" yMin="-8" xMax="665" yMax="773">
      <contour>
        <pt x="653" y="305" on="1"/>
        <pt x="620" y="162" on="0"/>
        <pt x="516" y="76" on="1"/>
        <pt x="412" y="-8" on="0"/>
        <pt x="273" y="-8" on="1"/>
        <pt x="153" y="-8" on="0"/>
        <pt x="86" y="68" on="1"/>
        <pt x="23" y="138" on="0"/>
        <pt x="23" y="254" on="1"/>
        <pt x="23" y="270" on="0"/>
        <pt x="26" y="303" on="0"/>
        <pt x="28" y="320" on="1"/>
        <pt x="54" y="469" on="0"/>
        <pt x="158" y="560" on="1"/>
        <pt x="265" y="652" on="0"/>
        <pt x="413" y="652" on="1"/>
        <pt x="534" y="652" on="0"/>
        <pt x="602" y="581" on="1"/>
        <pt x="665" y="513" on="0"/>
        <pt x="665" y="402" on="1"/>
        <pt x="665" y="354" on="0"/>
      </contour>
      <contour>
        <pt x="515" y="318" on="1"/>
        <pt x="522" y="350" on="0"/>
        <pt x="522" y="383" on="1"/>
        <pt x="522" y="524" on="0"/>
        <pt x="383" y="524" on="1"/>
        <pt x="293" y="524" on="0"/>
        <pt x="225" y="441" on="1"/>
        <pt x="163" y="362" on="0"/>
        <pt x="163" y="270" on="1"/>
        <pt x="163" y="205" on="0"/>
        <pt x="197" y="165" on="1"/>
        <pt x="235" y="121" on="0"/>
        <pt x="300" y="121" on="1"/>
        <pt x="377" y="121" on="0"/>
        <pt x="439" y="181" on="1"/>
        <pt x="497" y="236" on="0"/>
      </contour>
      <contour>
        <pt x="539" y="665" on="1"/>
        <pt x="521" y="665" on="0"/>
        <pt x="498" y="690" on="0"/>
        <pt x="498" y="707" on="1"/>
        <pt x="498" y="719" on="0"/>
        <pt x="509" y="742" on="0"/>
        <pt x="527" y="760" on="0"/>
        <pt x="550" y="771" on="0"/>
        <pt x="562" y="771" on="1"/>
        <pt x="580" y="771" on="0"/>
        <pt x="604" y="746" on="0"/>
        <pt x="604" y="728" on="1"/>
        <pt x="604" y="716" on="0"/>
        <pt x="593" y="693" on="0"/>
        <pt x="574" y="676" on="0"/>
        <pt x="551" y="665" on="0"/>
      </contour>
      <contour>
        <pt x="412" y="720" on="1"/>
        <pt x="407" y="700" on="0"/>
        <pt x="369" y="668" on="0"/>
        <pt x="348" y="668" on="1"/>
        <pt x="329" y="668" on="0"/>
        <pt x="304" y="692" on="0"/>
        <pt x="304" y="710" on="1"/>
        <pt x="304" y="722" on="0"/>
        <pt x="316" y="745" on="0"/>
        <pt x="334" y="762" on="0"/>
        <pt x="358" y="773" on="0"/>
        <pt x="370" y="773" on="1"/>
        <pt x="391" y="773" on="0"/>
        <pt x="416" y="740" on="0"/>
      </contour>
    </TTGlyph>
    <TTGlyph name="Ohorn" xMin="18" yMin="-14" xMax="749" yMax="724">
      <contour>
        <pt x="742" y="683" on="1"/>
        <pt x="749" y="668" on="0"/>
        <pt x="749" y="646" on="1"/>
        <pt x="749" y="592" on="0"/>
        <pt x="710" y="561" on="1"/>
        <pt x="676" y="533" on="0"/>
        <pt x="631" y="529" on="1"/>
        <pt x="660" y="473" on="0"/>
        <pt x="660" y="397" on="1"/>
        <pt x="660" y="348" on="0"/>
        <pt x="648" y="299" on="1"/>
        <pt x="615" y="156" on="0"/>
        <pt x="511" y="70" on="1"/>
        <pt x="407" y="-14" on="0"/>
        <pt x="268" y="-14" on="1"/>
        <pt x="148" y="-14" on="0"/>
        <pt x="81" y="62" on="1"/>
        <pt x="18" y="132" on="0"/>
        <pt x="18" y="248" on="1"/>
        <pt x="18" y="264" on="0"/>
        <pt x="21" y="297" on="0"/>
        <pt x="23" y="314" on="1"/>
        <pt x="49" y="463" on="0"/>
        <pt x="153" y="554" on="1"/>
        <pt x="260" y="646" on="0"/>
        <pt x="408" y="646" on="1"/>
        <pt x="525" y="646" on="0"/>
        <pt x="599" y="579" on="1"/>
        <pt x="599" y="578" on="1"/>
        <pt x="612" y="579" on="0"/>
        <pt x="635" y="583" on="0"/>
        <pt x="646" y="585" on="1"/>
        <pt x="680" y="592" on="0"/>
        <pt x="680" y="628" on="1"/>
        <pt x="680" y="643" on="0"/>
        <pt x="669" y="651" on="1"/>
        <pt x="652" y="662" on="0"/>
        <pt x="609" y="659" on="1"/>
        <pt x="636" y="723" on="1"/>
        <pt x="641" y="724" on="0"/>
        <pt x="650" y="724" on="0"/>
        <pt x="655" y="724" on="1"/>
        <pt x="727" y="724" on="0"/>
      </contour>
      <contour>
        <pt x="510" y="312" on="1"/>
        <pt x="517" y="344" on="0"/>
        <pt x="517" y="377" on="1"/>
        <pt x="517" y="518" on="0"/>
        <pt x="378" y="518" on="1"/>
        <pt x="288" y="518" on="0"/>
        <pt x="220" y="435" on="1"/>
        <pt x="158" y="356" on="0"/>
        <pt x="158" y="264" on="1"/>
        <pt x="158" y="199" on="0"/>
        <pt x="192" y="159" on="1"/>
        <pt x="230" y="115" on="0"/>
        <pt x="295" y="115" on="1"/>
        <pt x="372" y="115" on="0"/>
        <pt x="434" y="175" on="1"/>
        <pt x="492" y="230" on="0"/>
      </contour>
    </TTGlyph>
    <TTGlyph name="Ohungarumlaut" xMin="18" yMin="-14" xMax="660" yMax="865">
      <contour>
        <pt x="648" y="299" on="1"/>
        <pt x="615" y="156" on="0"/>
        <pt x="511" y="70" on="1"/>
        <pt x="407" y="-14" on="0"/>
        <pt x="268" y="-14" on="1"/>
        <pt x="148" y="-14" on="0"/>
        <pt x="81" y="62" on="1"/>
        <pt x="18" y="132" on="0"/>
        <pt x="18" y="248" on="1"/>
        <pt x="18" y="264" on="0"/>
        <pt x="21" y="297" on="0"/>
        <pt x="23" y="314" on="1"/>
        <pt x="49" y="463" on="0"/>
        <pt x="153" y="554" on="1"/>
        <pt x="260" y="646" on="0"/>
        <pt x="408" y="646" on="1"/>
        <pt x="529" y="646" on="0"/>
        <pt x="597" y="575" on="1"/>
        <pt x="660" y="507" on="0"/>
        <pt x="660" y="396" on="1"/>
        <pt x="660" y="348" on="0"/>
      </contour>
      <contour>
        <pt x="510" y="312" on="1"/>
        <pt x="517" y="344" on="0"/>
        <pt x="517" y="377" on="1"/>
        <pt x="517" y="518" on="0"/>
        <pt x="378" y="518" on="1"/>
        <pt x="288" y="518" on="0"/>
        <pt x="220" y="435" on="1"/>
        <pt x="158" y="356" on="0"/>
        <pt x="158" y="264" on="1"/>
        <pt x="158" y="199" on="0"/>
        <pt x="192" y="159" on="1"/>
        <pt x="230" y="115" on="0"/>
        <pt x="295" y="115" on="1"/>
        <pt x="372" y="115" on="0"/>
        <pt x="434" y="175" on="1"/>
        <pt x="492" y="230" on="0"/>
      </contour>
      <contour>
        <pt x="523" y="835" on="1"/>
        <pt x="460" y="668" on="1"/>
        <pt x="387" y="688" on="1"/>
        <pt x="436" y="865" on="1"/>
      </contour>
      <contour>
        <pt x="383" y="835" on="1"/>
        <pt x="320" y="668" on="1"/>
        <pt x="247" y="688" on="1"/>
        <pt x="296" y="865" on="1"/>
      </contour>
    </TTGlyph>
    <TTGlyph name="Omacron" xMin="18" yMin="-14" xMax="660" yMax="722">
      <contour>
        <pt x="648" y="299" on="1"/>
        <pt x="615" y="156" on="0"/>
        <pt x="511" y="70" on="1"/>
        <pt x="407" y="-14" on="0"/>
        <pt x="268" y="-14" on="1"/>
        <pt x="148" y="-14" on="0"/>
        <pt x="81" y="62" on="1"/>
        <pt x="18" y="132" on="0"/>
        <pt x="18" y="248" on="1"/>
        <pt x="18" y="264" on="0"/>
        <pt x="21" y="297" on="0"/>
        <pt x="23" y="314" on="1"/>
        <pt x="49" y="463" on="0"/>
        <pt x="153" y="554" on="1"/>
        <pt x="260" y="646" on="0"/>
        <pt x="408" y="646" on="1"/>
        <pt x="529" y="646" on="0"/>
        <pt x="597" y="575" on="1"/>
        <pt x="660" y="507" on="0"/>
        <pt x="660" y="396" on="1"/>
        <pt x="660" y="348" on="0"/>
      </contour>
      <contour>
        <pt x="510" y="312" on="1"/>
        <pt x="517" y="344" on="0"/>
        <pt x="517" y="377" on="1"/>
        <pt x="517" y="518" on="0"/>
        <pt x="378" y="518" on="1"/>
        <pt x="288" y="518" on="0"/>
        <pt x="220" y="435" on="1"/>
        <pt x="158" y="356" on="0"/>
        <pt x="158" y="264" on="1"/>
        <pt x="158" y="199" on="0"/>
        <pt x="192" y="159" on="1"/>
        <pt x="230" y="115" on="0"/>
        <pt x="295" y="115" on="1"/>
        <pt x="372" y="115" on="0"/>
        <pt x="434" y="175" on="1"/>
        <pt x="492" y="230" on="0"/>
      </contour>
      <contour>
        <pt x="565" y="722" on="1"/>
        <pt x="554" y="670" on="1"/>
        <pt x="247" y="670" on="1"/>
        <pt x="258" y="722" on="1"/>
      </contour>
    </TTGlyph>
    <TTGlyph name="Omega" xMin="39" yMin="1" xMax="721" yMax="643">
      <contour>
        <pt x="714" y="367" on="1"/>
        <pt x="689" y="233" on="0"/>
        <pt x="548" y="138" on="1"/>
        <pt x="525" y="123" on="0"/>
        <pt x="522" y="105" on="1"/>
        <pt x="528" y="104" on="1"/>
        <pt x="562" y="102" on="0"/>
        <pt x="582" y="116" on="1"/>
        <pt x="589" y="122" on="0"/>
        <pt x="594" y="136" on="1"/>
        <pt x="678" y="137" on="1"/>
        <pt x="673" y="123" on="0"/>
        <pt x="660" y="71" on="1"/>
        <pt x="646" y="12" on="0"/>
        <pt x="646" y="1" on="1"/>
        <pt x="497" y="6" on="0"/>
        <pt x="387" y="1" on="1"/>
        <pt x="397" y="50" on="1"/>
        <pt x="416" y="158" on="0"/>
        <pt x="483" y="223" on="1"/>
        <pt x="564" y="299" on="0"/>
        <pt x="579" y="379" on="1"/>
        <pt x="582" y="397" on="0"/>
        <pt x="582" y="414" on="1"/>
        <pt x="582" y="468" on="0"/>
        <pt x="517" y="526" on="0"/>
        <pt x="454" y="526" on="1"/>
        <pt x="382" y="526" on="0"/>
        <pt x="283" y="448" on="0"/>
        <pt x="267" y="379" on="1"/>
        <pt x="262" y="357" on="0"/>
        <pt x="262" y="337" on="1"/>
        <pt x="262" y="270" on="0"/>
        <pt x="291" y="218" on="1"/>
        <pt x="323" y="163" on="0"/>
        <pt x="323" y="115" on="1"/>
        <pt x="323" y="85" on="0"/>
        <pt x="314" y="49" on="1"/>
        <pt x="314" y="49" on="0"/>
        <pt x="303" y="1" on="1"/>
        <pt x="157" y="7" on="0"/>
        <pt x="39" y="1" on="1"/>
        <pt x="43" y="15" on="0"/>
        <pt x="54" y="72" on="1"/>
        <pt x="59" y="98" on="0"/>
        <pt x="64" y="131" on="0"/>
        <pt x="65" y="137" on="1"/>
        <pt x="148" y="136" on="1"/>
        <pt x="147" y="128" on="0"/>
        <pt x="152" y="116" on="1"/>
        <pt x="159" y="102" on="0"/>
        <pt x="203" y="104" on="1"/>
        <pt x="210" y="104" on="1"/>
        <pt x="212" y="121" on="0"/>
        <pt x="198" y="139" on="1"/>
        <pt x="130" y="231" on="0"/>
        <pt x="130" y="334" on="1"/>
        <pt x="130" y="359" on="0"/>
        <pt x="134" y="378" on="1"/>
        <pt x="160" y="515" on="0"/>
        <pt x="257" y="584" on="1"/>
        <pt x="346" y="648" on="0"/>
        <pt x="480" y="643" on="1"/>
        <pt x="598" y="640" on="0"/>
        <pt x="721" y="525" on="0"/>
        <pt x="721" y="429" on="1"/>
        <pt x="721" y="414" on="0"/>
        <pt x="718" y="383" on="0"/>
      </contour>
    </TTGlyph>
    <TTGlyph name="Omega.alt" xMin="54" yMin="-11" xMax="813" yMax="635">
      <contour>
        <pt x="800" y="244" on="1"/>
        <pt x="771" y="114" on="0"/>
        <pt x="688" y="44" on="1"/>
        <pt x="627" y="-8" on="0"/>
        <pt x="566" y="-11" on="1"/>
        <pt x="514" y="-15" on="0"/>
        <pt x="478" y="8" on="1"/>
        <pt x="422" y="42" on="0"/>
        <pt x="420" y="134" on="1"/>
        <pt x="350" y="-11" on="0"/>
        <pt x="187" y="-11" on="1"/>
        <pt x="146" y="-11" on="0"/>
        <pt x="109" y="19" on="1"/>
        <pt x="54" y="62" on="0"/>
        <pt x="54" y="149" on="1"/>
        <pt x="54" y="168" on="0"/>
        <pt x="59" y="209" on="0"/>
        <pt x="64" y="231" on="1"/>
        <pt x="116" y="449" on="0"/>
        <pt x="311" y="635" on="1"/>
        <pt x="415" y="564" on="1"/>
        <pt x="366" y="526" on="0"/>
        <pt x="337" y="491" on="1"/>
        <pt x="228" y="358" on="0"/>
        <pt x="203" y="235" on="1"/>
        <pt x="197" y="206" on="0"/>
        <pt x="197" y="184" on="1"/>
        <pt x="197" y="114" on="0"/>
        <pt x="248" y="114" on="1"/>
        <pt x="263" y="114" on="0"/>
        <pt x="295" y="127" on="0"/>
        <pt x="324" y="150" on="0"/>
        <pt x="348" y="180" on="0"/>
        <pt x="355" y="197" on="1"/>
        <pt x="383" y="272" on="0"/>
        <pt x="391" y="322" on="1"/>
        <pt x="392" y="331" on="0"/>
        <pt x="393" y="361" on="0"/>
        <pt x="392" y="382" on="1"/>
        <pt x="545" y="382" on="1"/>
        <pt x="540" y="370" on="0"/>
        <pt x="530" y="345" on="0"/>
        <pt x="526" y="331" on="1"/>
        <pt x="507" y="267" on="0"/>
        <pt x="502" y="194" on="1"/>
        <pt x="500" y="159" on="0"/>
        <pt x="537" y="115" on="0"/>
        <pt x="565" y="115" on="1"/>
        <pt x="596" y="115" on="0"/>
        <pt x="625" y="144" on="1"/>
        <pt x="656" y="177" on="0"/>
        <pt x="670" y="240" on="1"/>
        <pt x="677" y="268" on="0"/>
        <pt x="683" y="321" on="0"/>
        <pt x="683" y="347" on="1"/>
        <pt x="683" y="408" on="0"/>
        <pt x="658" y="482" on="1"/>
        <pt x="644" y="530" on="0"/>
        <pt x="617" y="564" on="1"/>
        <pt x="727" y="635" on="1"/>
        <pt x="813" y="531" on="0"/>
        <pt x="813" y="368" on="1"/>
        <pt x="813" y="305" on="0"/>
      </contour>
    </TTGlyph>
    <TTGlyph name="Omegatonos" xMin="-23" yMin="1" xMax="693" yMax="671">
      <contour>
        <pt x="686" y="367" on="1"/>
        <pt x="661" y="233" on="0"/>
        <pt x="520" y="138" on="1"/>
        <pt x="497" y="123" on="0"/>
        <pt x="494" y="105" on="1"/>
        <pt x="500" y="104" on="1"/>
        <pt x="534" y="102" on="0"/>
        <pt x="554" y="116" on="1"/>
        <pt x="561" y="122" on="0"/>
        <pt x="566" y="136" on="1"/>
        <pt x="650" y="137" on="1"/>
        <pt x="645" y="123" on="0"/>
        <pt x="632" y="71" on="1"/>
        <pt x="618" y="12" on="0"/>
        <pt x="618" y="1" on="1"/>
        <pt x="469" y="6" on="0"/>
        <pt x="359" y="1" on="1"/>
        <pt x="369" y="50" on="1"/>
        <pt x="388" y="158" on="0"/>
        <pt x="455" y="223" on="1"/>
        <pt x="536" y="299" on="0"/>
        <pt x="551" y="379" on="1"/>
        <pt x="554" y="397" on="0"/>
        <pt x="554" y="414" on="1"/>
        <pt x="554" y="468" on="0"/>
        <pt x="489" y="526" on="0"/>
        <pt x="426" y="526" on="1"/>
        <pt x="354" y="526" on="0"/>
        <pt x="255" y="448" on="0"/>
        <pt x="239" y="379" on="1"/>
        <pt x="234" y="357" on="0"/>
        <pt x="234" y="337" on="1"/>
        <pt x="234" y="270" on="0"/>
        <pt x="263" y="218" on="1"/>
        <pt x="295" y="163" on="0"/>
        <pt x="295" y="115" on="1"/>
        <pt x="295" y="85" on="0"/>
        <pt x="286" y="49" on="1"/>
        <pt x="286" y="49" on="0"/>
        <pt x="275" y="1" on="1"/>
        <pt x="129" y="7" on="0"/>
        <pt x="11" y="1" on="1"/>
        <pt x="15" y="15" on="0"/>
        <pt x="26" y="72" on="1"/>
        <pt x="31" y="98" on="0"/>
        <pt x="36" y="131" on="0"/>
        <pt x="37" y="137" on="1"/>
        <pt x="120" y="136" on="1"/>
        <pt x="119" y="128" on="0"/>
        <pt x="124" y="116" on="1"/>
        <pt x="131" y="102" on="0"/>
        <pt x="175" y="104" on="1"/>
        <pt x="182" y="104" on="1"/>
        <pt x="184" y="121" on="0"/>
        <pt x="170" y="139" on="1"/>
        <pt x="102" y="231" on="0"/>
        <pt x="102" y="334" on="1"/>
        <pt x="102" y="359" on="0"/>
        <pt x="106" y="378" on="1"/>
        <pt x="132" y="515" on="0"/>
        <pt x="229" y="584" on="1"/>
        <pt x="318" y="648" on="0"/>
        <pt x="452" y="643" on="1"/>
        <pt x="570" y="640" on="0"/>
        <pt x="693" y="525" on="0"/>
        <pt x="693" y="429" on="1"/>
        <pt x="693" y="414" on="0"/>
        <pt x="690" y="383" on="0"/>
      </contour>
      <contour>
        <pt x="113" y="641" on="1"/>
        <pt x="50" y="474" on="1"/>
        <pt x="-23" y="494" on="1"/>
        <pt x="26" y="671" on="1"/>
      </contour>
    </TTGlyph>
    <TTGlyph name="Omicron" xMin="16" yMin="-17" xMax="658" yMax="643">
      <contour>
        <pt x="646" y="296" on="1"/>
        <pt x="613" y="153" on="0"/>
        <pt x="509" y="67" on="1"/>
        <pt x="405" y="-17" on="0"/>
        <pt x="266" y="-17" on="1"/>
        <pt x="147" y="-17" on="0"/>
        <pt x="80" y="59" on="1"/>
        <pt x="16" y="129" on="0"/>
        <pt x="16" y="245" on="1"/>
        <pt x="16" y="261" on="0"/>
        <pt x="19" y="294" on="0"/>
        <pt x="21" y="311" on="1"/>
        <pt x="47" y="460" on="0"/>
        <pt x="151" y="551" on="1"/>
        <pt x="258" y="643" on="0"/>
        <pt x="406" y="643" on="1"/>
        <pt x="527" y="643" on="0"/>
        <pt x="595" y="572" on="1"/>
        <pt x="658" y="504" on="0"/>
        <pt x="658" y="393" on="1"/>
        <pt x="658" y="345" on="0"/>
      </contour>
      <contour>
        <pt x="508" y="309" on="1"/>
        <pt x="515" y="341" on="0"/>
        <pt x="515" y="374" on="1"/>
        <pt x="515" y="515" on="0"/>
        <pt x="376" y="515" on="1"/>
        <pt x="286" y="515" on="0"/>
        <pt x="218" y="432" on="1"/>
        <pt x="156" y="353" on="0"/>
        <pt x="156" y="261" on="1"/>
        <pt x="156" y="197" on="0"/>
        <pt x="191" y="156" on="1"/>
        <pt x="229" y="112" on="0"/>
        <pt x="293" y="112" on="1"/>
        <pt x="370" y="112" on="0"/>
        <pt x="432" y="172" on="1"/>
        <pt x="492" y="229" on="0"/>
      </contour>
    </TTGlyph>
    <TTGlyph name="Omicrontonos" xMin="-125" yMin="-7" xMax="660" yMax="672">
      <contour>
        <pt x="648" y="306" on="1"/>
        <pt x="615" y="163" on="0"/>
        <pt x="511" y="77" on="1"/>
        <pt x="407" y="-7" on="0"/>
        <pt x="268" y="-7" on="1"/>
        <pt x="149" y="-7" on="0"/>
        <pt x="82" y="69" on="1"/>
        <pt x="18" y="139" on="0"/>
        <pt x="18" y="255" on="1"/>
        <pt x="18" y="271" on="0"/>
        <pt x="21" y="304" on="0"/>
        <pt x="23" y="321" on="1"/>
        <pt x="49" y="470" on="0"/>
        <pt x="153" y="561" on="1"/>
        <pt x="260" y="653" on="0"/>
        <pt x="408" y="653" on="1"/>
        <pt x="529" y="653" on="0"/>
        <pt x="597" y="582" on="1"/>
        <pt x="660" y="514" on="0"/>
        <pt x="660" y="403" on="1"/>
        <pt x="660" y="355" on="0"/>
      </contour>
      <contour>
        <pt x="510" y="319" on="1"/>
        <pt x="517" y="351" on="0"/>
        <pt x="517" y="384" on="1"/>
        <pt x="517" y="525" on="0"/>
        <pt x="378" y="525" on="1"/>
        <pt x="288" y="525" on="0"/>
        <pt x="220" y="442" on="1"/>
        <pt x="158" y="363" on="0"/>
        <pt x="158" y="271" on="1"/>
        <pt x="158" y="207" on="0"/>
        <pt x="193" y="166" on="1"/>
        <pt x="231" y="122" on="0"/>
        <pt x="295" y="122" on="1"/>
        <pt x="372" y="122" on="0"/>
        <pt x="434" y="182" on="1"/>
        <pt x="494" y="239" on="0"/>
      </contour>
      <contour>
        <pt x="42" y="642" on="1"/>
        <pt x="-56" y="475" on="1"/>
        <pt x="-125" y="495" on="1"/>
        <pt x="-38" y="672" on="1"/>
      </contour>
    </TTGlyph>
    <TTGlyph name="Oslash" xMin="18" yMin="-99" xMax="660" yMax="764">
      <contour>
        <pt x="648" y="299" on="1"/>
        <pt x="616" y="159" on="0"/>
        <pt x="517" y="75" on="1"/>
        <pt x="417" y="-10" on="0"/>
        <pt x="284" y="-14" on="1"/>
        <pt x="256" y="-99" on="1"/>
        <pt x="162" y="-99" on="1"/>
        <pt x="193" y="-5" on="1"/>
        <pt x="108" y="18" on="0"/>
        <pt x="62" y="87" on="1"/>
        <pt x="18" y="155" on="0"/>
        <pt x="18" y="248" on="1"/>
        <pt x="18" y="264" on="0"/>
        <pt x="21" y="297" on="0"/>
        <pt x="23" y="314" on="1"/>
        <pt x="48" y="461" on="0"/>
        <pt x="152" y="553" on="1"/>
        <pt x="257" y="645" on="0"/>
        <pt x="405" y="646" on="1"/>
        <pt x="443" y="764" on="1"/>
        <pt x="537" y="764" on="1"/>
        <pt x="495" y="635" on="1"/>
        <pt x="576" y="612" on="0"/>
        <pt x="660" y="486" on="0"/>
        <pt x="660" y="396" on="1"/>
        <pt x="660" y="348" on="0"/>
      </contour>
      <contour>
        <pt x="510" y="312" on="1"/>
        <pt x="517" y="344" on="0"/>
        <pt x="517" y="377" on="1"/>
        <pt x="517" y="469" on="0"/>
        <pt x="452" y="502" on="1"/>
        <pt x="327" y="118" on="1"/>
        <pt x="395" y="130" on="0"/>
        <pt x="444" y="185" on="1"/>
        <pt x="494" y="241" on="0"/>
      </contour>
      <contour>
        <pt x="363" y="517" on="1"/>
        <pt x="277" y="511" on="0"/>
        <pt x="216" y="429" on="1"/>
        <pt x="158" y="353" on="0"/>
        <pt x="158" y="264" on="1"/>
        <pt x="158" y="161" on="0"/>
        <pt x="236" y="127" on="1"/>
      </contour>
    </TTGlyph>
</ttFont>
